<?xml version="1.0" encoding="utf-8"?>
<!-- Generator: Adobe Illustrator 16.0.0, SVG Export Plug-In . SVG Version: 6.00 Build 0)  -->
<!DOCTYPE svg PUBLIC "-//W3C//DTD SVG 1.1//EN" "http://www.w3.org/Graphics/SVG/1.1/DTD/svg11.dtd">
<svg version="1.1" id="Layer_1" xmlns="http://www.w3.org/2000/svg" xmlns:xlink="http://www.w3.org/1999/xlink" x="0px" y="0px"
	 width="150px" height="16.667px" viewBox="0 0 150 16.667" enable-background="new 0 0 150 16.667" xml:space="preserve">
<path fill="#FFFFFF" d="M137,209.334c-0.024,0.891-0.144,1.699-0.323,2.455c-1.572-0.642-3.406-0.409-4.879,1.343
	c-2.751,3.271-7.347,3.743-10.583,5.962l-13.842-26.427l-10.861,28h22.947c-0.719,0.87-1.281,1.948-1.613,3.338
	c-0.704,2.946,1.458,6.601,4.821,6.329c12.684-1.024,23.95-6.902,24.333-21C147.175,202.882,137.175,202.898,137,209.334z"/>
<g>
	<g>
		<g>
			<g>
				<g>
					<path fill="#999999" d="M208.667-35.268c0.103-0.043,0.045-0.141-0.24-0.121l-0.203,0.166L208.667-35.268z"/>
					<path fill="#999999" d="M206.75-35.574c-0.335,0.08-0.721,0.221-0.504,0.373c0.332-0.159,0.412-0.093,0.769-0.282
						c0.285-0.019,0.498,0.053,0.45,0.114c0.101-0.042,0.442,0.036,0.596-0.067c-0.371-0.128-0.84-0.133-1.331-0.028
						C206.624-35.5,206.726-35.544,206.75-35.574z"/>
					<path fill="#999999" d="M178.905-35.833l0.179,0.02C179.035-35.824,178.974-35.83,178.905-35.833z"/>
					<path fill="#999999" d="M161.652-35.923c0.131-0.004,0.186-0.021,0.193-0.035C161.723-35.948,161.623-35.938,161.652-35.923z"
						/>
					<path fill="#999999" d="M158.706-36.105c0.063,0.004,0.116,0.007,0.174,0.011C158.813-36.11,158.747-36.118,158.706-36.105z"/>
					<path fill="#999999" d="M178.905-35.833l-0.461-0.052C178.411-35.831,178.68-35.844,178.905-35.833z"/>
					<path fill="#999999" d="M202.911-35.175c0.096-0.008,0.177-0.023,0.25-0.043l-0.235,0.018
						C202.921-35.192,202.918-35.185,202.911-35.175z"/>
					<path fill="#999999" d="M186.51-35.967h0.14c0.041-0.019,0.08-0.042,0.116-0.067L186.51-35.967z"/>
					<path fill="#999999" d="M192.347-35.992c-0.132-0.006-0.178,0.135-0.228,0.196c0.074-0.058,0.172-0.085,0.288-0.096
						C192.408-35.919,192.391-35.951,192.347-35.992z"/>
					<path fill="#999999" d="M201.602-35.745l0.165-0.02C201.723-35.759,201.653-35.75,201.602-35.745z"/>
					<path fill="#999999" d="M182.333-35.997c-0.01-0.021-0.031-0.039-0.053-0.05C182.279-36.03,182.3-36.013,182.333-35.997z"/>
					<path fill="#999999" d="M19.101-35.26c0.006-0.01,0-0.017,0.002-0.025C19.067-35.274,19.056-35.266,19.101-35.26z"/>
					<path fill="#999999" d="M12.445-36.637l0.094,0.002c0.013-0.025,0.027-0.05,0.031-0.076L12.445-36.637z"/>
					<path fill="#999999" d="M153.315-36.286c0.011,0.001,0.014,0.001,0.024,0.002C153.481-36.299,153.4-36.296,153.315-36.286z"/>
					<path fill="#999999" d="M103.821-35.158c0.564,0.109-0.907,0.188-0.06,0.303C103.681-34.908,104.522-35.098,103.821-35.158z"/>
					<path fill="#999999" d="M202.759-35.194l-0.239,0.001C202.629-35.188,202.703-35.188,202.759-35.194z"/>
					<path fill="#999999" d="M103.762-34.855v0.001l0.087,0.01C103.813-34.849,103.792-34.851,103.762-34.855z"/>
					<path fill="#999999" d="M140.887-36.09c0.026,0.024,0.076,0.043,0.127,0.06C141.01-36.044,140.981-36.062,140.887-36.09z"/>
					<path fill="#999999" d="M150.147-35.994l-0.229-0.016C150.009-35.998,150.083-35.995,150.147-35.994z"/>
					<path fill="#999999" d="M136.083-35.837c-0.125-0.009-0.167-0.028-0.337-0.008c0.016,0.007,0.032,0.012,0.052,0.017
						C135.859-35.848,135.94-35.858,136.083-35.837z"/>
					<path fill="#999999" d="M131.082-35.736l0.093,0.026c0.05-0.003,0.107-0.008,0.158-0.012L131.082-35.736z"/>
					<path fill="#999999" d="M34.278-34.067c-0.107-0.045-0.173-0.092-0.224-0.138C34.125-34.102,33.389-34.104,34.278-34.067z"/>
					<path fill="#999999" d="M202.908-35.254c-0.029,0.036-0.072,0.053-0.148,0.061c0.057-0.002,0.112-0.005,0.167-0.007
						C202.94-35.222,202.943-35.242,202.908-35.254z"/>
					<path fill="#999999" d="M135.899-34.727l-0.794-0.012C135.328-34.728,135.616-34.723,135.899-34.727z"/>
					<path fill="#999999" d="M70.177-33.309l-0.183,0.019C70.064-33.288,70.129-33.292,70.177-33.309z"/>
					<path fill="#999999" d="M132.75-34.671c-0.143-0.046-0.293-0.071-0.449-0.085c-0.033,0.012-0.07,0.021-0.092,0.038
						L132.75-34.671z"/>
					<path fill="#999999" d="M34.053-34.207l0.001,0.001L34.053-34.207z"/>
					<path fill="#999999" d="M28.795-34.141c0.757,0.043,0.369-0.162,0.538-0.26c0.907-0.006,0.408,0.157,0.709,0.267
						c0.568-0.02,1.012-0.167,1.433-0.138c0.029,0.032,0.11,0.047,0.012,0.08c0.606-0.116,1.772,0.083,2.478-0.065
						c0.051,0.019,0.076,0.036,0.088,0.05c-0.107-0.098-0.118-0.193-0.091-0.258c0.339,0.014,0.636-0.084,0.757,0.042
						c-0.208-0.014-0.228,0.034-0.328,0.066l0.358-0.034c0.31,0.189-0.488,0.035-0.496,0.163c0.697-0.021,1.513-0.123,2.041-0.047
						c0.102,0.175-1.245-0.006-0.544,0.181L34.931-34.2c0.613,0.3-0.499-0.044,0.062,0.271c1.08,0.104,1.215-0.024,2.292,0.08
						c0.248-0.082-0.073-0.144,0.175-0.225c1.542-0.091,1.187,0.488,2.326,0.32c0.297-0.098,0.42-0.307,1.218-0.153l-0.282,0.178
						c1.047,0.072,0.61-0.246,1.701-0.06c-0.198,0.065-0.826,0.021-0.668,0.052c0.705,0.188,0.507-0.083,1.053-0.055l0.106,0.176
						c1.117,0.019,2.349-0.004,3.586-0.023c-0.07,0.049-0.283,0.1,0.004,0.156c1.562-0.062,3.328,0.07,4.83,0.193l0.578-0.138
						c0.133,0.003,0.247,0.07,0.102,0.096c0.585,0.064,0.032-0.093,0.315-0.146c0.333-0.005,0.439,0.091,0.227,0.132
						c1.037-0.109,2.95-0.225,4.038-0.052l-0.213,0.041c0.848,0.072,0.961-0.287,1.746-0.138l-0.151,0.024
						c1.841,0.091,3.876-0.014,5.281,0.229c0.267-0.209,1.822,0.077,1.94-0.217c1.051,0.135,0.75,0.191,2.231,0.274
						c0.396,0.01,0.589-0.19,1.078-0.226l0.013,0.154l0.663-0.168l0.354,0.181l0.458-0.044c-0.183-0.007-0.389-0.065-0.361-0.11
						c0.716-0.077,1.747,0.09,1.765,0.168l1.694-0.147c-0.037,0.062-0.321,0.086-0.545,0.128c0.903-0.166,0.166,0.161,0.994,0.008
						c-0.111-0.034,0.059-0.092,0.078-0.124c0.414,0.089,1.355,0.08,2.05,0.034l-0.132,0.108c1.257,0.014,2.649-0.078,4.06-0.09
						c-0.507-0.044-0.394-0.229,0.02-0.251l0.168,0.161c0.265-0.104-0.433-0.057,0.113-0.186c0.527,0.013,0.357,0.182,0.056,0.238
						l0.64-0.063c0.039,0.048-0.111,0.075-0.149,0.138c0.261-0.101,1.109,0.151,1.485-0.038l0.037,0.047
						c1.41-0.033,2.048-0.105,3.196-0.142c0.02-0.142,0.469-0.121,0.809-0.243c0.845,0.024,1.784,0.111,2.8,0.074
						c0.712-0.088,0.206-0.124,0.525-0.216c0.056,0.127,1.071,0.089,0.546,0.195c1.219-0.051,1.558-0.064,3.098-0.207
						c-0.169-0.048-0.357-0.066-0.261-0.112c0.279-0.028,0.639,0.038,0.6,0.1l-0.074,0.015c1.727-0.235,4.008,0.274,5.38-0.026
						l-0.077,0.015l1.426-0.179c0.659,0.002-0.392,0.108,0.098,0.173c1.536-0.26,2.438-0.042,3.704-0.223
						c0.994,0.349,3.487-0.131,4.821,0.07l-0.079-0.087c0.34-0.097,0.417,0.039,0.67,0.051c-0.038-0.068-0.375-0.068-0.163-0.123
						c2.902-0.192,6-0.055,8.98-0.055c1.09-0.004,0.605-0.476,1.984-0.299l-0.385,0.175c2.192-0.255,4.494-0.109,6.642-0.333
						c-0.127,0.041-0.13,0.091-0.34,0.096c0.458,0.108,1.681-0.038,1.686-0.136c0.335,0.002,0.08,0.086,0.287,0.131
						c0.458,0.059,1.141-0.183,1.386-0.069c0.042,0.018-0.127,0.042-0.21,0.053c0.296-0.065,1.384-0.021,1.097-0.152
						c0.81,0.045,1.544-0.101,2.19-0.036c0.417-0.166,1.384,0.039,1.513-0.184c-0.053,0.221,1.419,0.161,1.928,0.05
						c-0.169,0.07,0.445,0.065,0.247,0.163c0.582-0.01,1.116-0.058,1.012-0.173c1.077,0.258,2.154-0.242,2.764,0.098
						c1.729-0.141,3.33-0.241,4.887-0.312c-0.055,0.226-1.721,0.042-1.652,0.277c1.476-0.109,2.327-0.312,3.792-0.274
						c0.379,0.027-0.215,0.101-0.343,0.14c1.475-0.109,2.853-0.011,4.166-0.149c-0.004,0.021-0.146,0.045-0.279,0.064
						c0.259-0.01,0.602,0.027,0.573-0.075l-0.252,0.03c-0.414-0.148,1.028-0.314,1.075-0.391c-0.439,0.293,1.298,0.074,0.6,0.445
						c0.17-0.019,0.384-0.068,0.345-0.136c0.253,0.02,0.333,0.06,0.077,0.138c0.928-0.056,0.598-0.165,1.438-0.162
						c-0.003,0.049-0.172,0.069-0.26,0.127c0.426-0.097,0.853-0.193,1.563-0.151c-0.043,0.03,0.04,0.069-0.172,0.068
						c1.22-0.015,2.079-0.258,3.417-0.164c-0.395,0.215,0.455,0.071,0.526,0.257l0.719-0.056l-0.289-0.09
						c0.63,0.003,1.187-0.133,1.729-0.072l-0.468,0.077l1.181-0.036l-0.668-0.071c0.638-0.096-0.068-0.236,0.771-0.184
						c-0.17,0.019,0.63,0.002,0.959,0.112l-0.002,0c0.312-0.06,0.632-0.122,1.099-0.076c0.121,0.06-0.098,0.207-0.019,0.246
						c0.308-0.156,1.476-0.043,1.866-0.209c-0.13,0.039-0.137,0.137-0.094,0.157l0.258-0.127c0.292,0.041,0.335,0.06,0.288,0.138
						c0.878,0.023-0.279-0.237,0.763-0.135c-0.082,0.01-0.042,0.029-0.213,0.048c1.047,0.053,2.023-0.08,2.985-0.018
						c0.284,0.188-0.841,0.046-0.516,0.205c1.387-0.034,2.872-0.225,4.214-0.181l-0.25-0.021c0.186-0.265,1,0.131,1.678,0.006
						c-0.166,0.02-0.218,0.147-0.173,0.117c0.919,0.043,1.879-0.065,3.272-0.148l-0.173,0.068c0.542,0.061,1.427,0.035,2.012,0.066
						c0.174-0.068,0.508-0.057,0.305-0.156c1.804,0.388,3.441-0.208,5.042,0.115c-0.191,0.001-0.456,0.06-0.304,0.06l1.363-0.063
						c-0.108-0.115-0.179-0.07-0.465-0.16c0.172-0.068,0.557-0.122,0.895-0.122c-0.613,0.077,0.005,0.186,0.27,0.25
						c-0.044-0.036,0.046-0.075,0.024-0.11c0.712,0.206,0.12-0.232,1.092-0.094l-0.052,0.061c0.364-0.031,0.699-0.111,1.092-0.094
						c0.163,0.134-0.387,0.062-0.413,0.172c0.551-0.008,1.088-0.253,1.587-0.12c-0.234,0.038-0.571,0.038-0.805,0.075
						c0.543,0.157,0.606,0.117,1.01,0.142l-0.04-0.003l0.934,0.071l-0.238-0.043c0.69-0.348,1.405-0.063,2.334-0.292
						c-0.903,0.216-0.149,0.125-0.219,0.276c0.237,0.042,0.598,0.089,0.496,0.132c0.439-0.123,0.733,0.096,1.353-0.083
						c0.028,0.049,0.47,0.005,0.371,0.127c0.571-0.038-0.135-0.084-0.087-0.146c0.88-0.167,2.069,0.202,3.335-0.026
						c1.092-0.094,1.294-0.258,2.307-0.34c0.342,0.078-0.28,0.178-0.28,0.178c0.552,0.072,0.967,0.059,1.487,0.002
						c-0.105,0.042,0.003,0.079,0.162,0.133c0.417-0.013,0.279-0.177,0.829-0.105c-0.094,0.054-0.215,0.141-0.417,0.196
						c0.492-0.045,0.977-0.136,1.486-0.18c0.135,0.085-0.307,0.129-0.487,0.184c0.572-0.038,1.482-0.077,1.659-0.211l-0.367-0.048
						c0.208-0.006,0.107,0.115-0.047,0.14c-0.49,0.105-0.707-0.047-0.734-0.096l0.362-0.031c-0.372-0.286-1.456,0.046-2.185,0.029
						l0.304-0.208l-0.748,0.172c-0.159-0.054-0.268-0.17,0.092-0.201c-0.523-0.103-0.463,0.074-0.913-0.041
						c-0.05-0.018-0.027-0.028,0.019-0.036l-0.511,0.062c0.1-0.044-0.085-0.147,0.229-0.117c-0.917-0.12-1.479,0.156-1.825-0.001
						l0.077-0.013c-1.273,0.07-0.123,0.153-1.078,0.332l-0.643-0.377l-0.125,0.153c-0.131-0.005-0.391-0.017-0.343-0.078
						c-0.488,0.104,0.083,0.066-0.2,0.165c-0.632-0.139-1.743,0.065-1.885-0.178c-0.227,0.116,0.604,0.09-0.07,0.17
						c-0.192-0.262-0.78,0.045-1.357-0.075c0.177-0.135,0.724-0.063,0.146-0.184c-0.348,0.228-1.124-0.05-1.611-0.006
						c-0.023,0.182-1.059,0.076-1.876,0.136c0.052-0.061-1.538-0.1-2.298-0.166l0.022-0.03c-0.147,0.184-0.931,0.149-1.502,0.187
						c0.022-0.11,0.125-0.153,0.435-0.203l-0.537,0.001c-0.127,0.059-0.294,0.09-0.643,0.111l0.135-0.137
						c-0.714,0.007-1.438,0.162-2.358,0.07c-0.052,0.128,0.731,0.356-0.241,0.442c-0.036-0.069-0.072-0.188,0.182-0.216
						c-0.083,0.009-0.297,0.058-0.465,0.028l0.388-0.116c-0.418-0.051-0.219,0.097-0.554,0.086c0.007-0.099-0.248-0.07-0.2-0.149
						c0.085-0.009,0.292,0.041,0.42,0.002c-0.377-0.018-0.834-0.076-0.984-0.151c0.033,0.056,0,0.133-0.276,0.146
						c-0.714,0.007-0.245-0.119-0.661-0.17c-0.173,0.069-0.629-0.002-0.641,0.146c-0.209-0.001-0.248-0.07-0.328-0.11
						c-0.37,0.065-1.727,0.019-1.311,0.176l0.095,0.01c-0.018,0.002-0.038,0.004-0.061,0.006c0.003,0,0,0,0.003,0h-0.003
						c-1.211,0.147-2.517-0.083-3.72-0.02l0.002-0.05c-0.718,0.057-1.598,0.034-2.11,0.14c-0.212,0-0.501-0.09-0.411-0.149
						c-0.548,0.037-0.61,0.093-1.402,0.011c0.552-0.086-0.19-0.076,0.565-0.063c-0.712-0.043-0.875-0.122-1.64,0.013
						c0.261-0.126-0.537-0.159-0.875-0.122l0.5,0.09c-0.381,0.019-0.714,0.007-1.053-0.003l0.183-0.167
						c-1.459-0.202-2.631,0.345-3.742,0.006c-0.386,0.116,0.792,0.082,0.447,0.218c-0.671-0.022-1.371-0.261-1.581-0.262
						c-0.919-0.092-0.858,0.243-1.82,0.18c0.123,0.059,0.239,0.218-0.479,0.273c-0.672-0.022-0.826-0.249-0.402-0.296
						c0.161-0.005,0.239,0.014,0.232,0.034c0.217-0.021,0.501-0.047,0.235-0.111l-0.087,0.059c-0.333-0.061-1.257-0.054-1.04-0.151
						c-0.507,0.057-0.217,0.097,0.159,0.128c-0.861-0.086-1.346-0.002-2.232-0.06c0.141,0.033,0.271,0.102,0.13,0.102
						c-1.301-0.073-0.573,0.113-1.454,0.139c-0.5-0.09,0.18-0.216-0.708-0.14c-0.542-0.062-0.115-0.158,0.101-0.206
						c-0.808,0.115-1.51-0.075-1.971-0.096l0.425-0.048c-0.254,0.029-0.463,0.028-0.675,0.027l0.243,0.119
						c-0.25-0.021-0.461-0.021-0.457-0.07c-0.257,0.078,0.197,0.197-0.314,0.304c-0.333-0.061-1.015,0.064-1.13-0.093
						c1.048,0.053-0.116-0.158,0.771-0.184c-0.171,0.019-0.38,0.018-0.63-0.003c-0.038-0.018,0.035-0.033,0.104-0.042
						c-1.002-0.141-0.461,0.178-1.5,0.174c0.132-0.089-0.241-0.168-0.41-0.149c0.418,0.002,0.2,0.148-0.184,0.216
						c-0.667-0.071-0.725,0.057-1.074,0.051l0.399,0.028c-0.135,0.09-0.469,0.083-0.933,0.116c-0.04-0.069,0.422-0.052,0.256-0.081
						c-0.516,0.162-1.166-0.148-1.885-0.035c-0.333-0.056-0.033-0.167-0.326-0.204c-0.806,0.124-0.874-0.112-1.722-0.007
						c0.245,0.117,0.288,0.087-0.309,0.209l1.393-0.1l-0.894,0.184c0.42-0.003,0.887-0.084,1.139-0.067
						c-0.426,0.103-0.382,0.072-0.18,0.169c-0.576-0.173-1.14,0.117-1.806,0.003l0.018-0.295c-1.001-0.121-1.775,0.171-3.075,0.112
						l0.418,0.046c-0.173,0.119-0.802,0.025-1.222,0.078c0.038-0.099-0.225-0.132-0.405-0.191c0.022,0.073-0.951,0.004-1.066,0.203
						l-0.582-0.124c-1.049-0.042-1.192,0.294-2.201,0.272c0.302-0.111-0.157-0.176,0.517-0.26c-0.336,0.003-0.64-0.012-0.644,0.057
						c-0.198-0.06-0.931,0.144-1.242,0.053c-0.141,0.045-0.186,0.149-0.563,0.145c-0.042-0.02,0-0.049,0-0.049
						c0,0.049-0.59,0.073-0.258,0.179c-1.042-0.306-2.895,0.09-3.803-0.157c-0.733,0.052-1.617,0.106-2.283,0.131
						c0.042-0.03,0.001-0.049,0.127-0.042c-0.921-0.068-0.559,0.298-1.607,0.222c-0.538-0.146,0.553-0.101,0.219-0.152
						c-0.153-0.321-1.261,0.077-1.97-0.094l0.17-0.023c-0.541-0.097-1.31,0.157-2.189,0.156c0,0,0.042-0.03,0.004-0.049
						c-0.597,0.181-1.733,0.265-2.578,0.333c0.26-0.134,0.382-0.077,0.218-0.202c-0.378,0.028,0.117,0.205-0.639,0.26
						c-0.248-0.063-0.796-0.11-0.872-0.246l0.713-0.026c-0.37-0.169-0.923,0.03-1.3,0.008l0.046-0.079
						c-1.093,0.054-1.103,0.25-2.279,0.267l0.124,0.056c-0.637,0.212-0.542-0.094-1.178,0.07l-0.2-0.191
						c-0.422,0.06-1.479,0.235-2.237,0.295c0.426-0.159,1.313-0.26,1.861-0.364c-0.42,0.011-1.427,0.057-1.643,0.161
						c0.169-0.024,0.38-0.079,0.549-0.054c-0.511,0.171-1.187,0.267-2.024,0.289c0.137-0.387-2.185-0.031-2.8-0.31
						c-1.477,0.186-2.939,0.028-4.664,0.102c0.62,0.28-0.503,0.023-0.389,0.326c-0.401,0.032-0.555,0.031-0.591,0.012L102.541-35
						c-0.292-0.08,0.38-0.079,0.341-0.146c-0.88,0.003-0.373-0.119-0.957-0.182c0.123,0.105-0.301,0.166-0.804,0.139l0.71,0.12
						c-1.225,0.2-1.07-0.225-2.305-0.026l0.389-0.108c-0.634,0.079-2.346,0.06-2.962,0.322c-0.114-0.033-0.265-0.113,0.015-0.142
						c-1.52,0-3.375,0.345-4.56,0.223l0.113-0.078c-0.283,0.029-0.49,0.152-0.847,0.086c0.017-0.031,0.112-0.078-0.02-0.079
						c-0.149,0.03-0.75,0.15-1.126,0.115l0.319-0.092c-1.484-0.061-2.27,0.261-3.511,0.343c-0.002-0.22-1.17-0.263-1.752-0.284
						l0.02-0.032c-1.726,0.015-2.928,0.257-4.524,0.379c-0.997-0.229-3.362-0.066-4.958-0.184c0.244,0.038-0.038,0.172-0.321,0.197
						c-0.375-0.041-1.033,0.163-0.976-0.04l0.133,0.002c-0.284-0.195-1.052-0.134-1.653-0.134l-0.096,0.265
						c-1.574-0.368-4.114,0.183-4.974-0.153c-0.379,0.07-0.848,0.074-1.224,0.144l0.02-0.142c-1.05-0.025-1.574-0.038-2.872,0.009
						l0.265-0.104c-0.732-0.004-0.924,0.425-1.6,0.419l-0.203-0.214c-1.277-0.016-2.567-0.22-3.831-0.047
						c0.021-0.031,0.059-0.092,0.266-0.097c-0.601-0.015-2.323-0.178-2.108,0.116c-0.013-0.189-1.317-0.038-2.008,0.035l0.11-0.138
						c-0.585,0.169-0.604,0.218-1.418,0.255c-0.193-0.021-0.167-0.114,0.088-0.075c-0.641-0.082-0.503,0.125-1.28,0.039l0.292-0.084
						c-0.661-0.021-0.609,0.028-0.975,0.126c-0.417,0.05-1.253-0.054-1.347-0.181c-0.091,0.075-0.455,0.173-0.843,0.131
						c-0.052-0.048,0.091-0.076,0.163-0.089c-1.102-0.111-1.646,0.138-2.403-0.01c-0.014-0.046-0.063-0.07-0.125-0.085
						c0.877,0.016,1.583,0.035,1.517,0.043c0.003-0.128-0.705-0.162-0.137-0.331c-0.571,0.088-1.549,0.285-2.238,0.214
						c-0.033-0.013-0.065-0.025-0.09-0.045l0.072-0.014c-0.159-0.015-0.302-0.005-0.437,0.015c-0.22-0.027-0.359-0.054-0.57-0.065
						c-0.078-0.11-0.809-0.099-1.161-0.122c0.024,0.142-0.437,0.096-0.008,0.234c-0.056-0.013,0.067-0.014,0.302-0.008
						c0.053-0.001,0.116,0,0.151-0.007l-0.024,0.011c0.232,0.009,0.534,0.021,0.877,0.036c-0.281,0.057-0.575,0.102-0.962,0.004
						c-0.184,0.081-0.387,0.164-0.501,0.201c-0.476-0.221-1.402-0.374-1.527-0.501c-1.08,0.024-2.539-0.078-3.229,0.152
						c-0.308,0.018-0.349-0.094-0.461-0.141c0.178-0.018,0.388-0.002,0.485-0.036c-0.615,0.036-1.815-0.066-1.972,0.11
						c-0.768-0.123,0.443-0.147-0.619-0.171l0.146-0.049c-2.069-0.401-3.421,0.296-5.712-0.199c0.159,0.031,0.238,0.046,0.269,0.079
						c-2.63-0.239-5.437-0.282-8.008-0.792c-0.731-0.128-0.822-0.019-1.281,0.025l-0.145-0.167l-0.787,0.096
						c-1.104,0.016-1.849-0.561-3.255-0.461l0.167,0.119c-0.494-0.07-1.578-0.101-1.482-0.208c-0.053,0.014-0.175,0.088-0.363,0.016
						l-0.005-0.08l-1.234,0.011c-0.938-0.153,0.186-0.296-1.189-0.451c-0.515-0.022-1.487,0.08-1.302,0.152
						c0.206,0.025,0.521,0.103,0.527,0.183l-0.474-0.007c-0.115,0.222-0.509,0.421,0.624,0.7l0.822-0.059l0.245,0.138l-0.677-0.062
						c0.37,0.145,0.625,0.076,0.906,0.04c0.057,0.066,0.165,0.12,0.321,0.158l0.816-0.141c0.084,0.1-0.376,0.144,0.148,0.247
						c0.382-0.065-0.33-0.239,0.29-0.244c0.372,0.144,0.25,0.218,0.711,0.174c0.056,0.066-0.044,0.094-0.226,0.102
						c0.41-0.03,1.066,0.078,1.288-0.024c0.386,0.17,1.359,0.104,1.296,0.319c0.132-0.04,0.726-0.1,1.096-0.072
						c-0.701,0.194,1.379,0.156,1.173,0.419c0.522-0.185,1.813,0.079,2.709,0.037c-0.051,0.014-0.152,0.042-0.229,0.022
						c0.496,0.07,0.634,0.156,0.95,0.233c0.081-0.188,0.859-0.155,1.286-0.233c0.594,0.25-0.389,0.192-0.213,0.392
						c-0.018-0.162,1.073-0.05,0.876-0.203c0.457,0.164,0.397,0.097,0.625,0.284c0.101-0.236,0.438,0.003,0.835-0.108
						c0.666,0.183,0.156,0.262,0.905,0.227C29.463-34.194,28.795-34.141,28.795-34.141z M46.503-33.686v0.003
						c-0.152,0.001-0.282,0.002-0.366,0.002C46.214-33.682,46.32-33.684,46.503-33.686z M47.99-33.667
						c-0.181-0.004-0.406-0.009-0.645-0.015c-0.051-0.049,0.007-0.098,0.157-0.093C47.42-33.744,47.77-33.711,47.99-33.667z
						 M44.879-34.721c0.235-0.008,0.312,0.024,0.344,0.054c-0.11-0.001-0.24-0.002-0.411-0.004l-0.028,0.016
						C44.807-34.681,44.833-34.704,44.879-34.721z"/>
					<path fill="#999999" d="M44.451-34.558c-0.034,0.002-0.053,0.007-0.097,0.005c0.049,0.014,0.094,0.026,0.139,0.039l0.084-0.04
						C44.535-34.555,44.49-34.557,44.451-34.558z"/>
					<path fill="#999999" d="M179.115-35.81l-0.031-0.003c0.026,0.006,0.05,0.011,0.065,0.02
						C179.129-35.8,179.129-35.804,179.115-35.81z"/>
					<polygon fill="#999999" points="68.521,-33.223 68.519,-33.258 68.389,-33.226 					"/>
					<path fill="#999999" d="M187.299-35.327c0.016,0.012,0.046,0.025,0.107,0.036C187.402-35.3,187.356-35.313,187.299-35.327z"/>
					<path fill="#999999" d="M190.835-35.296l0.5,0.05C191.119-35.274,190.961-35.288,190.835-35.296z"/>
					<path fill="#999999" d="M193.553-35.226c0.035-0.024,0.044-0.043,0.053-0.06l-0.005-0.001L193.553-35.226z"/>
					<path fill="#999999" d="M150.335-35.056c-0.036,0.003-0.072,0.005-0.105,0.008C149.984-35.018,150.151-35.031,150.335-35.056z"
						/>
					<path fill="#999999" d="M163.196-35.389c-0.137,0.025-0.271,0.05-0.414,0.066C163.012-35.312,163.189-35.309,163.196-35.389z"
						/>
					<polygon fill="#999999" points="135.987,-34.725 135.988,-34.728 135.899,-34.727 					"/>
					<path fill="#999999" d="M162.185-35.325c0.229,0.028,0.42,0.022,0.598,0.002C162.595-35.332,162.374-35.347,162.185-35.325z"/>
					<path fill="#999999" d="M205.334-35.162l0.131,0.006c-0.002-0.009,0.006-0.017,0.016-0.023L205.334-35.162z"/>
					<path fill="#999999" d="M205.48-35.179l0.146-0.017C205.56-35.196,205.501-35.194,205.48-35.179z"/>
					<path fill="#999999" d="M205.932-35.231l-0.306,0.035C205.732-35.195,205.863-35.191,205.932-35.231z"/>
					<path fill="#999999" d="M201.736-35.227l-0.042,0.051C201.717-35.187,201.731-35.203,201.736-35.227z"/>
					<path fill="#999999" d="M200.642-35.212c0.261,0.012,0.655,0.109,1.019,0.077l0.034-0.041
						C201.523-35.101,200.89-35.298,200.642-35.212z"/>
					<path fill="#999999" d="M196.078-35.842l0.916,0.041c-0.16-0.054-0.371-0.127,0.046-0.14
						C195.885-36.104,197.278-35.821,196.078-35.842z"/>
					<path fill="#999999" d="M193.237-35.921c0.492-0.025-0.005-0.079,0.021-0.109C192.945-35.981,192.869-35.969,193.237-35.921z"
						/>
					<path fill="#999999" d="M172.705-35.922l0.05-0.128C172.375-36.031,172.75-36,172.705-35.922z"/>
					<polygon fill="#999999" points="168.78,-35.261 169.149,-35.181 169.325,-35.298 					"/>
					<polygon fill="#999999" points="166.461,-36.172 166.627,-36.19 165.994,-36.144 					"/>
					<path fill="#999999" d="M131.968-35.884l0.118,0.155C132.342-35.764,132.392-35.942,131.968-35.884z"/>
					<path fill="#999999" d="M117.087-35.339c-0.165-0.075-0.584-0.113-0.84-0.028C116.582-35.366,116.917-35.315,117.087-35.339z"
						/>
					<polygon fill="#999999" points="72.46,-34.526 72.758,-34.582 72.195,-34.532 					"/>
				</g>
			</g>
		</g>
	</g>
</g>
<g>
	<g>
		<g>
			<g>
				<g>
					<path d="M147.002,8.999c0.077-0.086,0.033-0.281-0.178-0.242l-0.15,0.331L147.002,8.999z"/>
					<path d="M145.578,8.386c-0.249,0.161-0.536,0.442-0.375,0.747c0.247-0.318,0.306-0.186,0.572-0.564
						c0.212-0.038,0.37,0.106,0.334,0.229c0.075-0.085,0.329,0.072,0.443-0.136c-0.275-0.256-0.625-0.267-0.99-0.055
						C145.484,8.533,145.56,8.447,145.578,8.386z"/>
					<path d="M124.873,7.87l0.133,0.039C124.97,7.888,124.924,7.876,124.873,7.87z"/>
					<path d="M112.044,7.688c0.098-0.008,0.139-0.041,0.144-0.071C112.097,7.64,112.022,7.659,112.044,7.688z"/>
					<path d="M109.854,7.323c0.047,0.008,0.086,0.015,0.129,0.022C109.934,7.315,109.884,7.299,109.854,7.323z"/>
					<path d="M124.873,7.87l-0.343-0.104C124.506,7.874,124.706,7.846,124.873,7.87z"/>
					<path d="M142.723,9.185c0.072-0.016,0.131-0.047,0.186-0.087l-0.175,0.035L142.723,9.185z"/>
					<path d="M130.528,7.602h0.104c0.031-0.038,0.06-0.084,0.087-0.135L130.528,7.602z"/>
					<path d="M134.868,7.551c-0.098-0.012-0.132,0.269-0.169,0.392c0.055-0.115,0.128-0.171,0.214-0.192
						C134.914,7.696,134.901,7.633,134.868,7.551z"/>
					<path d="M141.75,8.045l0.123-0.038C141.839,8.017,141.788,8.033,141.75,8.045z"/>
					<path d="M127.421,7.541c-0.007-0.042-0.023-0.079-0.04-0.101C127.382,7.476,127.397,7.509,127.421,7.541z"/>
					<path d="M6.031,9.653c0.004-0.021-0.001-0.033,0-0.05C6.005,9.632,5.998,9.651,6.031,9.653z"/>
					<path d="M1,8.261l0.07-0.015c0.007-0.054,0.015-0.105,0.015-0.157L1,8.261z"/>
					<path d="M105.845,6.964c0.008,0.002,0.01,0.002,0.018,0.005C105.969,6.937,105.909,6.942,105.845,6.964z"/>
					<path d="M69.047,7.171c0.417,0.251-0.679,0.322-0.051,0.602C68.938,7.662,69.566,7.334,69.047,7.171z"/>
					<path d="M142.61,9.147c-0.059,0.003-0.118,0.006-0.178,0.003C142.513,9.159,142.568,9.159,142.61,9.147z"/>
					<path d="M68.996,7.772v0.002l0.064,0.026C69.034,7.789,69.019,7.782,68.996,7.772z"/>
					<path d="M96.609,7.133c0.019,0.049,0.056,0.087,0.094,0.123C96.7,7.227,96.679,7.191,96.609,7.133z"/>
					<path d="M103.49,7.532l-0.17-0.037C103.387,7.521,103.442,7.529,103.49,7.532z"/>
					<path d="M93.037,7.529c-0.093-0.021-0.124-0.061-0.25-0.022c0.012,0.014,0.023,0.024,0.039,0.034
						C92.871,7.503,92.931,7.484,93.037,7.529z"/>
					<path d="M89.318,7.531c0.02,0.021,0.045,0.037,0.068,0.057c0.037-0.005,0.08-0.011,0.118-0.016L89.318,7.531z"/>
					<path d="M17.332,9.518c-0.082-0.079-0.132-0.166-0.172-0.252C17.217,9.465,16.671,9.536,17.332,9.518z"/>
					<path d="M142.721,9.026c-0.022,0.071-0.054,0.106-0.111,0.121l0.124-0.015C142.745,9.091,142.747,9.051,142.721,9.026z"/>
					<path d="M92.886,9.747l-0.591-0.042C92.46,9.732,92.675,9.747,92.886,9.747z"/>
					<path d="M44.008,9.478l-0.136,0.034C43.925,9.518,43.973,9.51,44.008,9.478z"/>
					<path d="M90.542,9.747c-0.105-0.1-0.217-0.157-0.333-0.194c-0.024,0.021-0.053,0.04-0.069,0.072L90.542,9.747z"/>
					<path d="M17.159,9.263l0.001,0.003L17.159,9.263z"/>
					<path d="M13.267,9.93c0.563,0.009,0.265-0.361,0.384-0.573c0.672-0.104,0.311,0.271,0.54,0.461
						c0.419-0.098,0.741-0.437,1.054-0.423c0.023,0.062,0.084,0.083,0.013,0.159c0.443-0.293,1.316-0.014,1.833-0.383
						c0.038,0.032,0.058,0.063,0.067,0.092c-0.084-0.186-0.097-0.373-0.08-0.507c0.252-0.007,0.468-0.233,0.563,0.008
						c-0.155-0.007-0.167,0.09-0.24,0.166l0.265-0.105c0.238,0.348-0.361,0.12-0.361,0.377c0.516-0.112,1.117-0.4,1.512-0.302
						c0.083,0.34-0.924,0.114-0.397,0.416l-0.611-0.13c0.467,0.536-0.371-0.037,0.058,0.536c0.805,0.099,0.9-0.173,1.703-0.074
						c0.181-0.188-0.06-0.279,0.121-0.468c1.141-0.339,0.898,0.854,1.736,0.401c0.217-0.227,0.301-0.656,0.898-0.429l-0.204,0.384
						c0.779,0.038,0.445-0.552,1.261-0.293c-0.145,0.15-0.612,0.127-0.495,0.173c0.529,0.303,0.374-0.218,0.78-0.218l0.084,0.34
						c0.83-0.054,1.743-0.299,2.661-0.361c-0.051,0.102-0.208,0.208,0.007,0.312c1.158-0.17,2.473,0.042,3.59,0.243l0.427-0.293
						c0.099,0.003,0.184,0.132,0.077,0.189c0.436,0.111,0.022-0.187,0.232-0.302c0.248-0.021,0.327,0.169,0.17,0.257
						c0.768-0.249,2.189-0.536,2.999-0.222l-0.158,0.087c0.631,0.119,0.712-0.602,1.296-0.328l-0.112,0.053
						c1.369,0.127,2.88-0.142,3.925,0.301c0.198-0.423,1.354,0.188,1.442-0.4c0.781,0.292,0.558,0.397,1.658,0.594
						c0.294,0.027,0.438-0.368,0.801-0.43l0.009,0.308l0.493-0.323l0.263,0.369l0.341-0.079c-0.136-0.019-0.289-0.139-0.268-0.228
						c0.532-0.14,1.298,0.215,1.311,0.373l1.259-0.261c-0.028,0.124-0.239,0.166-0.406,0.245c0.672-0.314,0.122,0.325,0.738,0.037
						c-0.083-0.07,0.044-0.184,0.059-0.246c0.307,0.187,1.006,0.188,1.523,0.109l-0.1,0.212c0.934,0.055,1.969-0.102,3.018-0.098
						c-0.376-0.099-0.29-0.467,0.018-0.503l0.123,0.326c0.198-0.201-0.321-0.123,0.086-0.369c0.392,0.037,0.263,0.37,0.038,0.477
						l0.476-0.113c0.028,0.097-0.083,0.148-0.113,0.272c0.196-0.202,0.822,0.327,1.104-0.024l0.027,0.097
						c1.048,0.003,1.523-0.109,2.377-0.126c0.017-0.281,0.351-0.219,0.605-0.445c0.627,0.09,1.324,0.311,2.08,0.286
						c0.531-0.14,0.155-0.237,0.394-0.405c0.039,0.257,0.794,0.232,0.402,0.417c0.907-0.042,1.159-0.052,2.306-0.26
						c-0.125-0.104-0.265-0.15-0.192-0.237c0.208-0.042,0.474,0.107,0.444,0.23l-0.055,0.026c1.288-0.385,2.973,0.746,3.998,0.213
						l-0.057,0.026l1.063-0.278c0.489,0.044-0.293,0.192,0.068,0.351c1.147-0.427,1.812,0.062,2.757-0.223
						c0.731,0.756,2.595-0.053,3.583,0.43l-0.057-0.179c0.255-0.174,0.309,0.103,0.497,0.143c-0.027-0.138-0.277-0.159-0.118-0.256
						c2.161-0.215,4.46,0.26,6.676,0.42c0.811,0.048,0.46-0.92,1.481-0.495l-0.29,0.33c1.635-0.396,3.344,0.014,4.945-0.322
						c-0.095,0.076-0.098,0.175-0.254,0.174c0.338,0.24,1.25,0.012,1.256-0.185c0.25,0.022,0.058,0.178,0.211,0.277
						c0.339,0.142,0.852-0.307,1.032-0.068c0.031,0.039-0.096,0.078-0.158,0.097c0.221-0.116,1.03,0.029,0.818-0.247
						c0.601,0.132,1.149-0.123,1.629,0.041c0.312-0.31,1.028,0.148,1.127-0.289c-0.043,0.452,1.054,0.364,1.434,0.152
						c-0.127,0.137,0.33,0.142,0.182,0.331c0.433-0.007,0.831-0.091,0.755-0.323c0.799,0.541,1.605-0.436,2.056,0.258
						c1.288-0.243,2.479-0.407,3.638-0.513c-0.042,0.45-1.281,0.045-1.231,0.518c1.099-0.186,1.733-0.572,2.823-0.464
						c0.282,0.062-0.16,0.196-0.255,0.272c1.098-0.186,2.123,0.041,3.1-0.204c-0.003,0.042-0.108,0.088-0.208,0.122
						c0.193-0.015,0.448,0.066,0.426-0.139l-0.188,0.056c-0.308-0.298,0.764-0.622,0.799-0.779
						c-0.327,0.588,0.965,0.148,0.446,0.891c0.127-0.039,0.286-0.136,0.257-0.272c0.188,0.039,0.248,0.119,0.057,0.275
						c0.689-0.111,0.444-0.329,1.069-0.325c-0.002,0.1-0.128,0.138-0.193,0.255c0.316-0.193,0.634-0.388,1.162-0.304
						c-0.032,0.061,0.03,0.138-0.128,0.137c0.907-0.03,1.546-0.516,2.541-0.329c-0.293,0.432,0.338,0.143,0.391,0.516l0.535-0.111
						l-0.215-0.181c0.469,0.006,0.883-0.266,1.286-0.144l-0.348,0.153l0.878-0.07l-0.497-0.142c0.474-0.192-0.051-0.473,0.573-0.368
						c-0.127,0.038,0.469,0.004,0.713,0.225l-0.001,0.001c0.232-0.119,0.47-0.244,0.817-0.151c0.09,0.119-0.073,0.412-0.014,0.492
						c0.229-0.312,1.098-0.087,1.387-0.419c-0.096,0.078-0.102,0.273-0.069,0.313l0.192-0.253c0.217,0.081,0.249,0.12,0.213,0.276
						c0.653,0.046-0.208-0.474,0.568-0.27c-0.061,0.021-0.032,0.059-0.159,0.097c0.778,0.106,1.504-0.161,2.219-0.036
						c0.211,0.376-0.625,0.092-0.383,0.409c1.031-0.068,2.135-0.45,3.133-0.362l-0.186-0.041c0.138-0.53,0.743,0.262,1.248,0.012
						c-0.124,0.039-0.162,0.295-0.129,0.235c0.684,0.085,1.397-0.13,2.433-0.297l-0.128,0.136c0.403,0.122,1.061,0.07,1.496,0.133
						c0.129-0.137,0.378-0.114,0.227-0.312c1.341,0.776,2.559-0.416,3.749,0.23c-0.142,0.002-0.339,0.119-0.226,0.12l1.014-0.126
						c-0.081-0.231-0.133-0.14-0.346-0.319c0.128-0.138,0.415-0.243,0.666-0.243c-0.456,0.152,0.004,0.371,0.201,0.5
						c-0.033-0.071,0.035-0.149,0.018-0.222c0.529,0.411,0.088-0.465,0.812-0.188l-0.038,0.121c0.271-0.062,0.52-0.223,0.812-0.188
						c0.121,0.268-0.288,0.125-0.307,0.345c0.41-0.016,0.809-0.507,1.18-0.24c-0.174,0.074-0.425,0.076-0.599,0.149
						c0.404,0.314,0.451,0.234,0.751,0.284l-0.03-0.007l0.694,0.142l-0.177-0.085c0.513-0.696,1.045-0.127,1.736-0.584
						c-0.672,0.433-0.111,0.25-0.163,0.553c0.176,0.085,0.445,0.179,0.368,0.264c0.327-0.244,0.545,0.193,1.006-0.164
						c0.021,0.098,0.349,0.009,0.275,0.254c0.425-0.076-0.1-0.17-0.064-0.292c0.654-0.333,1.538,0.404,2.479-0.053
						c0.812-0.188,0.962-0.518,1.715-0.681c0.254,0.155-0.208,0.354-0.208,0.354c0.41,0.144,0.719,0.117,1.105,0.006
						c-0.079,0.085,0.002,0.157,0.12,0.267c0.31-0.025,0.208-0.355,0.616-0.211c-0.07,0.108-0.16,0.282-0.31,0.392
						c0.366-0.09,0.727-0.272,1.105-0.36c0.1,0.17-0.229,0.258-0.362,0.369c0.425-0.076,1.102-0.154,1.233-0.423l-0.273-0.096
						c0.155-0.014,0.08,0.23-0.035,0.279c-0.364,0.211-0.526-0.093-0.546-0.19l0.27-0.062c-0.277-0.572-1.083,0.092-1.625,0.059
						l0.226-0.416l-0.556,0.345c-0.118-0.108-0.199-0.341,0.068-0.402c-0.389-0.206-0.344,0.147-0.678-0.082
						c-0.037-0.035-0.02-0.056,0.014-0.072l-0.38,0.124c0.075-0.087-0.063-0.293,0.17-0.233c-0.682-0.24-1.1,0.312-1.356-0.003
						l0.057-0.025c-0.946,0.141-0.091,0.305-0.801,0.663l-0.478-0.753l-0.093,0.306c-0.098-0.012-0.291-0.034-0.255-0.156
						c-0.363,0.209,0.062,0.133-0.149,0.33c-0.47-0.278-1.296,0.13-1.402-0.356c-0.168,0.232,0.45,0.179-0.052,0.341
						c-0.143-0.523-0.58,0.089-1.009-0.15c0.132-0.271,0.539-0.127,0.109-0.368c-0.259,0.456-0.836-0.101-1.198-0.013
						c-0.017,0.363-0.788,0.151-1.395,0.272c0.038-0.122-1.144-0.199-1.708-0.331l0.017-0.061c-0.109,0.367-0.692,0.298-1.117,0.373
						c0.017-0.22,0.093-0.306,0.323-0.404l-0.399,0.002c-0.094,0.117-0.218,0.18-0.478,0.222l0.101-0.274
						c-0.531,0.015-1.07,0.323-1.753,0.14c-0.038,0.256,0.543,0.713-0.179,0.884c-0.026-0.139-0.053-0.375,0.136-0.432
						c-0.062,0.019-0.221,0.115-0.346,0.056l0.289-0.232c-0.312-0.103-0.163,0.194-0.412,0.173c0.005-0.198-0.184-0.142-0.148-0.298
						c0.063-0.02,0.217,0.081,0.312,0.004c-0.281-0.035-0.62-0.152-0.732-0.302c0.024,0.112,0,0.266-0.206,0.291
						c-0.531,0.015-0.182-0.237-0.492-0.339c-0.128,0.138-0.467-0.005-0.476,0.29c-0.156-0.001-0.185-0.139-0.245-0.219
						c-0.275,0.13-1.284,0.037-0.974,0.352l0.07,0.021c-0.014,0.004-0.028,0.008-0.045,0.013h0.002h-0.002
						c-0.901,0.294-1.872-0.167-2.766-0.041l0.001-0.099c-0.534,0.113-1.188,0.066-1.569,0.279c-0.158,0-0.373-0.181-0.305-0.298
						c-0.408,0.074-0.454,0.185-1.043,0.022c0.411-0.173-0.141-0.153,0.42-0.127c-0.53-0.085-0.65-0.243-1.219,0.027
						c0.194-0.253-0.399-0.319-0.651-0.243l0.371,0.181c-0.283,0.037-0.531,0.015-0.783-0.007l0.136-0.333
						c-1.085-0.404-1.957,0.688-2.782,0.012c-0.287,0.232,0.589,0.163,0.333,0.436c-0.499-0.045-1.019-0.522-1.175-0.523
						c-0.684-0.185-0.638,0.486-1.354,0.36c0.092,0.118,0.178,0.436-0.356,0.547c-0.5-0.044-0.614-0.498-0.299-0.593
						c0.12-0.01,0.178,0.027,0.173,0.067c0.161-0.043,0.373-0.094,0.175-0.223l-0.065,0.119c-0.248-0.121-0.935-0.108-0.773-0.303
						c-0.377,0.112-0.161,0.194,0.118,0.256c-0.641-0.172-1-0.005-1.66-0.121c0.104,0.065,0.201,0.205,0.097,0.204
						c-0.967-0.147-0.425,0.225-1.081,0.277c-0.373-0.182,0.133-0.433-0.526-0.28c-0.403-0.123-0.085-0.315,0.075-0.412
						c-0.601,0.229-1.123-0.15-1.466-0.192l0.316-0.096c-0.189,0.057-0.344,0.056-0.502,0.055l0.181,0.237
						c-0.186-0.041-0.343-0.042-0.34-0.141c-0.191,0.155,0.146,0.395-0.233,0.607c-0.248-0.121-0.754,0.129-0.84-0.186
						c0.779,0.106-0.086-0.316,0.573-0.367c-0.127,0.037-0.282,0.036-0.469-0.006c-0.028-0.035,0.026-0.065,0.077-0.083
						c-0.746-0.282-0.343,0.355-1.115,0.349c0.098-0.178-0.179-0.337-0.305-0.299c0.311,0.004,0.149,0.296-0.137,0.432
						c-0.495-0.138-0.539,0.104-0.798,0.087l0.296,0.065c-0.101,0.177-0.348,0.154-0.694,0.21c-0.029-0.139,0.314-0.096,0.19-0.156
						c-0.383,0.312-0.866-0.323-1.401-0.112c-0.248-0.12-0.024-0.334-0.242-0.415c-0.6,0.229-0.649-0.243-1.279-0.054
						c0.182,0.239,0.213,0.181-0.23,0.413l1.036-0.168l-0.665,0.347c0.312,0.004,0.659-0.149,0.847-0.109
						c-0.317,0.195-0.284,0.136-0.135,0.334c-0.428-0.358-0.848,0.208-1.342-0.033l0.015-0.591c-0.743-0.264-1.32,0.303-2.286,0.154
						l0.311,0.103c-0.13,0.234-0.596,0.033-0.909,0.128c0.029-0.197-0.166-0.27-0.3-0.392c0.017,0.146-0.706-0.014-0.794,0.381
						l-0.431-0.261c-0.779-0.106-0.889,0.562-1.639,0.496c0.226-0.215-0.115-0.354,0.387-0.509c-0.25-0.002-0.475-0.038-0.479,0.099
						c-0.146-0.123-0.693,0.267-0.923,0.079c-0.105,0.087-0.14,0.293-0.421,0.277c-0.03-0.04,0.001-0.098,0.001-0.098
						c-0.001,0.098-0.44,0.133-0.194,0.351c-0.771-0.615-2.153,0.045-2.824-0.483c-0.546,0.065-1.203,0.129-1.699,0.144
						c0.032-0.059,0.001-0.099,0.095-0.078c-0.684-0.184-0.42,0.567-1.198,0.362c-0.397-0.319,0.413-0.173,0.166-0.294
						c-0.108-0.649-0.939,0.089-1.462-0.29l0.127-0.038c-0.4-0.221-0.976,0.246-1.63,0.199c0,0,0.032-0.058,0.004-0.098
						c-0.447,0.331-1.293,0.44-1.922,0.532c0.196-0.254,0.286-0.134,0.167-0.393c-0.282,0.037,0.083,0.415-0.48,0.487
						c-0.183-0.14-0.589-0.261-0.643-0.536l0.531-0.016c-0.271-0.356-0.687,0.013-0.966-0.05l0.036-0.155
						c-0.813,0.051-0.825,0.443-1.699,0.415l0.09,0.118c-0.478,0.389-0.4-0.219-0.877,0.07L77.88,7.574
						c-0.315,0.095-1.104,0.382-1.669,0.456c0.32-0.293,0.981-0.442,1.391-0.616c-0.312-0.003-1.062,0.028-1.225,0.224
						c0.126-0.038,0.285-0.135,0.409-0.074c-0.383,0.311-0.888,0.463-1.511,0.456c0.111-0.766-1.623-0.192-2.074-0.787
						c-1.102,0.283-2.186-0.121-3.469-0.075c0.455,0.596-0.375,0.017-0.296,0.628c-0.299,0.039-0.413,0.029-0.439-0.011
						l-0.906-0.365c-0.215-0.178,0.284-0.135,0.257-0.271c-0.655-0.047-0.275-0.26-0.708-0.422c0.088,0.219-0.228,0.313-0.601,0.229
						l0.525,0.282c-0.915,0.325-0.791-0.513-1.713-0.19l0.292-0.192c-0.473,0.113-1.745-0.004-2.208,0.487
						c-0.084-0.071-0.194-0.238,0.014-0.282c-1.13-0.074-2.517,0.522-3.395,0.22L60.64,7.12c-0.21,0.044-0.367,0.281-0.631,0.131
						c0.014-0.062,0.085-0.149-0.013-0.158c-0.112,0.052-0.561,0.262-0.84,0.175L59.395,7.1c-1.103-0.196-1.692,0.409-2.617,0.512
						c0.002-0.439-0.865-0.583-1.298-0.654l0.015-0.062c-1.284-0.054-2.181,0.365-3.371,0.538c-0.738-0.478-2.5-0.2-3.687-0.468
						c0.181,0.08-0.03,0.343-0.241,0.387c-0.278-0.089-0.77,0.306-0.725-0.099l0.099,0.008c-0.209-0.396-0.782-0.29-1.229-0.301
						l-0.074,0.527c-1.168-0.768-3.062,0.282-3.7-0.405c-0.282,0.132-0.631,0.13-0.911,0.263l0.015-0.283
						c-0.781-0.072-1.171-0.108-2.137-0.041l0.197-0.202c-0.545-0.018-0.688,0.816-1.19,0.833l-0.151-0.423
						c-0.95,0.007-1.912-0.364-2.851,0.02c0.016-0.062,0.043-0.185,0.197-0.201c-0.447-0.012-1.73-0.286-1.568,0.294
						c-0.011-0.378-0.98-0.037-1.494,0.129l0.08-0.278c-0.433,0.356-0.447,0.453-1.052,0.552c-0.144-0.036-0.125-0.223,0.065-0.151
						c-0.478-0.146-0.373,0.264-0.952,0.115l0.216-0.178c-0.491-0.021-0.452,0.074-0.723,0.281c-0.309,0.112-0.932-0.07-1.005-0.322
						c-0.066,0.153-0.335,0.359-0.625,0.286C28.641,7.68,28.747,7.62,28.8,7.592c-0.822-0.189-1.222,0.324-1.788,0.05
						c-0.011-0.092-0.048-0.138-0.095-0.166c0.653,0.007,1.179,0.022,1.129,0.042c0-0.257-0.527-0.302-0.108-0.656
						c-0.423,0.193-1.147,0.614-1.661,0.493c-0.025-0.024-0.049-0.049-0.068-0.089l0.053-0.028
						c-0.119-0.025-0.225-0.002-0.325,0.041c-0.164-0.042-0.268-0.073-0.426-0.077c-0.061-0.212-0.604-0.114-0.868-0.125
						c0.022,0.281-0.322,0.236,0,0.469c-0.042-0.021,0.05-0.034,0.225-0.046c0.04-0.008,0.086-0.013,0.112-0.029l-0.018,0.025
						c0.173-0.005,0.398-0.012,0.654-0.02c-0.208,0.144-0.425,0.264-0.716,0.107c-0.135,0.181-0.283,0.366-0.367,0.453
						c-0.36-0.392-1.053-0.604-1.15-0.846c-0.803,0.158-1.892,0.104-2.396,0.633c-0.229,0.067-0.262-0.151-0.348-0.234
						c0.132-0.054,0.289-0.045,0.36-0.121c-0.457,0.136-1.353,0.053-1.461,0.422c-0.575-0.167,0.323-0.34-0.467-0.279l0.107-0.113
						c-1.555-0.59-2.528,0.941-4.252,0.185c0.119,0.047,0.179,0.068,0.203,0.13c-1.965-0.334-4.051,0.313-5.99-0.216
						C8.587,7.489,8.527,7.725,8.19,7.903L8.071,7.602L7.496,7.95C6.68,8.205,6.083,7.209,5.05,7.691l0.134,0.203
						C4.812,7.856,4.008,8.015,4.07,7.781C4.032,7.818,3.949,7.992,3.804,7.887L3.792,7.729L2.881,7.999
						c-0.707-0.114,0.11-0.627-0.92-0.658C1.578,7.402,0.87,7.801,1.014,7.907C1.168,7.915,1.409,8.006,1.42,8.164L1.07,8.246
						C1.006,8.712,0.737,9.188,1.597,9.514l0.599-0.285L2.39,9.455L1.885,9.469c0.286,0.213,0.467,0.024,0.67-0.104
						c0.048,0.12,0.132,0.204,0.251,0.249l0.588-0.444C3.467,9.351,3.132,9.53,3.527,9.631c0.275-0.207-0.265-0.409,0.192-0.544
						c0.287,0.211,0.203,0.384,0.54,0.203c0.047,0.119-0.024,0.196-0.157,0.249C4.4,9.395,4.894,9.478,5.048,9.23
						C5.348,9.491,6.06,9.162,6.031,9.604c0.094-0.105,0.527-0.347,0.803-0.364C6.331,9.767,7.864,9.27,7.73,9.836
						c0.373-0.475,1.344-0.211,2.003-0.475c-0.037,0.038-0.109,0.114-0.167,0.09c0.371,0.04,0.479,0.183,0.717,0.272
						C10.332,9.332,10.909,9.242,11.221,9c0.455,0.378-0.276,0.461-0.134,0.823c-0.022-0.317,0.791-0.316,0.636-0.581
						c0.348,0.233,0.3,0.113,0.479,0.438c0.061-0.49,0.324-0.083,0.612-0.384c0.503,0.241,0.129,0.459,0.683,0.31
						C13.759,9.757,13.267,9.93,13.267,9.93z M26.416,9.083v0.006c-0.113,0.006-0.21,0.012-0.271,0.016
						C26.201,9.1,26.279,9.094,26.416,9.083z M27.521,9.078c-0.135-0.011-0.302-0.013-0.479-0.011
						c-0.039-0.097,0.003-0.197,0.114-0.191C27.095,8.94,27.355,8.996,27.521,9.078z M25.183,7.131
						c0.175-0.04,0.233,0.015,0.257,0.072c-0.083,0.005-0.179,0.015-0.306,0.034l-0.021,0.034
						C25.131,7.218,25.15,7.168,25.183,7.131z"/>
					<path d="M24.869,7.499c-0.025,0.007-0.039,0.019-0.072,0.021c0.036,0.025,0.07,0.046,0.104,0.063l0.062-0.088
						C24.931,7.496,24.898,7.498,24.869,7.499z"/>
					<path d="M125.029,7.916l-0.023-0.007c0.02,0.011,0.037,0.022,0.049,0.04C125.039,7.936,125.039,7.927,125.029,7.916z"/>
					<polygon points="42.777,9.616 42.776,9.545 42.68,9.607 					"/>
					<path d="M131.115,8.881c0.012,0.024,0.035,0.05,0.08,0.071C131.191,8.934,131.157,8.908,131.115,8.881z"/>
					<path d="M133.744,8.943l0.372,0.101C133.955,8.986,133.837,8.96,133.744,8.943z"/>
					<path d="M135.765,9.083c0.025-0.05,0.033-0.087,0.04-0.121L135.8,8.961L135.765,9.083z"/>
					<path d="M103.629,9.413c-0.027,0.002-0.054,0.006-0.078,0.013C103.368,9.48,103.493,9.459,103.629,9.413z"/>
					<path d="M113.192,8.757c-0.102,0.051-0.202,0.101-0.308,0.133C113.055,8.911,113.188,8.916,113.192,8.757z"/>
					<polygon points="92.95,9.752 92.952,9.747 92.886,9.747 					"/>
					<path d="M112.44,8.885c0.17,0.056,0.312,0.044,0.444,0.005C112.745,8.87,112.581,8.842,112.44,8.885z"/>
					<path d="M144.524,9.211l0.098,0.011c-0.002-0.019,0.004-0.033,0.011-0.045L144.524,9.211z"/>
					<path d="M144.633,9.177l0.108-0.033C144.692,9.144,144.649,9.146,144.633,9.177z"/>
					<path d="M144.969,9.073l-0.228,0.07C144.82,9.145,144.917,9.153,144.969,9.073z"/>
					<path d="M141.849,9.08l-0.031,0.103C141.835,9.161,141.846,9.128,141.849,9.08z"/>
					<path d="M141.036,9.11c0.194,0.022,0.486,0.217,0.757,0.153l0.025-0.081C141.691,9.334,141.22,8.938,141.036,9.11z"/>
					<path d="M137.642,7.85l0.682,0.082c-0.119-0.108-0.276-0.255,0.034-0.281C137.499,7.327,138.535,7.894,137.642,7.85z"/>
					<path d="M135.53,7.692c0.366-0.051-0.004-0.157,0.015-0.219C135.312,7.572,135.256,7.598,135.53,7.692z"/>
					<path d="M120.263,7.691l0.037-0.256C120.017,7.473,120.297,7.535,120.263,7.691z"/>
					<polygon points="117.344,9.014 117.619,9.173 117.75,8.938 					"/>
					<polygon points="115.62,7.191 115.744,7.155 115.273,7.248 					"/>
					<path d="M89.979,7.282l0.085,0.315C90.256,7.541,90.295,7.187,89.979,7.282z"/>
					<path d="M78.911,7.604c-0.121-0.158-0.432-0.259-0.624-0.104C78.536,7.521,78.784,7.644,78.911,7.604z"/>
					<polygon points="45.713,7.09 45.936,6.984 45.517,7.072 					"/>
				</g>
			</g>
		</g>
	</g>
</g>
</svg>
