<?xml version="1.0" encoding="utf-8"?>
<!-- Generator: Adobe Illustrator 16.0.0, SVG Export Plug-In . SVG Version: 6.00 Build 0)  -->
<!DOCTYPE svg PUBLIC "-//W3C//DTD SVG 1.1//EN" "http://www.w3.org/Graphics/SVG/1.1/DTD/svg11.dtd">
<svg version="1.1" id="Layer_1" xmlns="http://www.w3.org/2000/svg" xmlns:xlink="http://www.w3.org/1999/xlink" x="0px" y="0px"
	 width="208.667px" height="16.667px" viewBox="0 0 208.667 16.667" enable-background="new 0 0 208.667 16.667"
	 xml:space="preserve">
<path fill="#FFFFFF" d="M137,209.334c-0.024,0.891-0.144,1.699-0.323,2.455c-1.572-0.642-3.406-0.409-4.879,1.343
	c-2.751,3.271-7.347,3.743-10.583,5.962l-13.842-26.427l-10.861,28h22.947c-0.719,0.87-1.281,1.948-1.613,3.338
	c-0.704,2.946,1.458,6.601,4.821,6.329c12.684-1.024,23.95-6.902,24.333-21C147.175,202.882,137.175,202.898,137,209.334z"/>
<g>
	<g>
		<g>
			<g>
				<g>
					<path fill="#A5DACE" d="M197.226,10.288c0.104-0.258,0.045-0.844-0.24-0.727l-0.202,0.993L197.226,10.288z"/>
					<path fill="#A5DACE" d="M195.31,8.449c-0.335,0.482-0.722,1.327-0.505,2.24c0.332-0.955,0.412-0.557,0.77-1.693
						c0.285-0.114,0.497,0.319,0.449,0.686c0.101-0.255,0.443,0.217,0.597-0.406c-0.371-0.769-0.841-0.8-1.332-0.165
						C195.184,8.891,195.286,8.632,195.31,8.449z"/>
					<path fill="#A5DACE" d="M167.464,6.901l0.179,0.117C167.594,6.954,167.533,6.918,167.464,6.901z"/>
					<path fill="#A5DACE" d="M150.211,6.356c0.131-0.023,0.186-0.123,0.192-0.213C150.282,6.209,150.182,6.269,150.211,6.356z"/>
					<path fill="#A5DACE" d="M147.266,5.261c0.062,0.031,0.116,0.046,0.173,0.067C147.374,5.237,147.306,5.187,147.266,5.261z"/>
					<path fill="#A5DACE" d="M167.464,6.901l-0.461-0.312C166.971,6.913,167.24,6.829,167.464,6.901z"/>
					<path fill="#A5DACE" d="M191.47,10.844c0.097-0.047,0.177-0.141,0.25-0.261c-0.079,0.042-0.156,0.079-0.235,0.105
						C191.48,10.741,191.476,10.787,191.47,10.844z"/>
					<path fill="#A5DACE" d="M175.07,6.095h0.14c0.042-0.114,0.08-0.251,0.117-0.404L175.07,6.095z"/>
					<path fill="#A5DACE" d="M180.907,5.943c-0.132-0.035-0.178,0.807-0.229,1.175c0.074-0.346,0.172-0.513,0.288-0.577
						C180.968,6.379,180.951,6.189,180.907,5.943z"/>
					<path fill="#A5DACE" d="M190.162,7.426l0.164-0.115C190.284,7.346,190.211,7.381,190.162,7.426z"/>
					<path fill="#A5DACE" d="M170.892,5.914c-0.01-0.126-0.031-0.236-0.054-0.302C170.838,5.717,170.86,5.818,170.892,5.914z"/>
					<path fill="#A5DACE" d="M7.304,11.912c0.011-0.06,0.009-0.098,0.016-0.149C7.276,11.844,7.26,11.901,7.304,11.912z"/>
					<path fill="#A5DACE" d="M1.029,7.076l0.099-0.035C1.159,6.883,1.19,6.729,1.21,6.575L1.029,7.076z"/>
					<path fill="#A5DACE" d="M141.875,4.182c0.011,0.009,0.015,0.009,0.024,0.015C142.041,4.101,141.96,4.118,141.875,4.182z"/>
					<path fill="#A5DACE" d="M92.296,5.828c0.582,0.736-0.884,0.994-0.016,1.806C92.192,7.307,93.008,6.296,92.296,5.828z"/>
					<path fill="#A5DACE" d="M191.319,10.733c-0.079,0.01-0.159,0.018-0.239,0.009C191.188,10.769,191.262,10.768,191.319,10.733z"
						/>
					<path fill="#A5DACE" d="M92.281,7.634c0,0.003,0,0.007,0,0.007l0.089,0.076C92.333,7.684,92.312,7.664,92.281,7.634z"/>
					<path fill="#A5DACE" d="M129.411,4.8c0.027,0.147,0.078,0.26,0.132,0.368C129.537,5.08,129.506,4.975,129.411,4.8z"/>
					<path fill="#A5DACE" d="M138.706,5.895l-0.23-0.109C138.567,5.861,138.64,5.886,138.706,5.895z"/>
					<path fill="#A5DACE" d="M124.607,6.044c-0.127-0.063-0.171-0.18-0.34-0.064c0.017,0.042,0.033,0.073,0.054,0.102
						C124.38,5.967,124.461,5.911,124.607,6.044z"/>
					<path fill="#A5DACE" d="M119.597,6.15c0.028,0.063,0.063,0.109,0.096,0.167c0.05-0.016,0.107-0.035,0.158-0.051L119.597,6.15z"
						/>
					<path fill="#A5DACE" d="M22.661,12.78c-0.096-0.242-0.149-0.508-0.188-0.768C22.515,12.615,21.762,12.79,22.661,12.78z"/>
					<path fill="#A5DACE" d="M191.467,10.37c-0.029,0.214-0.072,0.319-0.148,0.363c0.058-0.009,0.112-0.026,0.166-0.044
						C191.5,10.563,191.502,10.444,191.467,10.37z"/>
					<path fill="#A5DACE" d="M124.523,12.698l-0.792-0.117C123.953,12.661,124.241,12.702,124.523,12.698z"/>
					<path fill="#A5DACE" d="M58.755,13.444l-0.182,0.103C58.644,13.565,58.708,13.54,58.755,13.444z"/>
					<path fill="#A5DACE" d="M121.383,12.754c-0.147-0.295-0.301-0.464-0.458-0.572c-0.031,0.067-0.068,0.122-0.088,0.219
						L121.383,12.754z"/>
					<path fill="#A5DACE" d="M22.472,12.004c0.001,0.003,0.001,0.009,0.001,0.009S22.474,12.007,22.472,12.004z"/>
					<path fill="#A5DACE" d="M17.062,13.731c0.763,0.064,0.438-1.064,0.646-1.69c0.932-0.266,0.363,0.835,0.633,1.417
						c0.591-0.263,1.096-1.255,1.517-1.191c0.019,0.185,0.097,0.254-0.015,0.478c0.659-0.848,1.788,0.049,2.555-1.021
						c0.046,0.101,0.066,0.194,0.074,0.28c-0.08-0.56-0.062-1.124-0.015-1.523c0.341-0.003,0.672-0.667,0.758,0.062
						c-0.208-0.031-0.242,0.259-0.353,0.481l0.375-0.296c0.26,1.056-0.508,0.333-0.554,1.103c0.718-0.3,1.577-1.121,2.093-0.799
						c0.056,1.024-1.267,0.278-0.605,1.219l-0.805-0.43c0.539,1.636-0.497-0.139-0.015,1.608c1.076,0.352,1.25-0.455,2.322-0.104
						c0.274-0.552-0.037-0.839,0.237-1.393c1.59-0.937,1.089,2.621,2.292,1.323c0.326-0.663,0.496-1.944,1.273-1.223l-0.325,1.138
						c1.051,0.168,0.671-1.625,1.743-0.792c-0.214,0.44-0.844,0.338-0.689,0.484c0.679,0.944,0.532-0.627,1.081-0.599l0.075,1.025
						c1.13-0.115,2.393-0.75,3.638-0.926c-0.078,0.304-0.3,0.62-0.019,0.934c1.582-0.486,3.34,0.176,4.841,0.801l0.596-0.87
						c0.134,0.011,0.241,0.401,0.092,0.57c0.583,0.343,0.042-0.559,0.332-0.9c0.336-0.057,0.433,0.513,0.215,0.774
						c1.056-0.732,2.984-1.565,4.066-0.605l-0.216,0.258c0.849,0.37,0.982-1.791,1.762-0.957l-0.153,0.154
						c1.846,0.408,3.89-0.368,5.299,0.982c0.269-1.266,1.829,0.548,1.946-1.22c1.055,0.865,0.754,1.185,2.241,1.759
						c0.397,0.078,0.588-1.11,1.076-1.3l0.017,0.924l0.66-0.977l0.361,1.103l0.459-0.242c-0.184-0.054-0.393-0.412-0.366-0.677
						c0.715-0.426,1.755,0.625,1.777,1.1l1.693-0.799c-0.034,0.373-0.317,0.503-0.541,0.743c0.899-0.953,0.175,0.973,0.999,0.1
						c-0.114-0.21,0.054-0.551,0.07-0.739c0.421,0.556,1.365,0.55,2.061,0.308l-0.126,0.639c1.265,0.15,2.656-0.333,4.072-0.335
						c-0.513-0.291-0.414-1.396-0.002-1.507l0.183,0.975c0.258-0.606-0.439-0.365,0.098-1.108c0.529,0.106,0.375,1.106,0.077,1.429
						l0.637-0.346c0.043,0.291-0.105,0.446-0.138,0.819c0.253-0.606,1.129,0.969,1.488-0.099l0.041,0.289
						c1.413-0.026,2.047-0.379,3.196-0.456c0.004-0.844,0.458-0.668,0.786-1.357c0.85,0.249,1.803,0.887,2.82,0.791
						c0.705-0.438,0.192-0.719,0.502-1.229c0.07,0.768,1.086,0.669,0.571,1.236c1.219-0.156,1.558-0.194,3.087-0.856
						c-0.176-0.309-0.367-0.442-0.276-0.705c0.277-0.133,0.646,0.306,0.615,0.676l-0.072,0.081c1.703-1.195,4.064,2.14,5.402,0.505
						l-0.075,0.081l1.407-0.875c0.661,0.112-0.378,0.589,0.123,1.05c1.505-1.328,2.441,0.113,3.688-0.781
						c1.049,2.237,3.484-0.263,4.854,1.144l-0.093-0.532c0.328-0.533,0.424,0.294,0.681,0.408c-0.048-0.414-0.387-0.468-0.182-0.764
						c2.885-0.729,6.022,0.594,9.011,0.996c1.09,0.114,0.537-2.776,1.944-1.538l-0.361,1c2.162-1.244,4.486-0.075,6.609-1.138
						c-0.123,0.232-0.119,0.528-0.328,0.53c0.471,0.709,1.678-0.008,1.672-0.596c0.336,0.057,0.09,0.53,0.303,0.823
						c0.465,0.413,1.121-0.949,1.38-0.239c0.044,0.114-0.123,0.236-0.205,0.294c0.289-0.356,1.384,0.054,1.081-0.77
						c0.815,0.375,1.534-0.409,2.188,0.066c0.399-0.939,1.39,0.41,1.495-0.906c-0.028,1.351,1.433,1.073,1.93,0.431
						c-0.162,0.412,0.45,0.42,0.262,0.99c0.579-0.027,1.106-0.285,0.994-0.981c1.095,1.612,2.131-1.331,2.763,0.744
						c1.714-0.749,3.307-1.26,4.857-1.594c-0.046,1.353-1.715,0.154-1.636,1.573c1.465-0.575,2.308-1.744,3.771-1.436
						c0.38,0.182-0.212,0.591-0.338,0.823c1.469-0.575,2.843,0.091,4.151-0.661c-0.004,0.126-0.145,0.265-0.278,0.37
						c0.258-0.047,0.6,0.192,0.571-0.421l-0.252,0.168c-0.414-0.893,1.027-1.868,1.074-2.338c-0.439,1.763,1.298,0.444,0.6,2.671
						c0.17-0.116,0.384-0.407,0.345-0.817c0.253,0.118,0.333,0.358,0.077,0.826c0.928-0.334,0.598-0.987,1.438-0.975
						c-0.003,0.298-0.173,0.413-0.26,0.764c0.426-0.58,0.854-1.162,1.563-0.91c-0.043,0.181,0.039,0.413-0.172,0.409
						c1.219-0.091,2.078-1.547,3.417-0.986c-0.396,1.294,0.455,0.427,0.525,1.546l0.72-0.334l-0.289-0.542
						c0.631,0.018,1.188-0.797,1.729-0.431l-0.469,0.461l1.182-0.212l-0.669-0.425c0.638-0.577-0.068-1.418,0.771-1.104
						c-0.17,0.114,0.631,0.013,0.959,0.674c0,0-0.002,0-0.002,0.003c0.312-0.357,0.633-0.732,1.099-0.454
						c0.121,0.357-0.098,1.237-0.019,1.477c0.308-0.938,1.477-0.261,1.865-1.257c-0.13,0.234-0.136,0.821-0.094,0.941l0.259-0.76
						c0.292,0.243,0.334,0.36,0.287,0.829c0.878,0.139-0.279-1.421,0.764-0.809c-0.082,0.062-0.043,0.176-0.214,0.29
						c1.047,0.319,2.022-0.482,2.984-0.108c0.284,1.128-0.84,0.276-0.516,1.228c1.388-0.205,2.872-1.351,4.215-1.086l-0.251-0.124
						c0.187-1.591,1,0.786,1.679,0.036c-0.166,0.117-0.218,0.884-0.173,0.705c0.919,0.256,1.879-0.39,3.271-0.891l-0.172,0.408
						c0.541,0.365,1.426,0.21,2.012,0.397c0.173-0.409,0.508-0.343,0.305-0.938c1.804,2.329,3.441-1.248,5.042,0.691
						c-0.191,0.006-0.456,0.357-0.304,0.36l1.363-0.378c-0.107-0.693-0.179-0.419-0.465-0.958c0.173-0.412,0.558-0.729,0.896-0.729
						c-0.613,0.458,0.005,1.113,0.27,1.5c-0.044-0.214,0.047-0.448,0.024-0.664c0.712,1.233,0.119-1.395,1.092-0.563l-0.052,0.363
						c0.364-0.185,0.699-0.667,1.092-0.562c0.163,0.803-0.388,0.375-0.412,1.034c0.551-0.047,1.087-1.52,1.586-0.721
						c-0.233,0.224-0.57,0.229-0.805,0.449c0.543,0.942,0.606,0.702,1.01,0.852l-0.039-0.021l0.933,0.426l-0.237-0.256
						c0.689-2.089,1.404-0.381,2.334-1.751c-0.903,1.297-0.149,0.75-0.219,1.658c0.237,0.254,0.599,0.535,0.495,0.791
						c0.439-0.733,0.733,0.579,1.354-0.493c0.027,0.293,0.47,0.027,0.371,0.762c0.57-0.229-0.136-0.509-0.088-0.876
						c0.881-0.999,2.069,1.213,3.336-0.158c1.092-0.565,1.293-1.552,2.307-2.042c0.342,0.467-0.28,1.064-0.28,1.064
						c0.552,0.431,0.967,0.352,1.486,0.017c-0.105,0.255,0.003,0.472,0.162,0.8c0.417-0.076,0.278-1.065,0.829-0.633
						c-0.095,0.325-0.216,0.847-0.417,1.175c0.492-0.27,0.978-0.816,1.486-1.08c0.135,0.51-0.308,0.773-0.486,1.106
						c0.571-0.229,1.481-0.462,1.658-1.269l-0.367-0.287c0.209-0.04,0.107,0.691-0.046,0.839c-0.49,0.633-0.707-0.279-0.735-0.572
						l0.362-0.188c-0.372-1.717-1.455,0.275-2.185,0.176l0.304-1.248l-0.748,1.034c-0.159-0.325-0.269-1.021,0.092-1.207
						c-0.522-0.618-0.463,0.442-0.912-0.245c-0.05-0.106-0.027-0.167,0.019-0.217l-0.511,0.372c0.1-0.262-0.085-0.88,0.229-0.701
						c-0.917-0.72-1.479,0.938-1.824-0.009l0.077-0.076c-1.273,0.422-0.123,0.915-1.078,1.99l-0.643-2.26l-0.125,0.917
						c-0.132-0.034-0.392-0.103-0.343-0.469c-0.489,0.627,0.083,0.398-0.2,0.99c-0.633-0.835-1.743,0.39-1.886-1.069
						c-0.227,0.697,0.604,0.537-0.07,1.022c-0.192-1.57-0.779,0.268-1.357-0.451c0.178-0.812,0.725-0.381,0.146-1.104
						c-0.348,1.368-1.124-0.301-1.61-0.038c-0.023,1.09-1.06,0.454-1.876,0.817c0.051-0.366-1.538-0.598-2.299-0.993l0.022-0.182
						c-0.146,1.102-0.931,0.894-1.502,1.12c0.022-0.659,0.125-0.918,0.435-1.214l-0.537,0.006c-0.126,0.352-0.294,0.539-0.642,0.665
						l0.135-0.823c-0.715,0.044-1.438,0.97-2.358,0.419c-0.051,0.768,0.731,2.139-0.24,2.651c-0.036-0.415-0.072-1.125,0.183-1.295
						c-0.084,0.056-0.298,0.346-0.466,0.167l0.389-0.697c-0.419-0.308-0.219,0.583-0.554,0.519c0.007-0.594-0.247-0.424-0.199-0.894
						c0.085-0.058,0.292,0.244,0.42,0.012c-0.378-0.105-0.834-0.457-0.984-0.905c0.033,0.337,0,0.797-0.276,0.874
						c-0.715,0.043-0.244-0.713-0.661-1.018c-0.173,0.413-0.629-0.015-0.641,0.871c-0.209-0.004-0.248-0.417-0.329-0.657
						c-0.369,0.391-1.727,0.111-1.311,1.055L167.77,7.1c-0.018,0.018-0.039,0.019-0.061,0.038c0.003,0,0,0,0.003,0h-0.003
						c-1.212,0.882-2.518-0.501-3.72-0.122l0.002-0.297c-0.718,0.34-1.598,0.2-2.11,0.838c-0.212,0-0.501-0.541-0.41-0.894
						c-0.549,0.223-0.61,0.555-1.403,0.067c0.552-0.519-0.189-0.459,0.565-0.38c-0.713-0.256-0.874-0.73-1.64,0.081
						c0.261-0.759-0.536-0.957-0.876-0.729l0.5,0.542c-0.381,0.111-0.715,0.044-1.053-0.021l0.183-0.999
						c-1.458-1.213-2.631,2.066-3.741,0.035c-0.386,0.697,0.792,0.49,0.447,1.307c-0.671-0.135-1.37-1.567-1.58-1.57
						c-0.92-0.553-0.858,1.459-1.82,1.081c0.123,0.354,0.239,1.307-0.479,1.641c-0.672-0.132-0.825-1.493-0.401-1.778
						c0.161-0.029,0.238,0.083,0.231,0.203c0.218-0.129,0.502-0.282,0.236-0.668l-0.087,0.356c-0.334-0.363-1.258-0.325-1.041-0.908
						c-0.507,0.338-0.217,0.583,0.159,0.768c-0.861-0.516-1.346-0.015-2.232-0.362c0.142,0.196,0.271,0.614,0.131,0.611
						c-1.301-0.441-0.572,0.675-1.454,0.832c-0.5-0.544,0.18-1.297-0.707-0.841c-0.542-0.369-0.115-0.946,0.101-1.236
						c-0.809,0.687-1.51-0.451-1.972-0.577l0.426-0.287c-0.255,0.171-0.463,0.167-0.676,0.164l0.243,0.712
						c-0.25-0.123-0.461-0.126-0.457-0.422c-0.257,0.466,0.197,1.184-0.313,1.822c-0.333-0.363-1.015,0.387-1.13-0.557
						c1.048,0.319-0.116-0.949,0.771-1.102c-0.172,0.111-0.38,0.108-0.631-0.018c-0.037-0.105,0.035-0.196,0.104-0.249
						c-1.002-0.846-0.461,1.067-1.5,1.046c0.132-0.533-0.241-1.011-0.41-0.896c0.419,0.012,0.2,0.888-0.185,1.296
						c-0.666-0.416-0.726,0.315-1.074,0.267l0.399,0.192c-0.136,0.533-0.47,0.468-0.935,0.64c-0.04-0.414,0.422-0.291,0.256-0.472
						c-0.515,0.943-1.17-0.955-1.891-0.315c-0.335-0.357-0.035-1.002-0.33-1.242c-0.807,0.699-0.88-0.72-1.729-0.14
						c0.249,0.713,0.291,0.537-0.304,1.241l1.395-0.52l-0.891,1.051c0.421,0.006,0.887-0.459,1.14-0.341
						c-0.424,0.589-0.381,0.41-0.177,1.002c-0.581-1.069-1.139,0.637-1.809-0.079l0.009-1.773c-1.01-0.78-1.775,0.928-3.081,0.498
						l0.422,0.303c-0.168,0.707-0.803,0.109-1.221,0.398c0.032-0.592-0.234-0.805-0.418-1.17c0.027,0.439-0.955-0.03-1.058,1.154
						l-0.592-0.774c-1.057-0.308-1.174,1.701-2.186,1.511c0.293-0.647-0.173-1.062,0.496-1.53c-0.337-0.002-0.643-0.107-0.641,0.303
						c-0.204-0.369-0.922,0.809-1.242,0.25c-0.137,0.262-0.172,0.882-0.552,0.838c-0.043-0.12-0.004-0.293-0.004-0.293
						c0.004,0.293-0.584,0.405-0.241,1.056c-1.075-1.845-2.894,0.203-3.831-1.366c-0.73,0.216-1.61,0.43-2.276,0.489
						c0.038-0.177-0.005-0.294,0.123-0.236c-0.934-0.527-0.526,1.715-1.587,1.126c-0.558-0.944,0.543-0.533,0.201-0.886
						c-0.191-1.945-1.257,0.299-1.989-0.821l0.168-0.119c-0.556-0.648-1.296,0.772-2.179,0.654c0,0,0.038-0.172-0.003-0.293
						c-0.576,1.008-1.706,1.366-2.544,1.665c0.242-0.77,0.373-0.413,0.191-1.185c-0.376,0.121,0.146,1.242-0.605,1.478
						c-0.258-0.411-0.813-0.762-0.909-1.585l0.713-0.064c-0.396-1.061-0.924,0.061-1.306-0.116l0.035-0.468
						c-1.091,0.18-1.072,1.358-2.251,1.303l0.132,0.352c-0.608,1.184-0.558-0.641-1.173,0.245l-0.229-1.177
						c-0.415,0.298-1.451,1.189-2.204,1.435c0.404-0.891,1.28-1.366,1.815-1.904c-0.42,0.004-1.425,0.129-1.627,0.72
						c0.166-0.12,0.371-0.416,0.544-0.239c-0.488,0.947-1.152,1.424-1.99,1.429c0.081-2.299-2.198-0.512-2.858-2.277
						c-1.455,0.894-2.947-0.273-4.668-0.085c0.663,1.768-0.502,0.065-0.343,1.895c-0.398,0.131-0.553,0.104-0.593-0.013
						l-1.249-1.059c-0.304-0.526,0.37-0.416,0.321-0.826C90.47,5.643,90.962,4.99,90.367,4.52c0.138,0.652-0.279,0.949-0.787,0.714
						l0.73,0.824c-1.201,1.014-1.107-1.505-2.318-0.502l0.375-0.588c-0.627,0.362-2.342,0.05-2.924,1.539
						c-0.118-0.209-0.28-0.708-0.005-0.847c-1.521-0.184-3.335,1.65-4.538,0.773l0.104-0.451c-0.279,0.138-0.472,0.854-0.837,0.412
						c0.014-0.185,0.103-0.451-0.029-0.474c-0.146,0.159-0.732,0.805-1.113,0.552l0.308-0.512c-1.493-0.551-2.241,1.285-3.477,1.623
						c-0.026-1.319-1.2-1.721-1.786-1.92l0.017-0.187c-1.726-0.121-2.903,1.168-4.49,1.723c-1.016-1.422-3.361-0.567-4.962-1.354
						c0.246,0.238-0.025,1.028-0.307,1.163c-0.376-0.263-1.021,0.927-0.976-0.285l0.133,0.022c-0.295-1.185-1.057-0.861-1.655-0.887
						l-0.083,1.584c-1.586-2.288-4.099,0.888-4.967-1.167c-0.376,0.399-0.844,0.399-1.217,0.8l0.018-0.85
						c-1.047-0.206-1.569-0.308-2.862-0.093l0.263-0.61c-0.728-0.048-0.921,2.466-1.595,2.502l-0.2-1.271
						c-1.272,0-2.549-1.132-3.813,0.001c0.022-0.186,0.063-0.553,0.269-0.6c-0.598-0.042-2.301-0.893-2.105,0.851
						c-0.001-1.134-1.309-0.131-2.004,0.358l0.12-0.835c-0.595,1.061-0.619,1.352-1.435,1.636c-0.19-0.113-0.156-0.672,0.095-0.455
						c-0.632-0.447-0.513,0.784-1.281,0.327l0.3-0.529c-0.657-0.074-0.61,0.213-0.986,0.831c-0.422,0.329-1.246-0.231-1.326-0.988
						c-0.099,0.46-0.475,1.071-0.857,0.847c-0.046-0.286,0.1-0.461,0.173-0.547c-1.086-0.584-1.664,0.948-2.399,0.116
						c-0.008-0.277-0.053-0.415-0.113-0.501c0.874,0.033,1.576,0.09,1.509,0.149c0.02-0.77-0.681-0.917-0.093-1.972
						c-0.579,0.572-1.583,1.82-2.261,1.448c-0.031-0.075-0.062-0.148-0.083-0.268l0.073-0.085c-0.156-0.079-0.3-0.01-0.438,0.118
						c-0.215-0.133-0.351-0.238-0.56-0.259c-0.061-0.64-0.793-0.384-1.143-0.433c0,0.843-0.455,0.685-0.049,1.404
						c-0.054-0.064,0.07-0.099,0.305-0.122c0.054-0.021,0.116-0.031,0.152-0.079c-0.008,0.022-0.017,0.047-0.026,0.073
						c0.231-0.013,0.533-0.017,0.875-0.012c-0.291,0.415-0.594,0.76-0.966,0.271c-0.199,0.533-0.417,1.079-0.539,1.335
						c-0.441-1.2-1.341-1.883-1.441-2.614c-1.089,0.418-2.531,0.183-3.281,1.731c-0.315,0.186-0.33-0.472-0.431-0.726
						c0.184-0.15,0.392-0.115,0.498-0.338c-0.628,0.375-1.812,0.066-2.016,1.164c-0.743-0.54,0.486-0.996-0.58-0.869l0.161-0.332
						c-1.967-1.871-3.549,2.648-5.713,0.264c0.15,0.147,0.226,0.215,0.246,0.401c-2.558-1.07-5.482,0.5-7.924-1.326
						c-0.702-0.393-0.847,0.303-1.348,0.792l-0.07-0.918L9.807,7.03C8.637,7.68,8.164,4.628,6.636,5.928l0.109,0.625
						c-0.48-0.166-1.607,0.197-1.442-0.49C5.239,6.168,5.065,6.676,4.91,6.341l0.041-0.473L3.64,6.551
						C2.742,6.115,4.018,4.699,2.664,4.469C2.135,4.6,1.038,5.69,1.187,6.025C1.39,6.069,1.674,6.372,1.628,6.844l-0.5,0.197
						c-0.267,1.376-0.824,2.756,0.214,3.842l0.92-0.764l0.176,0.699L1.75,10.789c0.306,0.673,0.625,0.137,0.947-0.218
						c0.02,0.364,0.103,0.625,0.248,0.776l0.959-1.242c0.031,0.551-0.489,1.04,0.011,1.394c0.447-0.579-0.21-1.253,0.454-1.594
						c0.312,0.667,0.139,1.171,0.657,0.679c0.022,0.363-0.101,0.582-0.3,0.72c0.457-0.388,1.096-0.072,1.389-0.789
						c0.316,0.82,1.389-0.063,1.206,1.248c0.163-0.301,0.826-0.96,1.203-0.976c-0.845,1.504,1.383,0.233,1.034,1.904
						c0.646-1.365,1.886-0.444,2.852-1.14c-0.06,0.107-0.179,0.325-0.251,0.245c0.491,0.169,0.6,0.61,0.899,0.912
						c0.168-1.164,0.973-1.353,1.453-2.033c0.521,1.192-0.488,1.339-0.387,2.443c0.049-0.953,1.15-0.839,1.004-1.651
						c0.414,0.747,0.378,0.38,0.544,1.377c0.197-1.458,0.458-0.204,0.918-1.064c0.626,0.785,0.073,1.406,0.855,0.999
						C17.768,13.247,17.062,13.731,17.062,13.731z M35.007,12.078c0,0.009,0,0.015,0,0.018c-0.153,0.018-0.284,0.032-0.368,0.042
						C34.716,12.125,34.822,12.108,35.007,12.078z M36.5,12.087c-0.181-0.036-0.407-0.045-0.646-0.043
						c-0.044-0.291,0.021-0.59,0.17-0.572C35.937,11.664,36.284,11.838,36.5,12.087z M33.539,6.166
						c0.236-0.108,0.309,0.062,0.335,0.236c-0.11,0.009-0.24,0.03-0.411,0.08c-0.009,0.029-0.021,0.07-0.031,0.101
						C33.46,6.423,33.49,6.275,33.539,6.166z"/>
					<path fill="#A5DACE" d="M33.082,7.249c-0.034,0.019-0.054,0.053-0.099,0.057c0.045,0.079,0.088,0.142,0.133,0.197
						c0.031-0.088,0.063-0.178,0.092-0.259C33.166,7.245,33.122,7.247,33.082,7.249z"/>
					<path fill="#A5DACE" d="M167.674,7.039l-0.031-0.021c0.026,0.033,0.051,0.067,0.066,0.12
						C167.688,7.097,167.688,7.071,167.674,7.039z"/>
					<polygon fill="#A5DACE" points="57.097,13.877 57.093,13.663 56.964,13.85 					"/>
					<path fill="#A5DACE" d="M175.859,9.933c0.016,0.073,0.047,0.149,0.107,0.215C175.961,10.092,175.916,10.016,175.859,9.933z"/>
					<path fill="#A5DACE" d="M179.394,10.121l0.5,0.302C179.678,10.25,179.52,10.17,179.394,10.121z"/>
					<path fill="#A5DACE" d="M182.113,10.54c0.034-0.148,0.044-0.26,0.053-0.362l-0.005-0.004L182.113,10.54z"/>
					<path fill="#A5DACE" d="M138.896,11.535c-0.036,0.006-0.072,0.018-0.104,0.039C138.546,11.741,138.713,11.675,138.896,11.535z"
						/>
					<path fill="#A5DACE" d="M151.755,9.561c-0.137,0.152-0.271,0.302-0.413,0.398C151.571,10.024,151.749,10.04,151.755,9.561z"/>
					<path fill="#A5DACE" d="M124.61,12.712c0.001-0.007,0.001-0.007,0.002-0.015l-0.089,0.001L124.61,12.712z"/>
					<path fill="#A5DACE" d="M150.744,9.945c0.229,0.167,0.421,0.132,0.599,0.015C151.155,9.902,150.933,9.816,150.744,9.945z"/>
					<path fill="#A5DACE" d="M193.894,10.923l0.131,0.033c-0.003-0.056,0.005-0.101,0.016-0.136L193.894,10.923z"/>
					<path fill="#A5DACE" d="M194.041,10.821l0.146-0.1C194.119,10.721,194.061,10.728,194.041,10.821z"/>
					<path fill="#A5DACE" d="M194.492,10.51l-0.306,0.211C194.292,10.724,194.422,10.75,194.492,10.51z"/>
					<path fill="#A5DACE" d="M190.295,10.532l-0.041,0.307C190.277,10.775,190.292,10.675,190.295,10.532z"/>
					<path fill="#A5DACE" d="M189.202,10.622c0.261,0.068,0.654,0.651,1.019,0.46l0.034-0.243
						C190.083,11.292,189.45,10.106,189.202,10.622z"/>
					<path fill="#A5DACE" d="M184.638,6.84l0.916,0.245c-0.16-0.325-0.371-0.765,0.046-0.843
						C184.445,5.272,185.838,6.971,184.638,6.84z"/>
					<path fill="#A5DACE" d="M181.796,6.368c0.492-0.151-0.006-0.472,0.021-0.656C181.504,6.007,181.429,6.083,181.796,6.368z"/>
					<path fill="#A5DACE" d="M161.264,6.365l0.05-0.768C160.934,5.708,161.31,5.896,161.264,6.365z"/>
					<polygon fill="#A5DACE" points="157.339,10.332 157.708,10.809 157.884,10.106 					"/>
					<polygon fill="#A5DACE" points="155.021,4.865 155.187,4.756 154.554,5.035 					"/>
					<path fill="#A5DACE" d="M120.471,5.38l0.136,0.943C120.86,6.147,120.891,5.084,120.471,5.38z"/>
					<path fill="#A5DACE" d="M105.593,6.729c-0.177-0.469-0.604-0.76-0.849-0.29C105.082,6.495,105.425,6.853,105.593,6.729z"/>
					<polygon fill="#A5DACE" points="60.99,6.257 61.286,5.938 60.726,6.207 					"/>
				</g>
			</g>
		</g>
	</g>
</g>
</svg>
