<?xml version="1.0" encoding="utf-8"?>
<!-- Generator: Adobe Illustrator 16.0.0, SVG Export Plug-In . SVG Version: 6.00 Build 0)  -->
<!DOCTYPE svg PUBLIC "-//W3C//DTD SVG 1.1//EN" "http://www.w3.org/Graphics/SVG/1.1/DTD/svg11.dtd">
<svg version="1.1" id="Layer_1" xmlns="http://www.w3.org/2000/svg" xmlns:xlink="http://www.w3.org/1999/xlink" x="0px" y="0px"
	 width="450px" height="250px" viewBox="0 0 450 250" enable-background="new 0 0 450 250" xml:space="preserve">
<g>
	<g>
		<g>
			<g>
				<g>
					<path fill="#A5DACE" d="M191.679,196.084c2.498,0.859,0.797-0.334,0.488-1.453L191.679,196.084z"/>
					<path fill="#A5DACE" d="M192.167,194.631c0,0,0.088-0.256,0.175-0.513c0.088-0.291,0.175-0.582,0.175-0.582
						C192.113,193.867,192.067,194.261,192.167,194.631z"/>
					<path fill="#A5DACE" d="M194.195,183.419c0.844,0.937,0.608,2.51,0.466,3.855c-0.096,1.353-0.034,2.485,1.455,3.136
						c0.941-1.541,1.21-3.511,0.973-4.999c-0.132-0.741-0.457-1.334-0.926-1.699C195.71,183.338,195.054,183.222,194.195,183.419z"
						/>
					<path fill="#A5DACE" d="M191.945,187.886l1.65-0.128c0,0-0.617-0.399-1.249-0.733c-0.629-0.341-1.272-0.617-1.272-0.617
						c0,0,0.219,0.36,0.439,0.722C191.729,187.508,191.945,187.886,191.945,187.886z"/>
					<path fill="#A5DACE" d="M190.404,189.703l0.61-0.418c0,0-0.41-0.665-0.82-1.331c-0.404-0.641-0.802-1.223-0.802-1.223
						L190.404,189.703z"/>
					<path fill="#A5DACE" d="M199.348,171.486c0,0,0.002,0.171,0.006,0.427c0,0.129,0.001,0.28,0.002,0.442
						c-0.048,0.191-0.1,0.395-0.151,0.599c-0.227,0.839-0.454,1.678-0.454,1.678c-1.229,1.435-1.982,2.088-2.568,2.433
						c-0.581,0.338-0.987,0.357-1.383,0.365c-0.769-0.013-1.582,0.02-2.888,1.547c-0.246,1.515,1.289,0.881,2.522,0.56
						c0.621-0.163,1.176-0.255,1.371,0.071c0.098,0.164,0.104,0.433-0.007,0.841c-0.179,0.448-0.194,0.869-0.363,1.461
						c0.289-0.171,0.52-0.41,0.711-0.704c0.215-0.309,0.27-0.599,0.596-1.101c0.541-0.938,1.075-2.063,1.644-3.18
						c1.131-2.236,2.685-4.888,5.052-6.052c0.595-0.902,1.009-1.568,1.26-2.025c0.146-0.241,0.179-0.39,0.176-0.492
						c0.005-0.107-0.017-0.175-0.062-0.206c-0.18-0.128-0.733,0.304-1.421,0.884C202.004,170.216,200.129,171.88,199.348,171.486z"
						/>
					<path fill="#A5DACE" d="M153.854,192.574c-0.18-0.042-0.28-0.021-0.417-0.026C153.759,192.715,154.021,192.822,153.854,192.574
						z"/>
					<path fill="#A5DACE" d="M115.813,180.376c0.471-0.544,0.813-1.111,1.086-1.675c-0.374,0.096-0.729,0.252-1.044,0.503
						L115.813,180.376z"/>
					<path fill="#A5DACE" d="M163.757,176.39c0.37,0.186,0.673,0.279,0.938,0.325C164.482,176.292,164.183,176.088,163.757,176.39z"
						/>
					<path fill="#A5DACE" d="M162.672,98.657c-0.049-0.244-0.148-0.541-0.351-0.918c-0.021-0.006-0.059-0.018-0.096-0.029
						l0.136,0.972L162.672,98.657z"/>
					<path fill="#A5DACE" d="M134.855,135.846c0.351-0.491,0.665-0.998,0.828-1.546
						C135.003,135.035,134.804,135.499,134.855,135.846z"/>
					<path fill="#A5DACE" d="M171.268,170.316c-0.108,0.062-0.206,0.142-0.304,0.221c0.068,0.098,0.169,0.169,0.292,0.184
						l0.026-0.416C171.277,170.31,171.277,170.31,171.268,170.316z"/>
					<path fill="#A5DACE" d="M109.468,195.111c0.246-0.641,0.437-1.214,0.436-1.708C109.615,193.979,109.507,194.55,109.468,195.111
						z"/>
					<path fill="#A5DACE" d="M214.276,135.253c0.615-0.662,0.59-0.583,0.362-0.26C213.928,135.847,213.586,136.24,214.276,135.253z"
						/>
					<path fill="#A5DACE" d="M217.125,127.17c0.021,0.002,0.03,0.019,0.04,0.035C217.462,126.718,217.379,126.784,217.125,127.17z"
						/>
					<path fill="#A5DACE" d="M210.662,125.336c0.073-0.055,0.124-0.084,0.184-0.121
						C210.947,124.945,210.936,124.901,210.662,125.336z"/>
					<path fill="#A5DACE" d="M214.638,134.993c0.945-1.137,2.558-3.1,3.352-4.108c0.805-1.018,0.796-0.971-1.311,1.607l-0.729,0.938
						c0.69-0.896,0.661-0.943,0.517-0.827c-0.146,0.119-0.468,0.299-0.378,0.069c-0.358,0.481-0.737,0.99-1.184,1.59
						c-0.124,0.224-0.267,0.481-0.441,0.798c-0.207,0.32-0.482,0.702-0.837,1.211c-0.723,1.005-0.667,0.88-0.294,0.432
						C213.702,136.259,214.341,135.426,214.638,134.993z"/>
					<path fill="#A5DACE" d="M153.349,191.887C154.024,192.417,154.288,191.58,153.349,191.887L153.349,191.887z"/>
					<path fill="#A5DACE" d="M158.392,182.837c-0.212,0.093-0.421,0.193-0.621,0.321
						C158.046,183.145,158.309,183.143,158.392,182.837z"/>
					<path fill="#A5DACE" d="M178.282,168.682c0.029-0.112,0.031-0.155,0.069-0.289
						C177.922,169.342,178.053,169.144,178.282,168.682z"/>
					<path fill="#A5DACE" d="M157.061,183.684c0.116-0.108,0.241-0.205,0.369-0.297c0.133-0.097,0.265-0.184,0.34-0.229
						c-0.114-0.013-0.268,0.021-0.41,0.109C157.227,183.351,157.119,183.478,157.061,183.684z"/>
					<path fill="#A5DACE" d="M173.718,169.422c-0.015-0.039-0.019-0.121-0.041-0.12
						C173.667,169.395,173.685,169.432,173.718,169.422z"/>
					<path fill="#A5DACE" d="M150.148,78.9c-0.327,0.793-1.45,0.157-2.242,0.349c0.753,3.354,2.59-2.09,2.563,1.48
						c0.528-0.471,0.697-1.136,0.818-1.806l-2.623-1.54C148.298,79.153,150.014,77.512,150.148,78.9z"/>
					<path fill="#A5DACE" d="M150.999,98.637l0.44,0.053c-0.845-1.036-0.842-1.499-2.394-1.457c-0.085,2.319,2.968,4.08,2.197,7.006
						c0.245-0.389,0.82-0.583,1.446-0.611C151.086,102.459,150.938,100.425,150.999,98.637z"/>
					<path fill="#A5DACE" d="M152.688,103.629c0.042,0.024,0.076,0.064,0.124,0.104c0.208,0.198,0.409,0.354,0.607,0.483
						c0.271-0.127,0.576-0.175,0.878-0.113C153.854,103.76,153.255,103.603,152.688,103.629z"/>
					<path fill="#A5DACE" d="M138.324,88.286c-0.155,0.031-0.293,0.06-0.42,0.085C138.59,88.417,138.598,88.385,138.324,88.286z"/>
					<path fill="#A5DACE" d="M161.61,160.958c-0.019,0.482-0.01,0.975,0.036,1.398C161.896,161.805,161.813,161.361,161.61,160.958z
						"/>
					<path fill="#A5DACE" d="M169.159,90.902c0.395,0.022,0.753-0.039,1.113-0.151c0.167-0.144,0.287-0.295,0.495-0.452
						L169.159,90.902z"/>
					<path fill="#A5DACE" d="M97.781,169.638c3.776-6.173-0.634,0.638,0.75-2.364l-2.209,3.363
						c-0.053,0.315,0.112,0.201,0.441-0.081c0.154-0.138,0.323-0.308,0.489-0.471C97.446,169.912,97.63,169.749,97.781,169.638z"/>
					<path fill="#A5DACE" d="M151.486,79.042c-0.065-0.079-0.122-0.147-0.18-0.237c-0.009,0.039-0.007,0.072-0.019,0.119
						L151.486,79.042z"/>
					<path fill="#A5DACE" d="M83.183,145.456c0.1-0.415,0.171-0.766,0.24-1.133C83.282,144.634,83.187,145.007,83.183,145.456z"/>
					<path fill="#A5DACE" d="M159.983,101.047l4.365-2.489l-1.677,0.099C162.926,100.404,159.541,99.004,159.983,101.047z"/>
					<path fill="#A5DACE" d="M123.566,159.793c0,0-0.023,0.719-0.047,1.438c-0.011,0.707-0.022,1.414-0.022,1.414
						c3.139-4.17,5.933-6.571,8.486-9.932c2.582-3.036,5.1-5.631,7.611-8.303l0.938-1.001c0.077-0.077,0.16-0.183,0.23-0.236
						l0.204-0.125l0.408-0.251c0.542-0.338,1.081-0.684,1.614-1.042c1.066-0.718,2.111-1.488,3.109-2.345
						c0.998-0.856,1.948-1.798,2.815-2.852c0.434-0.526,0.847-1.08,1.235-1.665c0.387-0.572,0.747-1.126,1.077-1.744
						c2.804,0.427,4.74-0.113,5.937-0.972c1.215-0.869,1.747-2.09,2.189-3.283c0.451-1.184,0.813-2.346,1.765-3.148
						c0.239-0.201,0.515-0.38,0.842-0.533c0.163-0.076,0.34-0.146,0.53-0.209c0.117-0.023,0.245-0.037,0.384-0.042
						c0.558-0.018,1.303,0.121,2.302,0.467l-0.642-0.78c0.985-0.437,2.343-1.12,3.576-1.715c1.175-0.586,2.354-1.174,3.536-1.763
						c2.176-1.096,4.361-2.197,6.551-3.3c4.212-2.11,8.223-4.06,11.965-5.809c3.729-1.747,7.199-3.294,10.022-4.526
						c2.809-1.263,4.958-2.053,5.427-2.854l0.006,1.395c0.012,0.019,0.023,0.056,0.034,0.044c0.026-0.492,0.071-0.986,0.133-1.479
						c-2.653-6.211-5.306-12.422-7.917-18.533c0.043-0.008,0.095-0.014,0.153-0.016l0.094,0l-0.044-0.001
						c-0.03-0.002-0.048-0.005-0.067-0.009c-0.117-0.009-0.227-0.024-0.328-0.046l-0.453-0.099
						c-0.206-0.048-0.329-0.098-0.574-0.173c-0.581-0.165-0.971-0.352-1.773-0.682l-0.514-0.246l-0.25-0.132l-0.333-0.159
						c-0.454-0.22-0.894-0.457-1.317-0.711l-0.322-0.196l-0.425-0.238l-0.833-0.498l-1.758-1.15l-1.049-0.708l-0.969-0.7
						c0.012-0.022-0.041,0.016-0.055,0.022c-0.02,0.008-0.137,0.113-0.223,0.198c-2.001,1.998-3.997,3.99-5.988,5.979l-1.622,1.656
						l-1.7,1.672l-3.386,3.37c-2.348,2.315-4.694,4.628-7.038,6.939l-7.288,7.229c-1.236,1.245-2.46,2.432-3.711,3.717l-3.76,3.843
						c-1.258,1.25-2.517,2.598-3.781,3.942l-3.812,4.001c-2.489,2.749-4.982,5.501-7.481,8.26c-0.697,2.855,2.694,3.569,2.432,6.342
						c-0.73,0.696-2.034,2.544-3.372,1.479c0.504-2.104-1.367-2.214-1.463-3.153c-0.956,1.287-2.519,2.542-3.854,3.864
						c-1.345,1.382-2.483,2.888-2.582,4.771c0,0,0.835-0.21,1.666-0.372c0.829-0.169,1.657-0.338,1.657-0.338
						c0.007,0.754-0.395,1.391-0.892,1.957c-0.497,0.582-1.089,1.077-1.458,1.487c-0.635-1.053-3.546-1.169-3.408-2.265
						c0.111,2.152-0.122,3.437-0.584,4.242c-0.462,0.794-1.152,1.093-1.914,1.314c-1.515,0.44-3.336,0.666-4.034,3.827
						c1.708,1.781,2.394,4.734,2.916,7.996c0.277,1.652,0.438,3.299,0.697,4.965c0.259,1.664,0.491,3.229,0.83,4.641l-2.018,1.931
						c0.599-1.577-0.204-1.874-0.951-2.257c-0.373-0.192-0.731-0.406-0.886-0.824c-0.161-0.422-0.109-1.045,0.387-2.005
						c-0.688,0.683-1.137,1.475-1.453,2.312c-0.325,0.831-0.535,1.693-0.721,2.552c-0.34,1.736-0.492,3.485-1.355,5.056
						c1.343-0.347,2.724,0.23,2.953,1.664c-1.059,1.844-3.483,1.523-4.144,3.9c0,0-0.285-0.663-0.515-1.332
						c-0.228-0.675-0.456-1.351-0.456-1.351c-2.131,1.284-0.025,3.169,0.019,4.688c-1.002,0.099-1.762,1.069-2.468,1.917
						c-0.69,0.843-1.393,1.57-2.451,1.125c1.19,1.861,1.356,3.021,1.483,4.204c0.142,1.172,0.163,2.386,0.989,4.169
						c2.129-3.654,2.571,0.947,4.214,0.489l-0.704-3.991c-1.413,5.624-0.348-1.816-3.635-1.635c0.887-1.356,2.185-0.282,3.25,0.469
						c0.525,0.381,1.033,0.685,1.353,0.626c0.317-0.06,0.491-0.483,0.458-1.594c0.318,1.485,0.572,2.596,0.681,3.581
						c0.097,0.979,0.182,1.823,0.27,2.712l1.469,14.771l11.791-4.297c1.054-0.385,2.138-0.861,3.292-1.551
						c0.615-0.408,1.275-0.927,1.926-1.506c0.325-0.295,0.659-0.597,0.976-0.945c0.307-0.37,0.612-0.765,0.912-1.183
						c-0.481,0.457-0.863,0.755-1.151,0.931c-0.301,0.153-0.508,0.19-0.641,0.155c-0.267-0.073-0.249-0.451-0.214-0.898
						c0.042-0.438,0.071-0.991-0.071-1.378c-0.147-0.399-0.434-0.592-1.073-0.528c2.247-1.592,2.619-1.694,2.918-1.152
						c0.314,0.504,0.331,1.621,1.769,1.794c0.564-0.58,1.111-0.993,1.632-1.357c0.233-0.16,0.453-0.312,0.666-0.459
						c0.193-0.135,0.377-0.27,0.545-0.416c0.327-0.281,0.635-0.653,0.749-1.082c0.081-0.394,0.041-0.919-0.18-1.658
						c0.171-0.124,0.329-0.228,0.473-0.309c0.127-0.056,0.243-0.095,0.35-0.119c0.214-0.049,0.392-0.039,0.544,0.012
						c0.305,0.102,0.511,0.369,0.705,0.67c0.385,0.606,0.73,1.336,1.644,1.266c0.155,0.274,0.208,0.486,0.103,0.783
						c-0.125,0.328-0.36,0.671-0.652,1.026c-0.163,0.196-0.269,0.318-0.512,0.584c-0.24,0.254-0.487,0.517-0.738,0.782
						c-0.252,0.263-0.507,0.528-0.762,0.794c-0.33,0.325-0.66,0.65-0.984,0.97c-0.332,0.333-0.658,0.661-0.974,0.979
						c-0.162,0.163-0.293,0.317-0.468,0.484c-0.181,0.173-0.358,0.341-0.531,0.505c-0.686,0.668-1.277,1.316-1.694,1.963
						c-0.836,1.244-1.088,2.501,0.295,3.874c-0.565,0.316-1.129,0.686-1.711,1.09c-0.556,0.393-1.131,0.799-1.725,1.219
						c-1.096,0.759-2.311,1.607-3.695,2.367l-10.663,5.849l-12.214-23.918c-0.516-1.011-0.918-2.144-0.833-3.342
						c-0.386,0.976-0.98,2.125-1.475,3.373l-8.814,22.249l34.502-1.959c1.037-0.059,2.112-0.174,3.191-0.363
						c1.106-0.216,2.076-0.374,3.352-0.936c1.204-0.499,2.373-1.109,3.445-1.817c1.065-0.717,2.008-1.635,2.831-2.582
						c0,0-0.565-0.876-1.131-1.752c-0.576-0.868-1.153-1.736-1.153-1.736c1.081-0.855,1.505-1.594,1.852-2.317
						c0.335-0.722,0.5-1.404,0.63-2.037c0.083-1.129,0.011-2.021,0.847-2.772c0.058,0.411,0.265,0.688,0.57,0.832
						c0.152,0.072,0.328,0.111,0.521,0.117c0.2,0,0.407-0.024,0.574-0.023c0.36-0.026,0.729-0.147,1.056-0.36
						c0.164-0.106,0.316-0.236,0.451-0.389c0.067-0.076,0.132-0.16,0.188-0.245c0.035-0.054,0.064-0.114,0.087-0.179
						c-0.169-0.02-0.282-0.043-0.424,0.012c-0.137,0.06-0.27,0.117-0.38,0.165c-0.229,0.09-0.42,0.101-0.654-0.191
						c0.102-0.17,0.189-0.337,0.265-0.501c0.078-0.169,0.077-0.242,0.105-0.369c0.038-0.229,0.04-0.462,0.019-0.7
						c-0.021-0.238-0.066-0.482-0.123-0.731c-0.071-0.22-0.165-0.422-0.251-0.647c-0.176-0.442-0.35-0.918-0.436-1.418
						c0.055-0.608,0.225-1.254,0.602-1.933c-0.627,0.267-1.18,0.44-1.702,0.558c-0.281,0.073-0.485,0.083-0.683,0.079
						c-0.215-0.003-0.421-0.006-0.626-0.009c-0.432,0-0.87-0.064-1.403-0.006c-0.535,0.066-1.129,0.161-1.826,0.331
						c-0.99-1.104-0.826-1.494-0.362-1.753c0.475-0.297,1.198-0.274,1.433-0.848c0.187,0.395,0.104,0.621,0.748,0.747
						c0,0-0.019-0.114-0.047-0.285c-0.019-0.177-0.085-0.39-0.067-0.654c0.003-0.51,0.007-1.02,0.007-1.02
						c3.139-1.47,2.832,3.138,5.641,2.231c2.967,0.423,0.687-2.706,2.61-2.724c-0.25-0.124-0.513-0.258-0.705-0.334
						c0.24-0.19,0.442-0.288,0.618-0.327c-0.055-0.042-0.103-0.073-0.16-0.131c0.891-1.396,2.314-2.4,1.195-4.328
						c0.788,0.612,0.86-1.192,0.819-2.074c0.047-0.649,0.129-1.787,0.593-2.58c0.22-0.381,0.603-0.719,1.019-0.752
						c0.393-0.014,0.926,0.19,1.619,0.754c-0.003,0.038-0.037,0.03-0.042,0.062c1.34-0.583,2.652-0.166,2.977,1.068
						c0,0,0.465-0.067,0.93-0.136c0.438-0.048,0.875-0.096,0.875-0.096s0.208,0.73,0.417,1.461c0.218,0.724,0.437,1.447,0.437,1.447
						c0.336-0.728,0.399-1.529,0.396-2.618c0.006-1.096-0.091-2.458,0.18-4.491c0.7,0.529,1.371,0.129,2.049-0.703
						c0.668-0.825,1.366-2.101,1.816-3.097c0.117,0.047,0.31-0.072,0.652-0.527c0,0-0.124-0.249-0.267-0.493
						c-0.14-0.243-0.295-0.477-0.295-0.477c1.34-0.853,1.425-2.842,2.407-3.639c-0.141-0.208-0.125-0.425,0.304-0.221
						c0.148-0.057,0.311-0.125,0.489-0.134c-0.136,0.484-0.328,0.581-0.5,0.538l-0.087,1.247c0.11,1.779,0.558,0.885,1.224-0.491
						c0.643-1.355,1.498-3.189,1.871-2.838c-0.164,0.265-0.438,0.729-0.546,0.783c0.174,0.332,0.012,1.945-0.087,3.01
						c-0.089,1.059-0.089,1.535,0.696-0.628c-0.044,0.424,0.416-0.567,0.975-1.786c0,0.001,0.172,0.375,0.173,0.375
						c-0.093-0.082-0.138-0.228-0.161-0.397c0.738-1.615,1.656-3.626,1.315-2.598c0,0,0.323-0.117,0.645-0.233
						c0.31-0.106,0.619-0.212,0.619-0.212c0,0.499,0.65-0.481,1.308-1.521l-0.685,2.019c0.697-0.806,0.104,0.549-0.233,1.232
						c-0.426,1.608-0.439,2.087-0.153,1.909c0.282-0.175,0.858-1,1.489-1.893c0.627-0.889,1.31-1.845,1.711-2.203
						c0.396-0.354,0.519-0.114-0.108,1.498c1.344-2.334,2.119-3.861,2.658-5.051c0.545-1.194,0.868-2.062,1.441-3.19
						c2.072-3.607,5.216-7.864,7.421-11.091c-1.146,2.591-1.788,4.541-3.064,7.32c-1.247,2.755-3.17,6.381-6.352,11.483
						c0.414-0.117,1.285-1.591,2.338-3.511c1.067-1.92,2.251-4.212,3.735-6.265l-0.036,0.237c0.101-0.718,1.652-3.664,3.455-7.035
						c1.464-2.529,2.883-4.625,3.987-5.967c1.087-1.351,1.841-1.889,1.703-1.328l-5.212,8.043c1.8-2.034,4.58-5.855,7.718-10.34
						c1.567-2.249,3.243-4.613,4.971-6.981c0.107-0.146,0.215-0.294,0.325-0.443c0.105-0.142,0.239-0.328,0.267-0.35
						c0.102-0.115,0.207-0.233,0.314-0.355c0.202-0.22,0.417-0.453,0.648-0.705c0.446-0.454,0.917-0.886,1.415-1.307
						c0.453,0.148,0.614,0.564,0.54,0.975c-0.035,0.212-0.123,0.456-0.249,0.718c-0.037,0.071-0.07,0.137-0.102,0.197l-0.069,0.119
						c-0.062,0.095-0.121,0.187-0.179,0.276c-0.273,0.41-0.513,0.77-0.759,1.139c-2.115,3.098-4.776,6.687-6.998,10.272
						c0,0,0.226-0.119,0.564-0.297c0.155-0.072,0.402-0.229,0.55-0.267c0.1,0.016,0.208,0.032,0.314,0.05
						c0.429,0.069,0.861,0.164,0.861,0.164l-4.227,5.808c0.585-0.121,2.112-1.618,2.92-2.251c0.354-0.279,0.61-0.404,0.666-0.219
						c0.06,0.186-0.172,0.662-0.668,1.595c-1.778,1.83-2.914,3.843-4.292,5.834c-1.387,2.026-2.846,4.046-5.145,6.648
						c-0.845,1.257,0.669-0.583,1.656-1.78c1-1.203,1.495-1.771-1.294,1.781c3.93-4.82,2.593-3.397,4.155-5.584
						c1.613-2.084,2.555-3.244,3.066-3.796c0.495-0.562,0.539-0.536,0.415-0.276c-0.264,0.52-1.283,1.86-0.945,1.419
						c-1.131,1.412,1.581-1.973-6.008,7.496c2.126-2.675,3.178-4.055-0.053-0.115c1.816-2.282,1.703-2.189,1.044-1.438
						c-0.734,0.854-1.616,1.881-2.203,2.563c1.059-1.271,2.351-2.823,3.222-3.87c1.383-1.688,2.971-3.653,4.254-5.321
						c0.835-1.167,0.919-1.439-0.938,0.687l2.556-3.072c1.436-1.958,0.217-0.509-1.528,1.657c-0.833,1.044-1.709,2.142-2.68,3.357
						c-0.759,0.987-1.283,1.681-1.297,1.723c-1.225,1.522-0.864,1.024-2.659,3.387c0.845-1.19,1.82-2.386,2.292-2.369l-5.042,6.946
						c0.976-1.159,0.706-0.609,0.543-0.205c-0.174,0.4-0.184,0.694,1.149-0.912c-1.355,2.249-1.951,2.669-2.507,2.955
						c-0.56,0.261-0.977,0.428-1.974,1.604c-1.444,2.253-0.464,1.308,0.167,0.836c0.318-0.246,0.557-0.392,0.407-0.029
						c-0.136,0.361-0.652,1.247-1.832,2.943c0,0-0.54,0.49-1.079,0.98c-0.547,0.514-1.094,1.028-1.094,1.028
						c-0.195,0.44-0.074,0.609-0.038,0.881c0.042,0.271-0.024,0.618-0.621,1.282c0.839-0.893,0.603-0.897,0.726-1.343
						c2.495-2.581,3.076-2.558,3.744-2.527c0.335,0.014,0.674,0.022,1.248-0.289c0.287-0.156,0.631-0.392,1.064-0.751
						c0.216-0.18,0.455-0.39,0.719-0.637c0.335-0.329,0.651-0.639,1.099-1.078l0.859-2.028c0.271,0.182,0.803,0.085,1.415-0.067
						c0.625-0.142,1.319-0.337,1.881-0.396c0.557-0.049,1.001-0.009,1.066,0.422c0.069,0.419-0.208,1.144-1.026,2.292
						c-1.475,1.935-2.859,2.745-4.143,3.34c-1.522,0.788-1.861,0.427-2.485,0.658c-0.169,0.579,0.081,0.679,0.512,0.574
						c0.108-0.026,0.229-0.065,0.359-0.114c0.144-0.061,0.215-0.062,0.521-0.259c0.552-0.337,1.079-0.658,1.618-0.986
						c1.096-0.655,2.2-1.281,2.91-1.445c0.706-0.161,1.025,0.132,0.655,1.144c1.665-2.759,4.645-4.892,6.391-5.033
						c0.299-0.744,0.679-1.69,1.074-2.675c0.267-0.88,0.508-1.776,0.609-2.471c0.101-0.695,0.062-1.185-0.233-1.245
						c-0.317-0.025-0.877,0.366-1.776,1.326l-0.905,1.459c-2.147,1.662-2.875,1.422-3.905,1.95c0.276-2.357,3.888-4.675,5.546-6.703
						c0.805-2.724-1.226-0.731-3.382,1.417c-2.147,2.158-4.484,4.445-4.001,2.727l1.632-2.059c-0.872,0.31-1.229-0.028-1.887,0.205
						c-0.336,0.112-0.76,0.358-1.378,0.891c-0.178,0.162-0.346,0.313-0.501,0.455c-0.124,0.106-0.261,0.227-0.404,0.369
						c-0.289,0.282-0.628,0.638-1.028,1.081c2.003-2.667,1.974-3.147,1.772-3.29c-0.165-0.153-0.597-0.001,0.869-2.046
						c0.982-1.237,1.992-2.481,2.581-3.175c0.611-0.729,0.955-1.076,1.109-1.146c0.303-0.146-0.186,0.795-0.864,1.977
						c-0.641,1.209-1.461,2.661-1.804,3.484c-0.315,0.84-0.124,1.064,1.256-0.181c2.652-4.156,4.961-5.013,7.513-6.911
						c0,0-0.26-0.035-0.65-0.089c-0.373-0.024-0.845-0.023-1.306-0.023c-0.472-0.015-0.884,0.043-1.182,0.09
						c-0.297,0.043-0.496,0.071-0.496,0.071c0.775-1.046,2.541-3.523,3.688-5.194c1.142-1.688,1.618-2.641-0.081-0.788l-0.344,0.644
						c-0.298-0.219-1.415,1.16-2.275,2.084c-0.848,0.949-1.389,1.509-0.365-0.058c0.99-1.317,2.279-2.842,2.905-3.557
						c0.733-1.196,0.346-0.709-0.294,0.032c-0.443,0.53-0.786,0.939-1.646,1.97c0.835-1.105,1.653-2.145,2.507-3.226
						c0.85-1.076,1.739-2.198,2.541-3.26c-1.374,1.664-0.726,0.983,0.197-0.18c0.962-1.131,2.245-2.685,2.542-2.916
						c-2.553,3.188-3.29,4.397-3.926,5.402c-0.328,0.521-0.666,1.005-1.295,1.819c-0.502,0.627-0.454,0.566-1.25,1.561
						c-0.42,0.509-1.187,1.439-2.422,2.938c0,0-0.367,0.585-0.824,1.255c-0.247,0.34-0.493,0.68-0.678,0.935
						c-0.191,0.27-0.342,0.442-0.342,0.442c4.709-5.929,6.07-7.641,10.478-13.188c0,0-0.115,0.127-0.288,0.317
						c-0.178,0.183-0.417,0.426-0.654,0.67c-0.482,0.483-0.965,0.968-0.965,0.968c2.938-3.679,2.835-3.195,3.033-3.313
						c0.165-0.077,0.648-0.793,3.454-4.736c0.402-0.703,0.349-0.865,0.631-1.442c0.274-0.577,0.854-1.631,2-4.479
						c0,0-0.92,1.329-1.839,2.658c-0.931,1.326-1.862,2.652-1.862,2.652c0.354-0.914,0.79-1.89,1.259-2.764
						c0.833-1.673,1.607-3.124,2.031-3.718c-0.299-0.169-0.471-0.436-0.657-0.751c-0.213-0.314-0.381-0.681-0.546-1.063
						c0.549-0.452,1.134-0.809,1.632-0.687c0.51-1.565,0.486-2.117,0.246-2.203c-0.19-0.131-0.858,0.435-1.512,1.01
						c-1.506,0.959-2.524,0.877-3.549,0.986c0,0,0.487-0.416,0.982-0.822c0.495-0.405,0.991-0.809,0.991-0.809
						c-0.441,0.204-0.947,0.428-1.39,0.716c-0.435,0.295-0.833,0.633-1.109,1.016c-0.437,0.083-0.844,0.294-1.366,0.653
						c-0.218,0.691-1.213,2.894-0.411,3.69c-1.426-0.502-2.75,0.027-3.708,0.308c-0.957,0.278-1.573,0.381-1.384-1.033
						c0.946-1.566,2.839-3.872,2.691-3.898c-0.282-0.086-1.056,0.648-1.94,1.743c-0.887,1.087-1.872,2.535-2.488,3.682
						c-0.339,0.316-0.566,0.5-0.746,0.627c0.547-1.244,1.132-2.603,0.679-2.58c0.144-0.452,0.163-0.804-0.168-0.807
						c-1.455,2.409-2.478,3.368-3.345,4.02c-0.867,0.653-1.578,0.979-2.406,2.27c0.316,0.205,1.038-0.239,1.834-0.799
						c-2.675,3.742-5.488,8.308-4.94,6.099c1.738-2.245,1.88-3.208,2.031-4.105c0.151-0.88,0.31-1.657,2.08-3.08
						c0.574-2.716-0.252-1.497-1.348,0.376c-1.095,1.846-2.459,4.311-2.96,3.709c0,0-0.032-0.494-0.064-0.988
						c0-0.537-0.163-0.923-0.149-0.938c0.506-1.041,1.003-1.805,1.429-2.336c0.393-0.498,0.732-0.784,1.019-0.985
						c0.573-0.401,0.94-0.464,1.119-1.123l-1.178,0.901c1.154-1.696,2.406-2.396,3.9-3.315c1.494-0.91,3.229-2.053,5.349-4.31
						c0,0-0.857-0.116-1.714-0.292c-0.857-0.17-1.714-0.399-1.714-0.399c-1.985,1.554-3.452,2.292-5.829,3.84
						c-2.15,1.313-4.22,2.391-6.301,3.582c-1.039,0.596-2.079,1.221-3.122,1.924c-0.232,0.117-0.593,0.501-0.91,0.802
						c-0.325,0.321-0.648,0.642-0.97,0.959c-0.645,0.647-1.287,1.312-1.923,1.997c-2.543,2.737-5.004,5.804-7.187,9.33
						c0.106-0.101,0.216-0.229,0.327-0.355c-0.193,0.463-0.381,1.202-0.735,2.688l-0.15-0.66c0,0-0.46,0.972-0.921,1.944
						c-0.441,0.954-0.881,1.909-0.881,1.909c-0.997-2.075-4.006-0.271-6.738-0.378c1.706,0.546,1.653,0.594,1.723,2.865
						c-0.468,3.489-0.671,4.965-2.826,5.509c-0.104-2.102,1.368-3.223-0.409-3.554c0.929,0.339,0.152,2.502-0.781,3.516
						c-1.328-0.368-3.557,1.104-3.911-0.788c0.558-1.036,1.176-0.786,1.631-0.826c0.285-0.52-0.403-0.46-0.986-0.632
						c-0.575-0.18-1.061-0.574-0.158-2.195l-2.561,2.689c-0.937-0.171-0.833-0.964-0.556-1.799c0.272-0.852,0.709-1.76,0.278-1.99
						c-2.266,2.509-3.641,5.043-4.772,7.491c-1.137,2.438-2.041,4.667-3.537,6.53c-0.299-0.918-2.173-4.285-1.66-3.286
						c-1.796,0.69-3.006,2.957-3.696,5.067c-0.361,1.903-0.656,3.845-1.63,5.014c-0.428-1.154,0.707-1.576,1.069-2.549
						c-1.024,0.567-1.954,1.237-2.875,1.887c-0.918,0.658-1.819,1.304-2.708,1.94c-1.826,1.263-3.392,2.604-5.058,3.866
						c-0.83,0.633-1.671,1.254-2.534,1.861l-0.652,0.453l-0.33,0.225c-0.116,0.084-0.257,0.209-0.385,0.312l-1.595,1.301
						c-0.485,0.39-0.973,0.78-1.462,1.173l-0.731,0.566l-0.589,0.362c-0.375,0.206-0.874,0.576-1.091,0.499l-0.41,0.017
						l-0.202,0.002c-0.042,0.015-0.04-0.045-0.059-0.066c0.006-0.012-0.111-0.138,0.145,0.08c0,0.001,1.447,1.174,2.685,2.624
						c0.153,0.182,0.307,0.364,0.458,0.543l0.056,0.068l0.014,0.013l0.024,0.022l0.048,0.044c0.062,0.062,0.12,0.12,0.17,0.17
						c0.096,0.111,0.16,0.186,0.16,0.186s0.062,0.082,0.154,0.205c0.062,0.076,0.311,0.497,0.08,0.138
						c-0.247-0.385-0.375-0.762-0.375-0.762l-0.074-0.229c-0.023-0.059,0.007-0.028-0.058-0.159l-0.147-0.324
						c-0.189-0.432-0.353-0.863-0.492-1.289c-0.139-0.427-0.253-0.848-0.344-1.261c-0.041-0.206-0.081-0.41-0.12-0.611l-0.025-0.15
						c-0.002-0.026,0.004-0.015,0.006-0.024l0.019-0.024c6.237,4.927,12.008,9.484,17.779,14.042c0.741-2.816,0.62-5.247,0.56-7.721
						c-0.164-2.489-0.297-5.044,0.078-7.865c0.447-1.908,2.969-0.134,4.29-0.523c0.98-1.734,0.572-3.28,0.171-4.985
						c-0.471-1.698-0.923-3.537-0.164-5.689c0.336,0.579,1.111,1.522,1.941,2.123c0.834,0.601,1.662,0.878,2.236,0.148
						c-0.783-0.883-2.16-2.028-0.932-2.665l0.689,1.16c2.024,0.06,1.25-1.731,3.168-3.198c2.304-3.368,2.729-8.353,1.77-14.039
						c2.896-2.899,2.998,3.006,4.149,2.94c-2.92,1.293-0.688,1.959-0.023,3.281c0.029-1.83,0.703-3.691,3.342-2.498
						c1.191-1.715,1.937-2.395,1.829-5.22c0.047,1.423-1.7,1.154-2.033-0.422c0.946-0.4,1.877-1.477,2.901-2.204
						c1.024-0.725,2.124-1.058,3.359,0.188c5.657-7.48,14.073-14.518,21.982-22.178c0.103-2.583-1.501,0.453-1.636-1.168
						c0.343-3.558,2.374-0.559,2.682-3.436l0.655,2.013c2.574-2.07,2.649-6.956,3.705-10.496c1.134,1.932,3.149-0.558,2.14,2.239
						c0.859-1.348,9.082,4.224,8.571,1.929l-7.663-5.182c-0.562-0.693,1.393-1.843,0.811-2.115c2.239,0.312,4.936,0.516,5.616-0.18
						c1.976,1.252-0.097,2.683-1.073,3.614c2.56,2.854,4.943-1.575,6.065,2.305c1.606-2.56-1.695-1.071-1.486-3.318l2.369-1.267
						l-2.299,0.527c0.327-1.163,0.087-2.374,0.203-3.361c0.058-0.494,0.204-0.931,0.556-1.281c0.317-0.321,0.8-0.515,1.694-0.687
						c0,0-0.057-0.278-0.101-0.748c-0.049-0.463-0.116-1.081-0.182-1.698c-0.108-1.288-0.217-2.575-0.217-2.575
						c0.634,0.421,1.088,0.527,1.447,0.421c0.368-0.124,0.637-0.458,0.879-0.876c0.248-0.431,0.485-0.996,0.763-1.507
						c0.295-0.564,0.636-1.087,1.131-1.527c0,0,0.181,0.596,0.361,1.192c0.167,0.604,0.334,1.208,0.334,1.208
						c0.473-0.714,0.891-1.297,1.311-1.89c0.207-0.284,0.407-0.544,0.605-0.787c0.203-0.265,0.405-0.522,0.607-0.762
						c0.804-0.936,1.661-1.805,2.727-3c0.737,1.76,0.097,2.743-0.434,3.383c-0.538,0.638-1.012,1.11-0.184,2.175
						c0,0,0.193-0.208,0.493-0.586c0.298-0.367,0.691-0.865,1.077-1.374c0.395-0.562,0.78-1.147,1.063-1.588
						c0.141-0.223,0.258-0.408,0.34-0.538c0.082-0.144,0.128-0.226,0.128-0.226c-0.794-0.309-1.184-1.441-1.703-2.021
						c-0.521-0.601-1.105-0.612-2.258,0.913c-0.219-1.044-0.493-2.021-0.767-2.919c-0.276-0.907-0.551-1.811-0.849-2.791
						c-0.578-1.902-1.035-3.958-1.676-6.648l-2.878-12.08l-8.038,1.524c-1.246,0.236-2.704,0.343-4.527,0.323
						c-1.617-1.278-0.948-2.057,0.207-2.761c1.167-0.675,2.727-1.309,1.949-2.752c-1.082-0.14-2.152-0.153-2.955,0.057
						c-0.804,0.21-1.512,0.539-2.133,0.945c-1.244,0.815-2.163,1.917-2.766,3.111c-1.271,2.373-2.039,4.639-3.694,5.018
						c-1.147,0.046-1.954,0.246-2.566,0.535c-0.596,0.301-0.976,0.711-1.354,1.147c-0.729,0.896-1.465,1.873-3.278,2.822
						c0.199-1.183-0.67-1.378-1.802-1.441c-0.564-0.032-1.192-0.032-1.776-0.109c-0.567-0.068-1.089-0.214-1.47-0.556
						c0,0,0.147-0.649,0.295-1.299c0.147-0.652,0.336-1.294,0.336-1.294c-0.95,1.107-2.359,0.976-2.672-0.502
						c0.706,1.159-0.271,2.335-1.617,3.536c-1.292,1.221-3.044,2.448-3.898,3.702l1.546,1.761c-0.734,0.865-1.566,1.971-2.466,2.943
						c-0.888,0.979-1.869,1.815-2.971,2.131c-2.378,2.339-0.698,3.68-1.464,7.113c-2.254-1.041-3.429-3.193-4.375-5.569
						c1.35,0.541,2.226-0.816,3.83-0.965c1.216-1.926,1.952-4.34,2.896-6.444c1-2.087,2.171-3.886,4.425-4.448
						c-0.471-2.91-1.06-2.408-1.893-1.261c-0.831,1.147-1.773,2.938-3.194,2.616c-0.114-0.321-0.034-0.489,0.08-0.617
						c-0.17,0.085-0.329,0.146-0.544,0.127c1.021-1.374,2.801-3.426,1.866-6.131c-2.147,1.836,1.034,5.803-3.029,5.365
						c-1.234,2.551-5.182-0.206-6.577,0.211c-0.233,2.59,2.04,6.43-1.537,7.655l-0.281-3.509c-3.591,2.174,0.769,4.914-2.525,6.812
						c1.322-0.394,0.535,3.283,2.722,2.009c-0.172,2.075-2.33,3.801-4.471,4.026c-0.191,0.672,0.453,0.964,0.917,1.921
						c1.498,0.375,1.983-0.541,2.481-1.333c0.5-0.792,1.002-1.437,2.626-0.618l-0.441-3.693c2.438-0.093,4.078,2.077,3.668,3.897
						c0.435-0.434,0.638-1.113,1.323-0.849c2.993,4.099-3.13-0.166-1.473,3.863l1.083-1.103c2.298,2.435-1.444,4.317-3.223,5.138
						c-2.682-0.165-4.676,0.363-5.993-1.625l1.933-2.349c-1.129-0.433-1.757,0.271-2.303,1.188
						c-0.535,0.888-0.997,1.989-1.735,2.353c-0.248-0.235-0.508-0.373-0.768-0.428c0.178,0.145,0.325,0.31,0.437,0.514
						c-0.375,0.071-0.798-0.031-1.314-0.401c-0.345,0.151-0.682,0.409-1.017,0.712c-0.165,0.157-0.333,0.318-0.504,0.48l-0.39,0.436
						c-0.524,0.572-1.118,1.09-1.747,1.001l0.89,1.935l-0.292-1.203c0.521-0.236,1.26-0.239,1.895,0.026
						c0.628,0.27,1.161,0.805,1.08,1.75c-1.01,1.386-2.129,1.249-2.99,0.498c-0.877-0.743-1.568-2.06-2.081-2.833
						c-0.215-1.74,0.221-1.968,0.868-2.006c0.635-0.031,1.518,0.113,1.777-0.661c-1.041-1.268-1.496-1.117-2.1-0.73
						c-0.583,0.376-1.38,1.023-2.508,0.422c-0.038-1.994,0.364-2.197,0.801-2.381c0.422-0.175,0.862-0.321,0.386-1.919
						c-0.654,0.013-0.821,0.646-1.08,1.288c-0.245,0.635-0.591,1.279-1.3,1.158c-0.073-1.831,0.927-2.547,0.278-4.59
						c-0.019,0.01-0.767-0.73-0.748-0.741c0.586-0.436,0.198-1.477-0.165-2.625c-0.376-1.141-0.676-2.417-0.676-2.907
						c-0.264-0.681-0.08,0.04-0.014,0.712c0.088,0.66,0.029,1.286-0.243,0.161c0.124,0.81,0.375,1.908,0.62,2.989
						c0.236,1.087,0.439,2.164,0.194,3.088c-0.027,0.015-0.843-0.713-0.815-0.728c-0.171-0.879-0.027-2.032-0.003-3.082
						c0.041-1.059-0.029-2.017-0.158-2.77c0.033-0.019-0.189,1.482-0.222,1.5c-0.026,1.211,0.23,1.676,0.086,3.41
						c-0.171-0.549-0.304,0.681-0.595,2.398c-0.28,1.709-0.72,3.896-1.229,5.085c-0.602,0.263-1.057,0.283-0.925-1.197
						c-1.079,2.435-2.283,4.059-3.567,5.704c-1.285,1.683-2.626,3.431-4.526,6.39c1.323-2.094,1.816-3.429,2.134-4.569
						c0.309-1.13,0.419-2.065,0.743-3.13c1.329-1.473,3.292-6.445,4.583-9.689c-0.25,0.374-1,1.931-1.804,3.633
						c-0.795,1.702-1.62,3.524-1.864,4.289c0.037-0.727-0.503,0.296-1.008,1.179c-0.486,0.867-0.941,1.598-0.435,0.044
						c0.22-0.767,0.988-2.224,1.754-3.69c0.773-1.472,1.538-2.95,1.991-3.953c-0.413,0.184-3.583,6.974-3.741,6.4
						c0.46-0.832,0.652-1.132,1.162-2.17c0.125-0.436-0.266,0.124-0.955,1.229c-0.683,1.1-1.666,2.745-2.583,4.346
						c1.993-3.812,1.645-3.328,1.268-2.776c-0.366,0.54-0.695,1.057,1.798-3.265c-0.99,1.604-1.691,2.825-2.317,3.938
						c-0.636,1.13-1.174,2.154-2.13,3.781c-1.307,2.191-1.753,2.864-1.75,2.783c-0.003-0.074,0.45-0.919,0.771-1.508
						c0.382-0.566,2.034-3.354,1.424-2.249l3.489-6.042c0.458-0.838,0.171-0.38-0.553,0.818c-1.303,2.166-2.17,3.609-3.023,5.028
						c-1.158,1.926-2.338,3.86-3.124,5.105c-0.79,1.232-1.201,1.797-0.776,0.804c0.021-0.047,0.049-0.106,0.078-0.167
						c0.146-0.22,0.27-0.409,0.283-0.428c1.394-2.041,2.172-3.351,3.053-4.802c0.488-0.805,0.377-0.622,3.348-5.52
						c-0.497,0.798-0.706,1.051-1.011,1.438c-0.397,0.518-1.03,1.354-2.585,4.197c-0.128-0.17,0.3-1.277,0.823-2.469
						c-0.561,0.727-1.153,1.505-1.672,2.12c-0.514,0.568-1.019,1.127-1.499,1.659c-1.062,1.177-2.298,2.576-3.995,4.669
						c0.098-0.936,0.952-2.806,2.138-4.803c1.178-2.002,2.601-4.119,3.693-5.694c-2.07,1.459-1.485-0.341-0.915-1.809
						c0.271-0.753,0.622-1.464,0.589-1.857c-0.021-0.398-0.394-0.48-1.355-0.104l-0.329,0.41c0.551-1.147-1.216,0.417-3.086,2.132
						c-1.87,1.712-3.846,3.598-3.649,2.352c3.219-2.421,4.335-3.597,5.073-4.492c0.734-0.9,1.164-1.588,2.881-3.015
						c0.902-1.02,1.058-1.462,0.944-1.706c-0.116-0.239-0.558-0.288-0.955-0.402c-0.412-0.114-0.729-0.279-0.67-0.652
						c0.059-0.368,0.49-0.95,1.615-1.751c1.205-0.478,2.613-0.976,2.679-0.8c1.084-0.883,1.423-1.278,1.554-1.654
						c0.123-0.368,0.136-0.667,0.461-1.079l0.624-0.104c2.373-0.981,2.299-1.112,1.785-1.578c-0.514-0.399-1.443-1.113-1.377-1.897
						c0.403,0.231,1.866,0.601,2.352,0.77c0.62-0.124,1.121-0.239,1.14-0.522c0.025-0.297-0.454-0.812-1.61-1.96
						c1.844,0.611,1.657,0.419,1.592,0.081c-0.042-0.159-0.074-0.333,0.114-0.379c0.099-0.027,0.23-0.001,0.472,0.049
						c0.386-0.077,0.877-0.124,1.503-0.126c0.587,0.312,0.148,0.667,0.069,0.927c1.054-0.18,1.734-0.541,2.352-0.975
						c0.638-0.444,1.104-0.907,2.061-1.449c0.928-2.315,0.879-4.593,1.172-6.481c0.147-0.946,0.392-1.826,0.901-2.611
						c0.518-0.809,1.268-1.436,2.422-1.905c1.592,1.834,1.214,2.519,0.729,3.125c-0.478,0.592-1.135,1.245,0.066,2.747
						c0.217-1.326,0.235-2.594,1.941-2.472c0.584,1.958,0.608,1.041,1.308,2.745c0.754,0.223,0.73-1.392,0.528-2.952
						c-0.239-1.508-0.559-3.095-0.433-2.902c-0.505-0.795-1.044-1.026-1.639-0.428c-0.246-0.741-0.158-1.283,0.122-1.713
						c0.14-0.215,0.328-0.402,0.546-0.571c0.207-0.15,0.421-0.244,0.658-0.352c0.998-0.481,1.923-0.547,2.222-1.369
						c-0.188,0.006-0.727,0.061-1.311-0.24c-0.581-0.292-1.246-0.859-1.548-1.994c0.629-0.037,0.982-0.377,1.194-0.842
						c0.205-0.439,0.282-1.079,0.338-1.814c0.173-1.425,0.19-3.235,1.003-4.479c1.708,0.614,1.441,1.766,1.062,3.109
						c-0.173,0.673-0.458,1.393-0.447,2.135c-0.01,0.742,0.127,1.496,0.502,2.262c0.7,1.045,2.281,3.397,1.994,4.891
						c0.377,0.055,0.851-0.123,1.16-0.42c0.419-0.317,0.942-0.791,1.356-1.29c0.197-0.246,0.459-0.521,0.739-0.802l0.813-0.824
						c0.274-0.268,0.554-0.525,0.845-0.763c0.313-0.25,0.641-0.481,0.984-0.682l0.193,0.941c2.021-0.801,3.85-2.632,5.557-4.151
						c1.7-1.547,3.364-2.771,5.314-2.56l-2.113-0.313c0.411-0.791,2.443-1.333,2.721-3.569c0.128,0.38,0.413,0.684,0.763,0.95
						c0.335,0.271,0.815,0.476,1.033,0.77c0.542,0.549,0.966,1.112,0.971,1.832c-0.304-1.346-0.182-2.339,0.178-3.175
						c0.276-1.046,0.919-1.835,1.59-2.693c0.678-0.854,1.403-1.762,1.885-3.589c0.61,1.39,0.004,3.491-0.111,4.715
						c-1.064-0.507-1.721-1.347-1.907,0.896c0.406-0.176,0.816,0.054,1.081,0.518c0.267,0.447,0.388,1.107,0.363,1.715
						c0.247-1.694,0.998-2.823,1.895-3.755c0.887-0.941,1.923-1.72,2.669-3.138c0.453,1.939,0.739,3.038-0.464,5.4
						c0.351-0.065,0.781-0.171,1.103-0.397c0.483-0.149,0.831-0.419,1.059-0.779c0.463-0.717,0.503-1.765,0.573-2.741
						c0.173-0.93,0.3-1.826,0.708-2.333c0.372-0.534,1.169-0.576,2.924,0.18c0.558,0.932,0.631,1.52,0.374,1.919
						c-0.248,0.399-0.792,0.602-1.25,0.764c-0.466,0.164-0.881,0.29-0.893,0.555c0.014,0.264,0.323,0.67,1.605,1.381l-1.132,0.011
						c0.151,0.979,0.392,1.671,0.641,2.123c0.281,0.452,0.59,0.666,0.903,0.7c0.629,0.07,1.347-0.585,2.039-1.448
						c0.715-0.867,1.477-1.952,2.296-2.758c0.85-0.82,1.729-1.356,2.97-1.248c0.298,1.875-0.694,2.516-1.362,2.967
						c-0.329,0.234-0.569,0.442-0.482,0.787c0.099,0.336,0.479,0.847,1.589,1.566c2.218-0.24,3.966-1.428,5.169-2.746
						c1.247-1.307,1.993-2.773,2.879-3.852l16.159-19.653l-18.754,9.665c-0.26,0.134-0.522,0.25-0.911,0.38
						c-0.252,0.08-0.508,0.161-0.768,0.244c-0.142,0.044-0.481,0.158-0.706,0.255c-0.172,0.069-0.471,0.208-0.689,0.336
						l-0.174,0.103l-0.246,0.162c-0.246,0.173-0.483,0.372-0.7,0.59c-0.108,0.109-0.211,0.222-0.308,0.338l-0.154,0.194
						c-0.083,0.112-0.163,0.23-0.239,0.353c-0.305,0.492-0.534,1.072-0.645,1.637c-0.112,0.555-0.117,1.087-0.037,1.66
						c0.062,0.526,0.321,1.206,0.401,1.344c0.12,0.255,0.264,0.505,0.426,0.74c0.081,0.117,0.167,0.23,0.255,0.339l0.144,0.164
						c0.174,0.191,0.386,0.392,0.566,0.542c0.497,0.397,0.827,0.575,1.037,0.703c0.454,0.266,0.738,0.437,1.007,0.639
						c0,0-0.306,0.303-0.67,0.574c-0.343,0.283-0.794,0.503-0.794,0.503c0.564,0.231,0.962,0.362,1.363,0.507
						c0.354,0.129,0.734,0.269,1.132,0.414c0.733,0.276,1.46,0.57,2.162,0.857c1.405,0.571,2.692,1.119,3.518,1.271
						c-0.185,0.716-0.367,0.534-0.745,0.612c0.635,0.601,0.947,0.796,1.158,0.808c0.239,0.026,0.441-0.1,0.602-0.203
						c0.164-0.101,0.304-0.176,0.441-0.007c0.067,0.086,0.136,0.229,0.182,0.483c0.018,0.128,0.041,0.283,0.007,0.486
						c-0.032,0.206-0.168,0.435-0.348,0.638c0.033,0.024,0.276-1.269,0.252-1.278c0.204-0.174,0.434-0.356,0.669-0.575
						c0.221-0.212,0.52-0.474,0.566-0.832c0.012-0.672-0.343-1.119-0.676-1.498c-0.655-0.705-1.765-1.009-2.977-0.3
						c1.202-0.71,0.938-2.052,0.504-3.573c-0.427-1.518-0.969-3.201-0.015-4.561l-0.763,1.094c-0.555-1.18-1.224-2.238-1.805-3.184
						c-0.144-0.235-0.272-0.463-0.361-0.672c-0.045-0.104-0.071-0.202-0.069-0.285l0.016-0.056l-0.37,0.735
						c-0.139,0.278-0.287,0.552-0.443,0.823c-0.172,0.287-0.249,0.465-0.396,0.694c-0.511,0.866-1.04,1.415-1.156,1.349
						c0.11-0.048,0.459,0.65,0.647,1.627c0.061,0.256,0.109,0.514,0.145,0.773l0.159,0.949c0.047,0.324,0.085,0.649,0.115,0.975
						l0.073,0.579c0.011,0.081,0.007,0.036,0.012,0.061c0.001,0.063,0.083,0.124,0.134,0.183c-0.87-3.349-1.74-6.698-2.677-10.303
						c-0.699-0.198-1.25-0.429-1.671-0.699c-0.426-0.291-0.743-0.59-1.096-0.917c-0.675-0.637-1.643-1.484-2.974-2.806
						c-4.983,1.927-8.048-5.71-14.302-3.507c-0.5,2.168-0.726,2.353-1.479,2.16c-0.727-0.18-2.084-0.815-4.348,0.278
						c1.176-0.602,1.172-1.447,0.6-2.155c-0.286-0.354-0.717-0.673-1.201-0.912c-0.475-0.215-0.999-0.339-1.46-0.346
						c-0.75,1.488-1.773,2.368-2.788,3.212c-0.059-0.042-0.128-0.083-0.253-0.105c-0.413-0.245-1.115-0.464-1.974-0.589
						c-0.429-0.062-0.897-0.102-1.385-0.111c-0.244-0.004-0.493-0.001-0.743,0.011c-0.187-0.014-0.377-0.027-0.568-0.041
						c-1.476-0.06-2.781,0.41-2.974,2.023c-2.458-0.546-0.054-1.464,0.027-2.499c-1.61-1.731-0.929,2.267-2.113,1.105
						c0,0-0.138-0.452-0.017-0.731c-1.425,0.636-2.672,0.848-3.939,0.907c-1.273,0.097-2.56,0.036-4.228,0.245
						c0.443,2.091-0.23,2.699-1.247,3.049c-0.544,0.185-1.155,0.3-1.709,0.491c-0.552,0.189-1.192,0.524-1.538,1.03
						c0.099-0.75-0.613-0.955-1.607-0.969c-1.058,0.043-2.363,0.237-3.23,0.178c0,0-0.368,1.031-0.676,2.045
						c-0.312,1.017-0.566,2.014-0.566,2.015c-0.518,1.816-1.481,1.806-2.667,1.761c-1.093-0.045-2.423-0.133-3.318,1.335l1.055,0.22
						c-0.325,0.576-0.854,1.075-1.605,1.497c-0.731,0.421-1.716,0.77-2.665,1.033c-1.884,0.521-4.154,0.732-5.603,0.472
						c-1.083,2.276-2.283,4.19-3.454,5.839c-1.203,1.657-2.479,2.988-3.932,4.379c-0.715,0.667-1.451,1.291-2.206,1.88l-0.57,0.437
						c-0.197,0.152-0.364,0.253-0.617,0.489c-0.479,0.408-0.955,0.814-1.429,1.219c-0.965,0.804-1.958,1.593-2.978,2.384
						c-1.018,0.794-2.092,1.555-3.083,2.468c-2.013,1.769-4.222,3.582-6.352,5.594c-1.987,2.054-4.043,4.26-6.08,6.656
						c-1.77,2.416-3.568,5.022-5.167,7.79c-0.666,1.375-1.3,2.789-1.892,4.235c-0.296,0.723-0.582,1.454-0.855,2.191
						c-0.13,0.368-0.286,0.742-0.386,1.108c-0.088,0.363-0.177,0.729-0.266,1.098c0.985,1.233,2.931-1.577,4.755-0.822
						c-0.246,2.117-0.644,2.655-1.321,4.662c2.008-2.135,0.227-1.407,1.543-1.543l-0.266-2.755c0.426-0.221,0.448,0.087,1.278-0.345
						c-0.032-0.466-0.216-0.958-0.232-1.52c0.005-0.562,0.122-1.19,0.567-1.885c0.205,0.895,1.147,1.314,1.771,1.826
						c0.653,0.519,0.935,1.116-0.257,2.495c-0.437-0.076-0.472-0.36-0.534-0.955c-1.098,2.15,0.638,1.806-0.948,3.589
						c-0.794,1.057-0.831,1.396-0.885,1.549c-0.064,0.156-0.164,0.135-1.004,0.502c0,0-0.932,1.663-1.864,3.326
						c-0.462,0.853-0.925,1.705-1.271,2.345c-0.172,0.324-0.316,0.594-0.417,0.783c-0.104,0.19-0.151,0.297-0.151,0.297
						c1.881,0.605,1.566,2.152,0.753,3.813c-0.407,0.826-0.946,1.673-1.408,2.391c-0.426,0.713-0.791,1.297-0.914,1.591
						c-1.522,0.525-1.692-0.359-1.696-1.388c-0.039-1.025-0.051-2.156-1.507-2.233c0,0-0.677,0.854-1.354,1.708
						c-0.669,0.873-1.339,1.746-1.339,1.746l2.523-1.104c0,0-0.304,0.913-0.608,1.825c-0.166,0.462-0.268,0.909-0.357,1.248
						c-0.087,0.339-0.145,0.565-0.145,0.565l-0.466,0.077c0.95-0.138,1.875-0.285,0.962,1.013c-0.355,0.333-1.046,1.034-1.168,0.755
						l1.196,1.514c-2.435,0.179-0.88,2.477-3.712,3.953c-0.292,2.124-0.146,3.642,0.131,4.843c0.14,0.602,0.317,1.124,0.502,1.607
						c0.203,0.478,0.464,0.899,0.675,1.336c0.436,0.869,0.784,1.754,0.854,3.006c0.043,0.624-0.016,1.352-0.102,2.198
						c-0.064,0.839-0.213,1.815-0.458,2.98c0.464-1.035,1.542-1.414,2.458-1.271c0.92,0.146,1.673,0.809,1.627,1.956
						c-0.326,1.644-0.75,2.464-1.811,2.653l1.794,1.276c-0.68,1.706-0.979,3.044-1.058,4.172c-0.085,1.116,0.074,2.062,0.326,2.994
						c0.507,1.872,1.279,3.501,1.472,6.718l-0.967,0.914c1.63,0.547,3.043,1.368,3.563,4.662l-1.865,2.042
						c-0.028,1.421,0.207,1.665,0.617,1.617c0.414-0.054,0.984-0.573,1.571-1.141c0.587-0.563,1.205-1.136,1.671-1.395
						c0.446-0.306,0.797-0.17,0.728,0.589c1.061-1.74,1.698-3.162,2.216-4.565c0.265-0.693,0.513-1.361,0.8-2.04
						c0.282-0.693,0.598-1.41,1.026-2.167c-0.397,0.843-0.61,1.573-0.718,2.118c-0.104,0.555-0.068,0.999,0.019,1.162
						c0.095,0.182,0.289,0.188,0.531-0.057c0.238-0.25,0.542-0.712,0.859-1.358c0.082-0.059,0.159-0.113,0.216-0.163
						c0.639-0.591,0.999-0.922,1.166-1.068c0.181-0.146,0.207-0.11,0.149,0.026c-0.115,0.272-0.56,0.938-0.748,1.319
						c0,0,0.145-0.188,0.362-0.472c0.21-0.285,0.49-0.666,0.77-1.047c0.568-0.767,1.12-1.553,1.12-1.553
						c0.827-0.745-2.763,4.921-4.343,7.315c1.619-2.383,2.207-3.095,2.37-3.13c0.177-0.047-0.07,0.593,0.087,0.625l-1.412,2.202
						l0.51,0.015c1.412-2.038,2.454-3.398,3.464-4.171c0.429-0.367,1.026-0.632,1.45-0.712c0.44-0.084,0.797-0.006,1.072,0.228
						c0,0-1.225,1.78-2.45,3.56c-1.238,1.76-2.477,3.52-2.477,3.52c-0.208,2.653,1.989-2.554,2.974-3.827
						c2.042-2.128,2.601-2.188,2.605-1.288c0.167,0.847-0.232,2.633-0.25,4.146c2.158-2.242,3.525-2.965,4.589-2.944
						c0.133,0.003,0.26,0.017,0.384,0.041c0.113,0.028,0.247,0.056,0.416,0.074c0.311,0.05,0.609,0.132,0.901,0.234
						c0.585,0.205,1.147,0.49,1.728,0.754c1.158,0.527,2.404,0.967,3.939,0.509c0.104-0.049,0.173-0.017,0.31-0.142l0.383-0.317
						c0.257-0.219,0.519-0.453,0.785-0.703c0.532-0.5,1.081-1.064,1.645-1.7C121.131,163.261,122.325,161.699,123.566,159.793z
						 M179.129,166.01l0.208-0.795C180.271,163.722,180.991,162.444,179.129,166.01z M167.247,174.48
						c1.674-2.9,1.064-0.454,1.08,0.698c-0.679-0.065-1.276,0.431-1.822,0.859c-0.556,0.437-1.063,0.807-1.81,0.677
						c0.311,0.605,0.457,1.626,0.587,2.23c-0.479,0.153-1.071-0.328-1.614-2.062c-0.001-2.112,1.336-2.433,2.283-2.238
						C166.918,174.824,167.549,175.479,167.247,174.48z M215.676,124.01c-0.283,0.241-0.585,0.487-0.885,0.714c0,0,0,0-0.018,0
						L215.676,124.01z M202.371,131.99c0.407-0.85,0.455-1.21,0.37-1.381C202.245,131.694,201.878,132.539,202.371,131.99z
						 M180.574,140.925c-0.165-1.7-2.153,0.503-3.509,2.05C177.617,142.718,178.529,142.523,180.574,140.925z M199.004,112.117
						c-0.24,0.996-0.432,3.159,1.364,2.835c-0.331-1.365,2.141-0.858,1.276-2.595c0.11-0.013,0.147,0.008,0.223,0.011
						C200.43,112.169,199.239,111.987,199.004,112.117z M156.559,111.157c-0.525-1.29-0.691-2.91-1.546-3.64
						c0.078-0.004,0.179-0.009,0.264-0.014c-0.412-0.314-0.754-0.571-0.755-0.917c-0.722,0.08-1.523,0.132-1.732,0.699
						c0.987,2.033,1.208,3.402,1.543,4.063C154.661,112.012,155.207,111.911,156.559,111.157z"/>
					<path fill="#A5DACE" d="M171.259,80.663c-0.271,0.234-0.528,0.342-0.682,0.513C170.777,81.061,170.987,80.897,171.259,80.663z"
						/>
					<path fill="#A5DACE" d="M152.908,107.24c0.083,0.281,1,0.294,2.104,0.276C154.57,107.119,153.935,106.949,152.908,107.24z"/>
					<path fill="#A5DACE" d="M185.217,178.489l-0.364-0.17l-1.632,2.403c1.282,0.513,3.309-0.774,5.554-1.89
						c-0.958-0.332-1.114-0.92-1.044-1.777c0.048-0.845,0.37-1.949,0.304-2.949c0,0-0.713,1.128-1.427,2.256
						C185.912,177.426,185.217,178.489,185.217,178.489z"/>
					<path fill="#A5DACE" d="M208.152,156.314c0.546-0.694,1.502-1.922,2.35-3.1c0.849-1.189,1.585-2.288,1.713-2.682l-2.414,1.828
						L208.152,156.314z"/>
					<path fill="#A5DACE" d="M223.372,124.044c0,0-0.104,0.154-0.259,0.384c-0.153,0.244-0.372,0.529-0.6,0.806
						c-0.23,0.288-0.459,0.576-0.631,0.792c-0.174,0.225-0.297,0.357-0.297,0.357c0.543-0.724,1.58-1.935,2.131-2.649
						c0.28-0.356,0.456-0.56,0.427-0.548C224.109,123.178,223.882,123.421,223.372,124.044z"/>
					<path fill="#A5DACE" d="M188.506,167.07l1.516-1.989c2.232-2.84,2.937-3.593,0.61-0.603
						C191.18,163.658,189.099,166.388,188.506,167.07z"/>
					<path fill="#A5DACE" d="M224.085,119.009c-0.018,0.016-0.036,0.032-0.059,0.053c-1.287,1.334-1.456,0.702-1.623,0.145
						c-0.129-0.569-0.434-1.077-1.555,0.104c0.265-0.121,0.486-0.033,0.694,0.134c0.198,0.167,0.326,0.415,0.509,0.603
						c0.177,0.188,0.388,0.314,0.692,0.221c0.265-0.095,0.643-0.413,1.202-1.102C223.991,119.126,224.037,119.069,224.085,119.009z"
						/>
					<path fill="#A5DACE" d="M191.928,162.342c-2.444,3.294-2.632,3.729-2.478,3.649c0.187-0.076,0.741-0.641-0.04,0.431
						c0.192-0.315,1.634-2.255,2.62-3.715C193.05,161.271,193.546,160.328,191.928,162.342z"/>
					<path fill="#A5DACE" d="M206.994,127.293c1.412-2.289,2.012-2.501,2.618-2.427c-0.689,0.792-1.495,1.869-2.086,2.435
						c1.23-1.25,1.846-1.742,2.383-2.144c0.541-0.392,0.987-0.694,2.011-1.34c-0.648-1.003-1.683-1.25,0.127-4.027
						c-0.994,1.133-2.185,2.608-3.169,4.031C207.892,125.235,207.104,126.583,206.994,127.293z"/>
					<path fill="#A5DACE" d="M191.593,160.852c-0.833,1.576-2.254,3.888-3.361,5.601c-0.799,1.233-1.316,2.172-1.309,2.324
						c2.023-2.667,4.777-6.358,5.615-8.026c0.232-0.429,0.316-0.719,0.181-0.793l4.211-5.21c1.583-2.702,0.161-0.705-1.59,1.723
						C193.582,158.89,191.467,161.717,191.593,160.852z"/>
					<path fill="#A5DACE" d="M205.908,123.315c0,0-0.036,0.299-0.072,0.598c-0.052,0.295-0.104,0.591-0.104,0.591
						c1.351-1.486,2.165-2.069,3.002-2.783c0.833-0.708,1.678-1.535,2.979-3.331c-0.702,0.306-1.631,0.979-2.675,1.866
						C207.99,121.144,206.869,122.225,205.908,123.315z"/>
					<path fill="#A5DACE" d="M195.839,149.156l-5.399,8.337c0.343,0.653,1.685-2.734,3.338-4.892
						c-0.416,1.047-0.407,1.635,0.918-0.004c-1.129,0.785-0.049-0.832,0.9-2.331C196.563,148.8,197.382,147.452,195.839,149.156z"/>
					<path fill="#A5DACE" d="M187,160.494l-2.92,4.246c0,0-1.017,1.9-2.034,3.801c-1.068,1.951-2.137,3.902-2.137,3.902
						c1.276-1.86,2.048-3.111,2.964-4.745C183.801,166.054,184.871,164.062,187,160.494z"/>
					<path fill="#A5DACE" d="M188.523,156.767l0.668-1.289c0,0-1.985,3.139-3.97,6.276c-1.86,2.998-3.72,5.996-3.72,5.996
						c1.642-2.532,2.51-3.871,3.276-5.053C185.854,160.993,186.786,159.518,188.523,156.767z"/>
					<path fill="#A5DACE" d="M161.382,152.972c-0.277,1.938,2.541,1.821,1.236,0.953c0.191-0.868-0.662-1.096-1.325-1.081
						C160.63,152.859,160.218,153.062,161.382,152.972z"/>
					<path fill="#A5DACE" d="M168.654,179.312c-0.121-0.541-0.635,0.12-1.113,1.067c-0.486,0.952-0.914,2.165-1.128,2.907
						C166.998,182.025,168.455,181.763,168.654,179.312z"/>
					<path fill="#A5DACE" d="M166.24,183.878c0.032-0.127,0.094-0.345,0.173-0.592C166.328,183.47,166.271,183.648,166.24,183.878z"
						/>
					<path fill="#A5DACE" d="M110.459,177.502c0.011-0.229-0.04-0.471-0.193-0.709C110.333,177.037,110.378,177.249,110.459,177.502
						z"/>
					<path fill="#A5DACE" d="M110.757,179.721c-0.376,0.634-0.52,1.684-0.386,2.654c0.175,0.977,0.613,1.867,1.299,2.215
						c-0.391-2.246-0.322-4.18-1.21-7.088C110.391,178.49,109.125,179.438,110.757,179.721z"/>
					<path fill="#A5DACE" d="M118.082,161.662c0.327,1.254-0.662,2.239,0.67,2.511C119.518,163.954,119.183,161.51,118.082,161.662z
						"/>
					<path fill="#A5DACE" d="M215.386,110.824c1.544-0.596,1.974-1.893,0.155-2.823
						C214.258,109.439,215.804,109.498,215.386,110.824z"/>
					<path fill="#A5DACE" d="M216.896,105.828l0.943,0.392c0,0,0.528-0.053,1.057-0.106c0.524-0.044,1.083-0.158,1.083-0.157
						c0,0-0.199,0.004-0.499,0.012c-0.294-0.001-0.678-0.023-1.062-0.042C217.658,105.878,216.896,105.828,216.896,105.828z"/>
					<path fill="#A5DACE" d="M227.639,85.078c0.317,0.223,0.715,1.04,0.869,1.93C228.291,85.152,227.868,83.66,227.639,85.078z"/>
					<path fill="#A5DACE" d="M228.584,87.949c-0.01-0.292-0.033-0.644-0.076-0.94C228.531,87.306,228.561,87.657,228.584,87.949z"/>
					<path fill="#A5DACE" d="M227.761,89.998l0.991,0.501c-0.068-0.535-0.08-1.562-0.168-2.551
						C228.604,88.841,228.37,89.765,227.761,89.998z"/>
					<path fill="#A5DACE" d="M203.991,64.314c0,0,0.937,0.73,1.804,1.482c0.874,0.75,1.677,1.517,1.677,1.517
						c0.438-0.173,0.714-0.325,0.857-0.468l2.771-2.773l14.272,19.253c0.202,0.272,0.359,0.233,0.492-0.05l-17.502-16.924
						c-0.276-0.389-1.257-0.768-1.861-1.324c-0.593-0.554-0.839-1.31,0.591-2.458c0,0-0.791,0.429-1.582,0.858
						C204.75,63.871,203.991,64.314,203.991,64.314z"/>
					<path fill="#A5DACE" d="M193.435,66.757c-0.357-0.037-0.733,0.012-1.065,0.136c-0.319,0.127-0.632,0.318-0.937,0.543
						c-0.61,0.451-1.188,1.04-1.745,1.541c-1.154,0.992-2.077,1.677-3.316,0.256c-2.743,2.063-1.774,3.284-1.011,4.5
						c0.79,1.221,1.324,2.398-1.403,4.372c3.181-0.454,3.351-2.282,3.445-4.148c0.049-0.926,0.088-1.844,0.523-2.554
						c0.403-0.717,1.317-1.201,3.038-1.224C187.266,69.068,192.403,67.831,193.435,66.757z"/>
					<path fill="#A5DACE" d="M196.072,72.271c-0.004-0.913-0.786-1.231-1.666-1.138c-0.916,0.076-1.712,0.645-1.996,1.34
						c0.439-0.033,1.173,0.434,1.871,0.654C195.02,73.364,195.7,73.347,196.072,72.271z"/>
					<path fill="#A5DACE" d="M181.653,72.707l-2.302-0.461l0.062,1.238c0,0,0.531-0.203,1.108-0.393
						C181.087,72.898,181.653,72.707,181.653,72.707z"/>
					<path fill="#A5DACE" d="M175.124,75.108c0,0,0.12-0.661,0.29-1.317c0.164-0.659,0.328-1.319,0.328-1.319
						C175.54,73.451,173.208,74.522,175.124,75.108z"/>
					<path fill="#A5DACE" d="M165.92,77.326c-1.676,0.186-0.393,4.97,1.807,2.443l-0.717,0.214
						C166.798,79.25,164.451,78.698,165.92,77.326z"/>
					<path fill="#A5DACE" d="M153.73,93.627c0.801-0.354,1.41-1.445,0.736-2.188l-1.582,2.089L153.73,93.627z"/>
					<path fill="#A5DACE" d="M160.022,103.356c2.261,2.035,1.976-1.486,3.961-1.584
						C161.999,102.334,161.995,101.891,160.022,103.356z"/>
					<path fill="#A5DACE" d="M149.376,91.412c-0.042-0.664,0.205-0.918,0.569-1.054c0.375-0.147,0.833-0.143,1.135-0.212
						c-0.546-0.633-1.106-0.653-1.471-0.337C149.264,90.105,149.14,90.709,149.376,91.412z"/>
					<path fill="#A5DACE" d="M146.487,94.136c-1.309-0.622-0.607-1.514-1.554-1.907l-0.208-0.022
						c-0.029-0.028-0.05-0.058-0.074-0.085l-0.128-0.151l-0.195-0.216c-0.105-0.105-0.162-0.133-0.185-0.075
						c-0.048,0.117,0.033,0.578,0.193,1.401c0.397,1.188,1.751,4.264,1.944,5.815c0.414-0.807,0.151-2.481-0.056-3.454
						c-0.047-0.245-0.087-0.449-0.1-0.591c-0.038-0.054,0.077-0.171,0.14-0.238c0.075-0.073,0.157-0.127,0.25-0.16
						c0.37-0.13,0.896,0.084,1.704,0.821c0,0-0.064-1.399-0.128-2.798c-0.015-0.707-0.155-1.361-0.21-1.871
						c-0.072-0.503-0.12-0.839-0.12-0.839c-0.944,0.073-1.017,1.105-0.864,2.1C147.032,92.868,147.276,93.884,146.487,94.136z"/>
					<path fill="#A5DACE" d="M156.037,99.792c0,0-0.536-0.174-1.071-0.348c-0.523-0.19-1.046-0.38-1.046-0.38
						c1.067,1.281,0.254,2.071-0.167,2.928c1.052,1.524,1.488,1.117,1.718,0.266C155.703,101.406,155.719,100.116,156.037,99.792z"
						/>
					<path fill="#A5DACE" d="M142.238,99.029c0,0-0.289,0.415-0.578,0.829c-0.316,0.43-0.632,0.86-0.632,0.86l0.317,0.05
						c0,0,0.234-0.441,0.469-0.883C142.026,99.457,142.238,99.029,142.238,99.029z"/>
					<path fill="#A5DACE" d="M141.834,97.925l0.196-1.334c0,0-0.235,0.698-0.522,1.426c-0.306,0.745-0.611,1.49-0.611,1.49
						s0.244-0.404,0.488-0.808C141.609,98.312,141.834,97.925,141.834,97.925z"/>
					<path fill="#A5DACE" d="M141.366,96.786l0.029,0.166c0,0,0.168-0.368,0.336-0.736c0.152-0.355,0.305-0.711,0.305-0.711
						s-0.16,0.314-0.319,0.627C141.541,96.459,141.366,96.786,141.366,96.786z"/>
					<path fill="#A5DACE" d="M140.385,96.638l-0.766,2.238c0.384-0.719-0.068,1.509,0.907-1.48
						C140.04,98.515,139.735,98.451,140.385,96.638z"/>
					<path fill="#A5DACE" d="M93.497,174.423c1.112-1.742,1.886-3.168,2.651-4.567l-2.729,4.381
						C93.62,173.98,94.023,173.47,93.497,174.423z"/>
					<path fill="#A5DACE" d="M95.996,168.714c0,0-0.239,0.326-0.597,0.815c-0.374,0.484-0.872,1.131-1.37,1.777
						c-0.481,0.635-1.012,1.274-1.416,1.752c-0.398,0.475-0.664,0.791-0.664,0.791c0.179-0.021,0.4-0.103,0.578-0.211
						c0.171-0.105,0.357-0.255,0.556-0.438c0.417-0.372,0.783-0.851,1.223-1.395c0.441-0.544,0.865-1.126,1.274-1.666
						c0.421-0.543,0.801-1.036,1.104-1.382c0.277-0.615-0.22,0.04-0.764,0.703c-0.257,0.329-0.552,0.67-0.771,0.872
						c-0.224,0.204-0.326,0.259-0.343,0.062c0,0,0.303-0.42,0.607-0.841C95.705,169.135,95.996,168.714,95.996,168.714z"/>
					<path fill="#A5DACE" d="M88.163,114.942c2.15-0.756,1.98-1.26,2.967,0.247c-0.378-1.165-0.332-2.486-0.141-3.914
						c0.237-1.44,0.771-3.014,1.075-4.728c-1.595,1.124-3.369-0.842-3.12,0.385l0.294,3.644l-1.377-0.026
						c-1.244,1.813-0.725,2.058-0.1,2.247C88.371,113,89.025,113.168,88.163,114.942z"/>
					<path fill="#A5DACE" d="M205.23,41.836c0.258-0.499,0.196-0.943-0.094-1.355c-0.135-0.207-0.333-0.405-0.669-0.572
						c-0.154-0.085-0.3-0.174-0.593-0.223l-0.399-0.078c-0.08-0.008-0.109-0.03-0.231-0.026l-0.35,0.016
						c-0.132,0.051-0.261,0.102-0.388,0.151c-0.147,0.063-0.291,0.125-0.432,0.187c-0.488,0.216-0.943,0.469-1.351,0.737
						c-0.045,0.029-0.349,0.23-0.551,0.386c-0.219,0.166-0.43,0.341-0.63,0.524c-0.401,0.366-0.759,0.761-1.065,1.161l-0.166,0.224
						l-0.201,0.294c-0.131,0.2-0.255,0.407-0.371,0.62c-0.231,0.426-0.428,0.875-0.583,1.328c-0.312,0.918-0.448,1.797-0.456,2.612
						c-0.013,0.841,0.105,1.698,0.325,2.468c0.054,0.192,0.115,0.38,0.18,0.562c0.063,0.178,0.148,0.386,0.173,0.438
						c0.079,0.177,0.163,0.351,0.251,0.521c0.178,0.339,0.375,0.66,0.584,0.958c0.104,0.149,0.212,0.292,0.321,0.428
						c0.096,0.122,0.254,0.308,0.281,0.33c0.214,0.224,0.43,0.426,0.64,0.605c0.107,0.087,0.21,0.171,0.311,0.253
						c0.103,0.08,0.214,0.162,0.249,0.178c0.214,0.129,0.406,0.229,0.574,0.307c0.174,0.081,0.316,0.134,0.377,0.13
						c0.16,0.019,0.261-0.002,0.315-0.052c0.054-0.05,0.06-0.128,0.029-0.229c-0.046-0.114-0.052-0.192-0.258-0.421
						c-0.086-0.103-0.181-0.215-0.283-0.337c-0.05-0.061-0.102-0.124-0.156-0.189c-0.103-0.112-0.208-0.229-0.317-0.348
						c-0.111-0.128-0.222-0.262-0.331-0.402c-0.132-0.179-0.267-0.363-0.404-0.55c-0.229-0.325-0.441-0.68-0.623-1.053
						c-0.091-0.187-0.174-0.378-0.249-0.571l-0.148-0.409c-0.064-0.192-0.121-0.392-0.17-0.597c-0.2-0.817-0.25-1.72-0.147-2.54
						c0.1-0.833,0.392-1.771,0.849-2.578c0.113-0.203,0.235-0.397,0.364-0.583c0.124-0.181,0.289-0.391,0.339-0.445
						c0.155-0.18,0.321-0.355,0.498-0.524c0.352-0.337,0.744-0.642,1.151-0.896c0.123-0.078,0.167-0.1,0.209-0.121l0.143-0.072
						l0.292-0.137c0.196-0.087,0.397-0.166,0.598-0.236c0.245-0.087,0.303-0.089,0.413-0.114l0.309-0.058
						c0.484-0.089,0.625-0.053,0.871-0.056c0.256,0,0.35,0.038,0.491,0.06c0.278,0.048,0.409,0.114,0.489,0.165
						C205.32,41.758,205.326,41.801,205.23,41.836z"/>
				</g>
			</g>
		</g>
	</g>
</g>
<g>
	<g>
		<g>
			<g>
				<g>
					<path fill="#010101" d="M242.817,122.147c0.085,0.277,0.287,0.119,0.226-0.639l-0.346-0.534L242.817,122.147z"/>
					<path fill="#010101" d="M243.249,117.021c-0.231-0.885-0.593-1.886-0.851-1.286c0.387,0.854,0.271,1.075,0.724,2.003
						c0.078,0.759-0.065,1.333-0.187,1.209c0.092,0.266-0.042,1.181,0.177,1.585c0.208-0.993,0.257-2.261-0.088-3.552
						C243.075,116.693,243.183,116.96,243.249,117.021z"/>
					<path fill="#010101" d="M207.372,54.35l0.376,0.306C207.651,54.563,207.521,54.459,207.372,54.35z"/>
					<path fill="#010101" d="M163.895,39.417c0.354,0.018,0.504-0.004,0.524-0.032C164.089,39.382,163.818,39.383,163.895,39.417z"
						/>
					<path fill="#010101" d="M155.941,38.916c0.171,0.004,0.315,0.007,0.471,0.011C156.232,38.9,156.051,38.888,155.941,38.916z"/>
					<path fill="#010101" d="M207.372,54.35l-0.967-0.79C206.274,53.601,206.886,53.987,207.372,54.35z"/>
					<path fill="#010101" d="M241.149,106.984c0.062,0.249,0.131,0.452,0.205,0.637c-0.05-0.205-0.098-0.403-0.147-0.607
						C241.188,107.006,241.171,107,241.149,106.984z"/>
					<path fill="#010101" d="M223.005,67.568l0.253,0.282c0.103,0.058,0.207,0.105,0.311,0.145L223.005,67.568z"/>
					<path fill="#010101" d="M232.47,80.167c-0.173-0.313-0.476-0.272-0.649-0.325c0.2,0.112,0.383,0.309,0.561,0.566
						C232.43,80.385,232.461,80.312,232.47,80.167z"/>
					<path fill="#010101" d="M241.515,103.33l0.14,0.421C241.618,103.641,241.557,103.457,241.515,103.33z"/>
					<path fill="#010101" d="M214.938,59.676c0.006-0.049-0.013-0.113-0.045-0.169C214.87,59.534,214.892,59.596,214.938,59.676z"/>
					<path fill="#010101" d="M240.134,139.823c0.017,0.017,0.033,0.002,0.049,0.01C240.176,139.74,240.163,139.709,240.134,139.823z
						"/>
					<path fill="#010101" d="M243.555,122.147l0.009,0.251c0.053,0.027,0.104,0.055,0.156,0.055L243.555,122.147z"/>
					<path fill="#010101" d="M141.363,40.111c0.028-0.003,0.038-0.004,0.065-0.006C141.802,40.007,141.588,40.05,141.363,40.111z"/>
					<path fill="#010101" d="M73.985,140.108c-0.108-1.531,0.888,2.331,0.629,0.047C74.558,140.39,73.704,138.229,73.985,140.108z"
						/>
					<path fill="#010101" d="M241.112,106.583c-0.039-0.205-0.078-0.415-0.118-0.624
						C241.038,106.245,241.073,106.437,241.112,106.583z"/>
					<path fill="#010101" d="M74.615,140.155l0.002-0.001l-0.029-0.234C74.599,140.017,74.605,140.072,74.615,140.155z"/>
					<path fill="#010101" d="M110.267,52.762c0.086,0.005,0.221-0.035,0.359-0.078C110.601,52.665,110.515,52.676,110.267,52.762z"
						/>
					<path fill="#010101" d="M133.148,42.688l-0.605,0.137C132.784,42.771,132.978,42.727,133.148,42.688z"/>
					<path fill="#010101" d="M100.151,60.957c-0.262,0.212-0.373,0.261-0.685,0.601c0.041-0.018,0.079-0.04,0.125-0.069
						C99.688,61.347,99.839,61.183,100.151,60.957z"/>
					<path fill="#010101" d="M90.802,70.714c0.059-0.046,0.134-0.105,0.202-0.158c0.081-0.107,0.175-0.232,0.258-0.342
						L90.802,70.714z"/>
					<path fill="#010101" d="M221.922,175.062c0.252-0.163,0.438-0.239,0.597-0.287
						C222.233,174.794,223.476,173.303,221.922,175.062z"/>
					<path fill="#010101" d="M241.303,106.947c-0.084-0.062-0.139-0.167-0.19-0.364c0.033,0.148,0.064,0.292,0.095,0.431
						C241.255,107.043,241.296,107.044,241.303,106.947z"/>
					<path fill="#010101" d="M101.229,62.979l-1.569,1.388C100.11,63.99,100.68,63.485,101.229,62.979z"/>
					<path fill="#010101" d="M135.429,200.214l0.474,0.096C135.725,200.254,135.558,200.217,135.429,200.214z"/>
					<path fill="#010101" d="M95.346,68.834c-0.323,0.211-0.631,0.468-0.933,0.749c-0.042,0.079-0.094,0.165-0.108,0.229
						L95.346,68.834z"/>
					<path fill="#010101" d="M222.524,174.773c-0.003,0.003-0.005,0.002-0.005,0.002S222.521,174.776,222.524,174.773z"/>
					<path fill="#010101" d="M230.196,163.295c-1.043,1.693-0.194,0.983-0.234,1.459c-1.235,2.05-0.84,0.772-1.445,1.344
						c-0.717,1.305-1.147,2.403-1.814,3.296c-0.099,0.03-0.244,0.191-0.155-0.059c-0.341,0.728-1.038,1.671-1.804,2.6
						c-0.755,0.938-1.494,1.93-1.989,2.721c-0.116,0.08-0.186,0.111-0.23,0.118c0.338-0.1,0.511-0.011,0.571,0.123
						c-0.598,0.678-0.949,1.407-1.354,1.498c0.375-0.408,0.334-0.508,0.451-0.751l-0.554,0.775
						c-0.824,0.398,0.774-1.043,0.582-1.213c-1.113,1.469-2.43,3.19-3.497,4.125c-0.445-0.032,2.237-2.429,0.7-1.302
						c0,0,0.406-0.365,0.812-0.73c0.413-0.358,0.797-0.746,0.797-0.745c-1.506,0.866,0.912-0.955-0.528-0.213
						c-1.021,0.996-1.562,1.581-2.087,2.183c-0.519,0.608-1.066,1.19-2.155,2.11c-0.344,0.574,0.346,0.061,0,0.636
						c-1.368,1.523-2.16,1.84-2.789,2.122c-0.646,0.266-1.142,0.486-2.173,1.58c-0.473,0.643-0.455,1.168-2.289,2.275l0.35-0.748
						c-2.246,1.612-0.97,1.368-3.501,2.819c0.343-0.419,1.726-1.34,1.354-1.141c-1.725,0.805-0.961,0.953-2.183,1.735l-0.438-0.129
						c-1.247,0.784-2.493,1.716-3.865,2.524c-0.679,0.418-1.366,0.841-2.058,1.267c-0.703,0.407-1.431,0.781-2.156,1.162
						c0.118-0.171,0.572-0.515-0.158-0.269c-3.622,1.974-8.055,3.568-11.906,4.521c0,0-0.338,0.188-0.676,0.375
						c-0.337,0.194-0.682,0.365-0.682,0.366c-0.342,0.09-0.668,0.046-0.317-0.11c-1.521,0.302-0.025,0.2-0.711,0.508
						c-0.846,0.254-1.168,0.146-0.653-0.087c-2.534,1.062-7.481,2.296-10.379,2.432l0.541-0.177
						c-2.231,0.199-2.437,0.917-4.542,0.91l0.392-0.101c-4.86,0.393-10.279,0.674-13.974,0.035
						c-0.736,0.375-4.789-0.531-5.156-0.044c-2.73-0.64-1.935-0.582-5.751-1.453c-1.024-0.19-1.6,0.084-2.878-0.144l0.035-0.308
						l-1.786-0.067c0,0-0.207-0.14-0.413-0.28c-0.208-0.136-0.408-0.292-0.408-0.292l-1.188-0.243
						c0.46,0.146,0.955,0.405,0.862,0.472c-1.873-0.355-4.399-1.438-4.38-1.639c0,0-1.083-0.285-2.166-0.57
						c-0.545-0.136-1.084-0.29-1.482-0.425c-0.401-0.127-0.668-0.212-0.668-0.212c0.137-0.081,0.851,0.149,1.432,0.28
						c-2.34-0.55-0.292-0.458-2.436-0.965c0.249,0.17-0.214,0.115-0.284,0.155c-0.97-0.521-3.223-1.555-4.943-2.212l0.411-0.05
						c-2.959-1.475-6.315-2.992-9.447-5.01c1.082,0.786,0.633,0.94-0.32,0.393l-0.199-0.507c-0.709-0.202,0.907,0.707-0.46,0.149
						c-1.169-0.769-0.594-0.805,0.141-0.473c0,0-0.374-0.202-0.747-0.403c-0.364-0.216-0.729-0.432-0.729-0.432
						c-0.028-0.138,0.328,0.045,0.481,0c-0.68-0.236-2.227-1.897-3.225-2.215l-0.019-0.136c-2.967-2.226-4.331-3.223-6.604-5.222
						c-0.232,0.169-1.062-0.681-1.884-1.13c-1.551-1.616-3.141-3.522-4.922-5.529c-1.364-1.315-0.553-0.249-1.237-0.783
						c0.106-0.276-1.606-2.342-0.584-1.379c-1.038-1.232-1.699-2.022-2.383-2.93c-0.693-0.9-1.513-1.841-2.704-3.504
						c0.158,0.428,0.397,0.87,0.182,0.703c-0.446-0.597-0.846-1.469-0.684-1.447l0.13,0.149c-0.735-0.89-1.361-1.959-1.968-3.069
						c-0.3-0.558-0.613-1.115-0.888-1.694c-0.263-0.584-0.526-1.168-0.786-1.745c-0.26-0.576-0.517-1.145-0.768-1.699
						c-0.228-0.566-0.456-1.114-0.687-1.637c-0.457-1.048-0.954-1.979-1.399-2.778l0.101,0.178c0,0-0.421-0.848-0.842-1.695
						c-0.211-0.426-0.423-0.851-0.581-1.17c-0.143-0.325-0.238-0.542-0.238-0.542c-0.534-1.658,0.525,0.918,0.249-0.352
						c-0.436-0.924-0.785-1.769-1.083-2.562c-0.298-0.794-0.477-1.559-0.685-2.289c-0.199-0.733-0.392-1.445-0.59-2.176
						c-0.177-0.736-0.379-1.486-0.644-2.286c0.03-1.342-0.383-3.593-0.83-5.963c-0.18-1.191-0.374-2.412-0.52-3.554
						c-0.086-1.149-0.13-2.219-0.079-3.097l-0.162,0.213c-0.241-0.892,0-1.097,0.033-1.763c-0.14,0.101-0.127,0.989-0.246,0.431
						c-0.254-3.828-0.154-7.808,0.352-11.757c0.545-3.943,1.32-7.87,2.399-11.632c0.344-1.388,0.296-1.822,0.244-2.359
						c-0.025-0.527-0.016-1.154,0.74-2.818c0,0-0.004,0.269-0.009,0.538c0.006,0.271,0.013,0.542,0.013,0.542
						c1.331-5.674,4.204-11.077,6.768-16.136c-0.107,0.33-0.027,0.387-0.311,0.862c0.827-0.906,2.259-3.81,2.151-3.91
						c0.508-0.726,0.263-0.075,0.647-0.474c0.776-0.923,1.412-2.692,2.011-3.053c0.096-0.065-0.137,0.317-0.252,0.505
						c0.37-0.698,2.187-2.919,1.521-2.483c0.69-0.815,1.335-1.604,1.917-2.378c0.577-0.777,1.159-1.483,1.798-2.054
						c0.254-0.516,0.894-1.173,1.456-1.769c0.57-0.588,1.098-1.085,1.061-1.369c0.108,0.212,0.831-0.39,1.625-1.183
						c0.794-0.792,1.734-1.707,2.151-2.252c-0.24,0.407,0.958-0.69,0.695-0.19c1.125-1.045,2.187-1.974,1.821-1.992
						c0.633-0.351,1.2-0.778,1.731-1.222c0.548-0.422,1.055-0.868,1.534-1.289c0.951-0.85,1.813-1.573,2.681-1.726
						c3.592-2.836,7.204-5.111,10.871-7.019c0.034,0.238-0.986,0.745-1.958,1.256c-0.954,0.546-1.87,1.074-1.677,1.238
						c1.644-1.056,2.965-1.853,4.301-2.626c1.317-0.812,2.731-1.424,4.524-2.172c0.947-0.34-0.45,0.407-0.729,0.616
						c0.869-0.45,1.761-0.807,2.643-1.148c0.884-0.336,1.746-0.692,2.616-0.98c1.75-0.554,3.422-1.167,5.08-1.707
						c0.002,0.043-0.348,0.187-0.681,0.313c0.658-0.195,1.554-0.357,1.426-0.535l-0.63,0.231c-1.141,0.014,2.468-1.345,2.567-1.488
						c-1.003,0.825,3.408-0.608,1.758,0.52c0.432-0.136,0.964-0.354,0.834-0.465c0.664-0.107,0.886-0.075,0.255,0.225
						c2.377-0.622,1.493-0.619,3.688-1.015c0.008,0.099-0.429,0.214-0.636,0.368c1.075-0.387,2.167-0.784,4.056-0.906
						c-0.105,0.074,0.121,0.124-0.437,0.191c1.603-0.219,2.958-0.519,4.372-0.697c0.705-0.103,1.422-0.2,2.186-0.276
						c0.764-0.072,1.577-0.062,2.469-0.045c-1.038,0.457,1.214,0.112,1.405,0.48c0,0,0.477-0.036,0.953-0.073
						c0.477-0.016,0.954-0.032,0.954-0.032l-0.765-0.2c1.671,0.06,3.165-0.216,4.599-0.004c0,0-0.312,0.017-0.625,0.034
						c-0.312,0.031-0.625,0.062-0.625,0.062s0.786-0.009,1.568,0.046c0.784,0.04,1.567,0.08,1.567,0.08l-1.764-0.272
						c1.707-0.067-0.153-0.485,2.076-0.216c-0.459,0.016,1.686,0.096,2.528,0.458c0,0-0.005-0.001-0.005,0
						c0.837-0.017,1.706-0.037,2.929,0.207c0.303,0.157-0.316,0.377-0.119,0.481c0.857-0.204,3.884,0.555,4.966,0.426
						c-0.354,0.001-0.409,0.189-0.306,0.253l0.721-0.099c0.744,0.249,0.846,0.312,0.689,0.437c2.27,0.554-0.623-0.624,2.044,0.18
						c-0.218-0.028-0.125,0.032-0.577-0.03c2.685,0.74,5.265,1.186,7.658,2.13c0.598,0.591-2.154-0.607-1.43-0.037
						c3.541,0.989,7.336,2.165,10.569,3.704l-0.592-0.308c0.694-0.311,2.282,1.404,4.015,1.968
						c-0.416-0.162-0.655,0.005-0.521,0.004c2.126,1.202,4.452,2.258,7.681,4.108l-0.465-0.127c0.587,0.419,1.34,1,2.134,1.544
						c0.785,0.557,1.602,1.095,2.191,1.606c0.448,0.169,1.146,0.727,0.833,0.24c1.704,1.734,3.497,3.133,5.258,4.5
						c0.857,0.708,1.708,1.403,2.512,2.132c0.779,0.754,1.493,1.561,2.127,2.428c-0.359-0.361-0.938-0.78-0.654-0.491
						c0,0,0.658,0.624,1.315,1.248c0.628,0.653,1.257,1.307,1.257,1.307c-0.021-0.369-0.214-0.448-0.592-1.138
						c0.408,0.25,1.175,0.946,1.779,1.62c-1.21-1.121-0.268,0.257,0.104,0.864c-0.025-0.134,0.196-0.005,0.21-0.096
						c0.897,1.728,0.561-0.055,1.992,2.138l-0.182-0.031c0.341,0.35,0.669,0.687,1.003,1.031c0.317,0.358,0.632,0.731,0.93,1.165
						c0.043,0.51-0.715-0.76-0.929-0.68c0.869,1.179,2.158,2.023,2.679,3.29c-0.393-0.489-0.943-1.202-1.37-1.665
						c0.611,1.345,0.767,1.437,1.314,2.364l-0.053-0.092l1.253,2.145l-0.277-0.572c0.816,0.565,1.312,1.366,1.834,2.238
						c0.518,0.878,1.081,1.816,1.842,2.817c-1.509-1.924-0.405-0.23-0.758-0.25c0.222,0.599,0.587,1.488,0.384,1.288
						c0.761,0.919,0.761,1.789,1.76,3.132c-0.058,0.108,0.52,1.133,0.187,0.998c0.71,1.338,0.002-0.394,0.167-0.332
						c0.319,0.497,0.619,1.061,0.872,1.689c0.242,0.634,0.471,1.319,0.715,2.03c0.522,1.411,0.961,2.977,1.738,4.49
						c0.58,1.336,0.888,2.144,1.263,2.906c0.353,0.77,0.73,1.509,1.104,2.815c0.062,0.928-0.518-0.641-0.518-0.641
						c0.193,1.47,0.505,2.529,0.896,3.865c-0.135-0.259-0.152,0.041-0.184,0.477c0.227,1.085,0.483,0.664,0.609,2.133
						c-0.153-0.229-0.383-0.516-0.588-1.021c0.163,0.633,0.349,1.259,0.534,1.893c0.173,0.636,0.312,1.285,0.448,1.951
						c-0.122,0.379-0.362-0.776-0.534-1.23c0.263,1.494,0.693,3.877,0.954,4.328c0,0,0.005-0.247,0.01-0.493
						c0.009-0.247-0.001-0.493-0.001-0.493c0.071,0.553-0.189,0.308-0.294-0.092c-0.38-1.268-0.153-1.876-0.066-1.964l0.188,0.951
						c0.219-0.527,0.068-1.495-0.163-2.564c-0.26-1.066-0.655-2.225-0.81-3.185l0.556,0.721l-0.706-1.901
						c0.004-0.434,0.175-0.772,0.443,0.159c-0.108-1.414-0.428-1.177-0.481-2.403c0.003-0.138,0.037-0.084,0.082,0.032l-0.439-1.306
						c0.146,0.24,0.23-0.296,0.369,0.541c-0.355-2.466-1.393-3.741-1.327-4.729l0.082,0.19c-1.218-3.204-0.388-0.227-1.561-2.526
						l0.134-1.886l-0.413-0.203c-0.123-0.331-0.365-0.985-0.203-0.911c-0.69-1.139-0.039,0.256-0.51-0.375
						c-0.337-1.701-1.997-4.221-1.72-4.775c-0.468-0.45,0.525,1.547-0.388-0.023c0.274-0.711-1.013-1.833-1.529-3.308
						c0.461,0.292,1.025,1.664,0.509,0.174c-0.427-0.305-0.74-0.993-1.079-1.725c-0.35-0.725-0.685-1.518-1.059-2.06
						c-0.177,0.07-0.556-0.533-1.088-1.355c-0.548-0.812-1.219-1.864-1.876-2.746c0.101,0.015-0.458-0.856-1.2-1.936
						c-0.368-0.543-0.774-1.142-1.161-1.712c-0.407-0.556-0.793-1.083-1.096-1.497l0.085,0.009
						c-0.541-0.074-1.791-1.777-2.903-2.847c0.204-0.101,0.454,0.047,1.086,0.605l-0.97-1.079c-0.316-0.177-0.664-0.471-1.321-1.141
						l0.444,0.084c-0.637-0.727-1.412-1.332-2.172-2.042c-0.385-0.35-0.778-0.717-1.175-1.114c-0.407-0.388-0.835-0.79-1.258-1.246
						c-0.272,0.097,0.954,1.847-1.075,0.211c0.022-0.167,0.11-0.408,0.652,0.013c-0.178-0.138-0.665-0.455-0.956-0.805l0.924,0.536
						c-0.76-0.839-0.564-0.256-1.211-0.88c0.145-0.136-0.396-0.557-0.198-0.587c0.182,0.142,0.524,0.594,0.831,0.77
						c-0.709-0.732-1.588-1.597-1.804-1.974c-0.004,0.143-0.172,0.203-0.76-0.255c-1.486-1.225-0.355-0.607-1.155-1.409
						c-0.457-0.176-1.352-1.033-1.557-0.818c-0.448-0.342-0.448-0.515-0.574-0.711c-0.841-0.545-3.833-2.661-3.078-1.772
						l0.199,0.162c-0.042-0.024-0.09-0.052-0.141-0.082c0.007,0.005,0,0,0.007,0.005l-0.007-0.005
						c-2.819-1.64-5.622-3.788-8.531-5.234l0.051-0.085c-1.783-0.761-3.865-1.903-5.233-2.224c-0.522-0.228-1.163-0.705-0.892-0.715
						c-1.384-0.528-1.569-0.502-3.511-1.402c1.453,0.368-0.425-0.326,1.471,0.425c-1.771-0.749-2.113-1.104-4.158-1.516
						c0.753-0.02-1.277-0.753-2.173-0.966l1.228,0.591c-0.992-0.276-1.832-0.605-2.707-0.87l0.572-0.185
						c-3.714-1.479-7.043-1.16-9.867-2.326c-1.069,0.051,2.084,0.525,1.112,0.634c-1.772-0.344-3.56-1.16-4.129-1.227
						c-2.456-0.467-2.363,0.155-4.936-0.198c0.322,0.142,0.602,0.481-1.333,0.45c-1.793-0.176-2.188-0.659-1.039-0.67
						c0.435,0.022,0.642,0.075,0.621,0.114c0.587,0,1.359,0.005,0.651-0.176l-0.244,0.101c-0.445-0.093-1.292-0.183-1.953-0.267
						c-0.662-0.066-1.14-0.114-0.842-0.207c-1.38,0.079-0.594,0.18,0.42,0.266c-2.325-0.205-3.64-0.157-6.04-0.176
						c0.383,0.056,0.735,0.187,0.356,0.195c-3.518-0.039-1.543,0.212-3.909,0.423c-1.358-0.082,0.456-0.467-1.925-0.14
						c-1.472-0.015-0.338-0.291,0.239-0.431c-2.17,0.343-4.09,0.296-5.349,0.379l1.138-0.236c-0.681,0.141-1.245,0.209-1.818,0.279
						l0.689,0.154c-0.681,0.031-1.246,0.14-1.249,0.039c-0.665,0.272,0.585,0.299-0.744,0.744c-0.908,0.037-2.678,0.585-3.043,0.345
						c2.814-0.394-0.372-0.262,1.993-0.725c-0.452,0.116-1.01,0.211-1.69,0.286c-0.107-0.017,0.082-0.081,0.262-0.129
						c-2.73,0.27-1.157,0.608-3.909,1.203c0.311-0.242-0.722-0.204-1.154-0.028c1.105-0.278,0.593,0.141-0.375,0.551
						c-1.776,0.344-1.863,0.618-2.777,0.852l1.057-0.222c-0.3,0.279-1.186,0.451-2.354,0.914c-0.143-0.099,1.054-0.444,0.611-0.364
						c-1.218,0.754-3.113,0.617-4.857,1.531c-0.885,0.208-0.198-0.282-0.969-0.075c-1.966,0.979-2.305,0.628-4.343,1.729
						c0.705-0.047,0.784-0.146-0.601,0.712c0,0,0.847-0.416,1.694-0.831c0.424-0.208,0.849-0.417,1.167-0.572
						c0.316-0.162,0.537-0.245,0.537-0.245s-0.133,0.075-0.333,0.187c-0.196,0.121-0.456,0.282-0.717,0.443
						c-0.52,0.321-1.039,0.643-1.039,0.643c1.039-0.455,2.136-1.102,2.796-1.288c-1.004,0.591-0.914,0.493-0.333,0.483
						c-1.577,0.248-2.742,1.399-4.476,1.901l-0.201-0.56c-1.271,0.482-2.322,1.086-3.449,1.745
						c-1.104,0.706-2.281,1.474-3.846,2.277c0,0,0.252-0.127,0.515-0.238c0.259-0.115,0.519-0.23,0.519-0.23
						c-0.307,0.409-1.849,1.128-2.764,1.811c-0.015-0.223-0.657,0.09-1.137,0.244c0.111,0.061-2.152,1.422-2.188,1.929l-1.442,0.675
						c-1.177,0.795-1.729,1.414-2.276,2.004c-0.55,0.588-1.071,1.181-2.124,2.038c0.492-0.691-0.547-0.004,0.758-1.296
						c-0.701,0.583-1.353,1.082-1.276,1.196c-0.491,0.248-1.77,1.811-2.487,2.26c-0.224,0.324-0.177,0.562-0.936,1.239
						c-0.109,0.046-0.063-0.074-0.063-0.074c0.063,0.075-1.081,1.176-0.276,0.731c-1.22,0.738-2.592,2.139-3.879,3.543
						c-1.26,1.434-2.485,2.829-3.433,3.628c-1.237,1.555-2.589,3.525-3.639,4.985c0.021-0.127-0.077-0.061,0.142-0.324
						c-1.579,1.93-0.391,1.581-2.128,3.802c-1.063,1.031,0.68-1.342,0.084-0.657c-0.802-0.043-1.717,2.947-2.995,4.403
						c0,0,0.19-0.423,0.189-0.423c-0.45,0.583-0.806,1.406-1.205,2.331c-0.201,0.461-0.413,0.95-0.634,1.458
						c-0.205,0.517-0.431,1.048-0.693,1.581c0,0-0.002-0.129-0.082-0.055c-0.429,1.599-1.514,4.467-2.227,6.629
						c-0.012-0.761,0.243-1.015-0.167-0.707c-0.307,0.978,0.485-0.134-0.12,1.809c-0.35,0.577-0.951,1.926-1.278,2.027l0.624-1.827
						c-0.332,0.408-0.537,1.001-0.707,1.608c-0.161,0.609-0.25,1.244-0.428,1.721l-0.113-0.17c-0.807,2.858-0.406,3.003-1.168,6.081
						l0.191-0.293c-0.031,1.761-0.505,1.378-0.558,3.127l-0.483,0.445c-0.159,1.14-0.229,4.024-0.386,6.058
						c-0.18-1.181-0.009-3.585,0.044-5.088c-0.193,1.123-0.488,3.842-0.38,4.447c0.021-0.458,0.001-1.042,0.12-1.483
						c0.087,1.418,0.126,3.251-0.061,5.496c-0.792-0.441-0.396,5.872-0.851,7.53c0.445,3.994,0.393,7.982,1.361,12.589
						c0.283-1.746,0.265,1.342,0.812,0.936c0.265,1.052,0.369,1.452,0.348,1.557c0,0,0.103,0.821,0.205,1.643
						c0.052,0.412,0.104,0.825,0.142,1.134c0.054,0.306,0.09,0.51,0.09,0.51c0.044,0.801-0.42-0.96-0.506-0.835
						c0.588,2.321,0.021,1.035,0.304,2.608c0.123-0.375,0.525,0.715,0.853,2.044c0,0-0.084-0.479-0.148-0.962
						c-0.068-0.481-0.136-0.963-0.136-0.963c0.609,1.561,0.739,2.272,0.86,3c0.127,0.723,0.218,1.472,0.971,2.992
						c0,0-0.144-0.231-0.288-0.462c-0.134-0.235-0.267-0.471-0.267-0.471c0.324,0.806,0.968,2.272,1.602,3.735
						c0.659,1.453,1.461,2.836,2.027,3.5c0.065,0.308,0.087,0.748-0.275,0.077c1.749,3.774,4.857,7.812,6.442,10.597l-0.296-0.176
						c0.453,0.626,0.989,0.943,1.439,1.807c-0.079-0.004-0.305-0.163-0.1,0.13c0.293,0.294,1.405,1.506,1.978,2.352
						c0,0-0.17-0.144-0.341-0.287c-0.164-0.149-0.327-0.298-0.327-0.298c2.346,3.295,4.228,4.534,6.618,6.885
						c-0.314,0.285,1.769,2.691,2.927,3.78l-0.083,0.008c3.417,3.246,6.283,4.955,9.924,7.287c0.489,0.475,1.187,1.062,2.041,1.675
						c0.868,0.591,1.873,1.234,2.925,1.9c2.141,1.271,4.506,2.558,6.412,3.605c-0.56-0.367,0.247-0.261,0.954,0.04
						c0.877,0.525,2.688,0.854,2.375,1.167l-0.329-0.151c0.271,0.334,0.898,0.688,1.644,1.039c0.746,0.353,1.637,0.637,2.396,0.94
						l0.438-0.397c0.463,0.278,0.976,0.547,1.522,0.804c0.554,0.235,1.146,0.451,1.752,0.661c1.214,0.42,2.493,0.812,3.741,1.086
						c2.472,0.643,4.744,1.018,5.811,1.609c1.027,0.12,2.291,0.303,3.315,0.354l-0.102,0.27c0.701,0.139,1.314,0.26,1.895,0.374
						c0.583,0.096,1.135,0.164,1.708,0.242c1.147,0.132,2.374,0.343,4.141,0.407l-0.736,0.148c1.994,0.151,2.567-0.599,4.387-0.544
						l0.534,0.436c1.732,0.04,3.475,0.197,5.217,0.164c0.871-0.002,1.742-0.005,2.606-0.058c0.863-0.082,1.721-0.194,2.568-0.353
						c-0.052,0.065-0.144,0.195-0.704,0.253c1.635-0.033,6.331-0.374,5.662-0.873c0.099,0.419,3.545-0.512,5.346-1.008l-0.232,0.328
						c1.476-0.676,1.499-0.794,3.621-1.364c0.517-0.077,0.498,0.118-0.194,0.199c1.73-0.238,1.245-0.591,3.313-0.985l-0.709,0.379
						c1.729-0.457,1.571-0.497,2.452-0.977c1.031-0.454,3.233-0.981,3.569-0.827c0.186-0.203,1.021-0.763,2.029-1.062
						c0.167,0.038-0.17,0.23-0.341,0.326c2.881-0.853,3.986-1.971,5.98-2.528c0.077,0.066,0.22,0.057,0.387,0.011
						c-2.179,0.948-3.939,1.696-3.782,1.607c0.095,0.238,1.881-0.491,0.611,0.449c1.354-0.798,3.603-2.218,5.312-2.98
						c0.092-0.019,0.183-0.036,0.261-0.03l-0.161,0.111c0.399-0.169,0.737-0.362,1.043-0.562c0.561-0.22,0.901-0.391,1.407-0.663
						c0.294,0.078,1.989-0.972,2.832-1.433c-0.208-0.201,0.879-0.822-0.237-0.404c0.142-0.059-0.137,0.122-0.689,0.438
						c-0.122,0.076-0.268,0.162-0.342,0.223c0.013-0.015,0.028-0.033,0.044-0.053c-0.546,0.31-1.26,0.713-2.07,1.172
						c0.594-0.494,1.223-0.98,2.224-1.358c0.343-0.392,0.717-0.818,0.924-1.056c1.299-0.356,3.582-1.479,3.988-1.505
						c2.354-1.75,5.578-4.085,6.638-5.684c0.592-0.583,0.827-0.494,1.118-0.63c-0.333,0.349-0.776,0.708-0.927,0.934
						c0.593-0.587,1.532-1.382,2.319-2.107c0.76-0.758,1.383-1.429,1.403-1.698c1.649-1.292-0.632,1.045,1.438-0.945l-0.207,0.345
						c1.127-0.869,2.02-1.798,2.854-2.698c0.826-0.908,1.495-1.884,2.215-2.829c0.732-0.938,1.379-1.965,2.185-2.98
						c0.819-1.006,1.657-2.112,2.741-3.26c-0.294,0.322-0.44,0.484-0.542,0.519c2.273-2.756,4.164-5.935,5.889-9.161
						c0.42-0.813,0.839-1.627,1.257-2.438c0.416-0.812,0.776-1.647,1.176-2.459c0.822-1.615,1.499-3.274,2.301-4.854
						c0.803-1.841,0.626-2.14,0.867-3.344l0.431-0.313c0,0,0.106-0.516,0.159-1.047c0.063-0.525,0.128-1.052,0.128-1.052
						c0.293-1.452,0.853-2.619,1.299-3.934c0.479-1.303,0.964-2.724,1.037-4.621l-0.288,0.438c0.139-0.658,0.31-1.709,0.452-2.565
						c0.108-0.861,0.214-1.524,0.315-1.397c-0.019-0.143-0.152-0.466,0.021-0.973l0.162-0.021c0,0,0.04-0.827,0.081-1.654
						c-0.003-0.829-0.005-1.658-0.005-1.658c0.296-2.545,0.634,0.455,0.878-3.294c-0.024-1.404-0.356-3.979-0.477-3.454
						c-0.022,0.561-0.136,1.429-0.295,1.468l-0.049-1.266c-0.461-0.236-0.912-1.181-1.316,1.868l0.225,2.143l-0.28,0.672
						c0,0,0.028-0.447,0.057-0.895c0.009-0.448,0.017-0.896,0.017-0.896c-0.223,1.007-0.102,1.655-0.028,2.385
						c-0.134,0.162-0.241,0.454-0.318,0.871c0,0,0.069,0.53,0.139,1.062c0.073,0.532,0.129,1.065,0.129,1.065
						c-0.214,0.231-0.237-0.967-0.521,0.411c0.078,0.996,0.529-0.888,0.451,0.741c-0.343,0.989-0.475,0.667-0.452,1.88
						c-0.141,0.149-0.183-0.113-0.174-0.59c0.036,1.081-0.378,2.788-0.236,3.374c-0.228,0.499-0.367,1.388-0.52,2.126
						c-0.181,0.732-0.35,1.316-0.552,1.216c0.021,0.346-0.088,1.907-0.321,2.861c-0.004-1.853-1.063,3.509-1.471,2.888
						c0.06,1.402-1.303,4.587-1.994,6.832c0.015-0.136,0.042-0.403,0.143-0.586c-0.546,1.201-0.787,1.515-1.235,2.239
						c0.287,0.312-0.503,2.211-0.758,3.326c-0.537,0.64-0.533,0.364-0.451-0.024c0.064-0.396,0.183-0.919-0.087-0.769
						c0.358,0.082-1.002,2.632-0.511,2.27c-0.786,0.983-0.601,0.89-1.183,1.295c0.34,0.437-0.481,1.046-0.753,2.074
						c-1.124,1.415-0.628,0.159-1.506,1.922C229.427,164.865,230.213,163.304,230.196,163.295z M196.55,194.824l-0.003-0.005
						c0.36-0.186,0.667-0.344,0.862-0.444C197.23,194.469,196.982,194.599,196.55,194.824z M192.971,196.487
						c0.442-0.19,0.992-0.426,1.574-0.675c0.167,0.032,0.072,0.183-0.295,0.337C194.42,196.005,193.542,196.326,192.971,196.487z
						 M201.398,194.486c-0.54,0.346-0.753,0.401-0.857,0.393c0.259-0.154,0.562-0.334,0.96-0.571
						c0.013-0.018,0.036-0.049,0.049-0.066C201.522,194.317,201.486,194.395,201.398,194.486z"/>
					<path fill="#010101" d="M202.219,193.609c0.077-0.051,0.115-0.085,0.219-0.146c-0.125,0.045-0.243,0.087-0.363,0.129
						c-0.053,0.064-0.106,0.129-0.154,0.187C202.021,193.722,202.125,193.662,202.219,193.609z"/>
					<path fill="#010101" d="M207.814,54.709l-0.066-0.053c0.052,0.049,0.099,0.095,0.124,0.133
						C207.833,54.746,207.838,54.738,207.814,54.709z"/>
					<polygon fill="#010101" points="139.707,201.121 139.697,201.192 140.045,201.206 					"/>
					<path fill="#010101" d="M223.459,69.991c0.008,0.048,0.047,0.123,0.135,0.261C223.601,70.229,223.538,70.121,223.459,69.991z"
						/>
					<path fill="#010101" d="M229.107,77.506l0.651,1.163C229.488,78.159,229.279,77.795,229.107,77.506z"/>
					<path fill="#010101" d="M232.776,83.726c0.086,0.057,0.131,0.062,0.172,0.066l-0.005-0.013L232.776,83.726z"/>
					<path fill="#010101" d="M134.159,44.361c-0.092,0.03-0.182,0.059-0.264,0.085C133.283,44.671,133.703,44.533,134.159,44.361z"
						/>
					<path fill="#010101" d="M167.932,40.832c-0.367,0.001-0.728,0.003-1.108,0.004C167.428,40.919,167.896,40.992,167.932,40.832z"
						/>
					<path fill="#010101" d="M101.401,62.827c0.001-0.004-0.002-0.002,0-0.006c-0.06,0.055-0.112,0.104-0.171,0.158L101.401,62.827z
						"/>
					<path fill="#010101" d="M165.236,40.715c0.604,0.1,1.112,0.126,1.588,0.122C166.328,40.781,165.742,40.709,165.236,40.715z"/>
					<path fill="#010101" d="M242.105,113.334l0.034,0.345c0.018-0.007,0.035,0.012,0.051,0.037L242.105,113.334z"/>
					<path fill="#010101" d="M242.19,113.715l0.068,0.38C242.246,113.919,242.23,113.767,242.19,113.715z"/>
					<path fill="#010101" d="M242.393,114.899l-0.134-0.803C242.28,114.376,242.299,114.723,242.393,114.899z"/>
					<path fill="#010101" d="M240.591,103.917l-0.125-0.083C240.5,103.888,240.541,103.918,240.591,103.917z"/>
					<path fill="#010101" d="M239.853,101.112c0.195,0.665,0.22,1.735,0.514,2.654l0.1,0.069
						C240.201,103.435,240.236,101.691,239.853,101.112z"/>
					<path fill="#010101" d="M236.898,89.214c0,0,0.061,0.142,0.152,0.354c0.095,0.211,0.211,0.498,0.313,0.789
						c0.214,0.579,0.429,1.158,0.429,1.158c-0.062-0.44-0.144-1.025,0.306,0.008C237.201,88.515,238.154,92.197,236.898,89.214z"/>
					<path fill="#010101" d="M233.578,82.306c0.7,1.131,0.136-0.095,0.218-0.061C233.277,81.567,233.152,81.406,233.578,82.306z"/>
					<path fill="#010101" d="M192.795,46.217l0.223-0.182C192.062,45.658,192.97,46.123,192.795,46.217z"/>
					<path fill="#010101" d="M182.452,43.948l0.901,0.412l0.512-0.081c0,0-0.347-0.105-0.704-0.175
						C182.807,44.026,182.452,43.948,182.452,43.948z"/>
					<polygon fill="#010101" points="176.849,40.677 177.296,40.74 175.599,40.461 					"/>
					<path fill="#010101" d="M92.153,68.702l0.445-0.024C93.019,68.125,92.852,67.78,92.153,68.702z"/>
					<path fill="#010101" d="M74.369,104.44c-0.127,0.196-0.284,0.564-0.404,0.974c-0.103,0.414-0.173,0.868-0.161,1.226
						C73.975,105.75,74.29,104.895,74.369,104.44z"/>
					<path fill="#010101" d="M128.845,200.687c0,0-0.205-0.032-0.402-0.084c-0.199-0.048-0.398-0.095-0.398-0.095
						s0.363,0.125,0.735,0.222c0.372,0.099,0.743,0.197,0.743,0.197L128.845,200.687z"/>
				</g>
			</g>
		</g>
	</g>
</g>
<path fill-rule="evenodd" clip-rule="evenodd" fill="#FFFFFF" d="M277.717,130.962c0,2.604-2.203,4.717-4.922,4.717h-3.656
	c-2.717,0-4.922-2.112-4.922-4.717l0,0c0-2.605,2.205-4.718,4.922-4.718h3.656C275.514,126.244,277.717,128.356,277.717,130.962
	L277.717,130.962z"/>
<path fill-rule="evenodd" clip-rule="evenodd" fill="#FFFFFF" d="M79.619,101.816c7.534,1.933,11.835,10.54,9.608,19.213
	l-2.998,11.672c-2.224,8.683-10.14,14.147-17.675,12.218l0,0c-7.53-1.938-11.834-10.544-9.606-19.22l2.995-11.672
	C64.173,105.351,72.085,99.879,79.619,101.816L79.619,101.816z"/>
<path fill-rule="evenodd" clip-rule="evenodd" fill="#FFFFFF" d="M262.061,114.482c0,9.349-4.365,16.925-9.75,16.925h-7.24
	c-5.385,0-9.748-7.576-9.748-16.925l0,0c0-9.349,4.363-16.931,9.748-16.931h7.24C257.695,97.552,262.061,105.134,262.061,114.482
	L262.061,114.482z"/>
<g>
	<g>
		<g>
			<path fill-rule="evenodd" clip-rule="evenodd" d="M60.623,111.232c0.586-0.785,1.099-1.468,1.608-2.154
				c1.213-1.635,2.45-3.245,3.628-4.919c0.526-0.746,1.18-1.022,1.92-1.101c0.362-0.037,0.808-0.075,1.09,0.136
				c1.354,1.019,2.922,1.76,3.521,3.837c0.214,0.742,0.317,1.395,0.195,2.226c-0.17,1.163,0.097,2.415-0.053,3.585
				c-0.178,1.404-0.622,2.758-0.9,4.146c-0.165,0.823-0.26,1.673-0.319,2.518c-0.013,0.17,0.261,0.467,0.442,0.528
				c0.151,0.053,0.418-0.096,0.535-0.258c0.15-0.214,0.194-0.535,0.301-0.801c0.677-1.677,1.321-3.377,2.057-5.015
				c0.305-0.679,0.944-1.148,1.199-1.841c0.704-1.911,2.053-2.718,3.467-3.655c1.653-1.094,2.76-0.144,3.845,1.004
				c0.916,0.968,1.104,2.312,0.824,3.771c-0.233,1.221-0.445,2.457-0.551,3.701c-0.512,6.055-3.259,15.19-0.598,20.896
				c0.889,1.903,2.806-3.513,3.059-4.039c1.425-2.953,3.288-5.596,4.659-8.573c0.265-0.575,0.342-1.269,0.557-1.883
				c0.569-1.629,1.223-3.215,1.732-4.869c0.369-1.194,0.607-2.458,0.818-3.713c0.153-0.909,0.139-1.855,0.257-2.774
				c0.035-0.271,0.228-0.645,0.42-0.73c1.133-0.501,2.097,0.33,2.2,1.807c0.157,2.251,0.014,4.458-0.402,6.668
				c-0.25,1.325-0.271,2.714-0.422,4.07c-0.185,1.674-0.407,3.341-0.593,5.014c-0.166,1.509,0.254,2.8,1.062,3.922
				c0.407,0.565,1.399,0.414,1.85-0.162c0.488-0.621,0.876-1.373,1.243-2.115c0.489-0.989,0.957-2.002,1.36-3.046
				c0.419-1.084,0.738-2.226,1.129-3.328c0.151-0.428,0.41-0.801,0.567-1.226c0.684-1.837,1.394-3.66,2.005-5.532
				c0.803-2.459,2.073-4.559,3.556-6.397c1.156-1.436,2.628-2.498,3.985-3.683c0.549-0.479,1.138-0.924,1.759-1.241
				c0.727-0.37,1.499-0.633,2.27-0.85c0.542-0.151,1.327,0.49,1.539,1.122c0.309,0.921,0.12,1.292-0.69,1.217
				c-1.134-0.105-2.239-0.121-3.223,0.729c-0.155,0.134-0.435,0.224-0.462,0.384c-0.158,0.93-0.886,1.268-1.269,1.924
				c-2.231,3.84-4.445,12.883-0.569,16.275c0.232,0.203,0.393,0.524,0.656,0.891c0.945-0.791,1.971-1.425,2.741-2.364
				c0.671-0.817,1.043-1.99,1.566-2.992c0.348-0.661,0.806-1.252,1.074-1.955c0.27-0.702,0.468-1.494,0.513-2.264
				c0.46-7.757,0.69-15.576,1.816-23.246c0.69-4.703,1.835-15.494,7.021-16.134c0.459-0.056,0.936-0.117,1.383-0.027
				c1.033,0.209,1.631,1.112,1.649,2.402c0.016,1.144,0.039,2.291-0.018,3.432c-0.232,4.701-1.249,9.941-2.762,14.583
				c-1.469,4.508-4.195,8.706-5.395,13.269c-0.619,2.352-0.462,4.804-0.439,7.228c0.013,1.356,0.069,2.715,0.149,4.068
				c0.029,0.488,0.186,0.965,0.287,1.446c0.427,2.001,0.793,4.027,1.304,5.998c0.355,1.368,1.218,1.482,1.908,0.373
				c0.524-0.841,1.075-1.662,1.551-2.541c0.228-0.422,0.265-0.989,0.463-1.441c0.259-0.591,0.653-1.1,0.878-1.704
				c0.429-1.148,0.724-2.374,1.177-3.506c1.293-3.232,2.071-6.786,3.832-9.729c2.577-4.305,4.747-3.791,8.368-1.774
				c0.377,0.21,0.753,0.487,0.477,0.95c-0.757,1.264-2.644-0.634-3.725-0.448c-3.368,0.578-4.986,7.146-5.453,10.477
				c-0.263,1.88-0.199,3.716,0.29,5.461c0.285,1.018,0.608,2.411,1.904,2.269c1.237-0.137,2.493-0.326,3.549-1.226
				c0.989-0.845,1.985-1.697,2.882-2.68c0.487-0.533,0.769-1.348,1.146-2.03c0.052-0.094,0.14-0.158,0.188-0.254
				c0.236-0.458,0.621-0.898,0.668-1.386c0.491-5.118,0.278-14.168,3.995-17.621c1.979-1.839,4.788-1.434,5.854,1.506
				c1.46,4.028-1.995,8.849-4.03,11.728c-0.911,1.289-0.713,3.234,0.522,3.916c0.327,0.183,0.836,0.152,1.176-0.024
				c0.918-0.481,1.835-1.014,2.663-1.686c0.446-0.36,0.789-1.001,1.041-1.6c0.81-1.926,1.497-3.929,2.341-5.83
				c0.869-1.958,1.979-3.755,3.673-4.73c1.919-1.107,3.939-1.521,5.769,0.257c0.479,0.467,0.816,1.346,0.949,2.104
				c0.283,1.646,0.349,3.322,0.115,5.024c-0.219,1.586-0.253,3.21-0.377,4.938c0.152-0.097,0.375-0.153,0.48-0.318
				c0.658-1.043,1.274-2.123,1.934-3.165c0.748-1.182,1.445-2.417,2.563-3.178c0.481-0.327,0.893-0.331,1.439-0.272
				c5.08,0.544,2.892,17.691,3.162,21.879c0.02,0.287,0.027,0.578,0.042,0.903c0.679,0.268,1.123-0.293,1.549-0.725
				c1.497-1.519,2.634-3.421,3.545-5.486c1.295-2.936,2.546-5.904,3.686-8.934c0.583-1.548,0.871-3.261,1.313-4.89
				c0.312-1.148,0.684-2.273,0.978-3.427c0.354-1.383,0.643-2.791,0.98-4.181c0.519-2.136,0.856-4.312,1.087-6.522
				c0.092-0.865,0.426-1.689,0.534-2.556c0.242-1.935,0.427-3.883,0.588-5.831c0.019-0.221-0.254-0.676-0.411-0.688
				c-0.79-0.071-1.586-0.059-2.379-0.024c-1.312,0.06-2.623,0.159-3.934,0.24c-0.876,0.055-1.759,0.226-2.623,0.137
				c-1.654-0.17-3.179,0.502-4.754,0.855c-1.272,0.282-2.571,0.441-3.812,0.857c-1.303,0.436-2.557,1.093-3.82,1.693
				c-1.676,0.8-3.197,2.089-5.021,2.418c-0.302,0.055-0.641-0.191-0.963-0.3c0.151-0.365,0.234-0.831,0.472-1.072
				c0.263-0.267,0.675-0.307,1.007-0.482c1.495-0.794,2.98-1.613,4.479-2.398c0.735-0.386,1.474-0.78,2.24-1.056
				c1.352-0.484,2.716-0.922,4.089-1.297c0.803-0.219,1.63-0.32,2.452-0.399c1.748-0.17,3.5-0.322,5.255-0.418
				c1.042-0.058,2.089,0.002,3.135,0.009c0.294,0.004,0.59,0.035,0.883,0.014c1.169-0.086,2.337-0.198,3.506-0.275
				c0.36-0.024,0.601-0.108,0.646-0.629c0.229-2.592,0.292-5.171-0.294-7.716c-0.02-0.081,0-0.174,0.002-0.25
				c0.884-0.479,2.228,0.55,2.256,1.737c0.043,1.775,0.054,3.552,0.075,5.329c0,0.206,0.001,0.419-0.033,0.619
				c-0.174,1-0.006,1.256,0.816,1.312c1.688,0.115,3.378,0.248,5.067,0.382c2.261,0.177,4.521,0.386,6.782,0.534
				c1.456,0.095,2.919,0.191,4.373,0.119c1.159-0.059,2.308-0.397,3.465-0.562c1.138-0.162,2.293-0.185,3.421-0.411
				c1.975-0.393,3.935-0.882,5.897-1.353c1.554-0.374,3.104-0.77,4.652-1.182c0.635-0.168,1.258-0.403,1.887-0.607
				c0.111-0.035,0.26-0.134,0.336-0.083c0.283,0.188,0.543,0.428,0.811,0.646c-0.275,0.233-0.527,0.583-0.832,0.68
				c-1.68,0.525-3.371,0.992-5.059,1.476c-1.905,0.547-3.807,1.12-5.72,1.618c-0.663,0.172-1.359,0.144-2.039,0.229
				c-3.017,0.376-6.027,0.826-9.049,1.109c-1.254,0.117-2.529-0.137-3.795-0.195c-1.46-0.066-2.924-0.077-4.383-0.166
				c-0.556-0.034-1.103-0.259-1.659-0.324c-1.528-0.18-3.06-0.326-4.59-0.473c-0.466-0.044-0.645,0.303-0.69,0.82
				c-0.591,6.646-2.057,12.845-3.317,19.333c-0.418,2.152-3.194,21.226,2.072,16.989c0.934-0.751,1.72-1.683,2.237-2.951
				c0.3-0.735,0.809-1.341,1.21-2.018c1.099-1.852,2.22-3.686,3.275-5.574c0.913-1.635,1.784-3.306,2.604-5.01
				c0.855-1.775,1.642-3.599,2.427-5.421c0.253-0.588,0.32-1.312,0.631-1.838c0.248-0.415,0.71-0.752,1.125-0.874
				c0.292-0.087,0.914,0.176,0.959,0.404c0.114,0.595,0.047,1.27-0.048,1.89c-0.165,1.088-0.422,2.156-0.607,3.24
				c-0.346,2.011-2.839,15.099,1.574,13.125c0.958-0.43,1.84-1.16,2.186-2.196c0.296-0.888,0.659-1.692,1.027-2.522
				c0.675-1.528,1.306-3.087,1.896-4.666c0.22-0.584,0.245-1.271,0.413-1.887c0.313-1.145,0.632-2.287,1.022-3.392
				c0.11-0.312,0.549-0.745,0.718-0.679c0.471,0.189,1.09,0.378,1.049,1.246c-0.014,0.313-0.13,0.618-0.176,0.931
				c-0.524,3.581-1.271,7.003-1.439,10.654c-0.332,7.167,2.745,4.702,4.414-0.501c0.369-1.153,0.788-2.311,0.976-3.513
				c0.371-2.384,1.764-4.027,2.692-6.007c0.845-1.798,1.896-3.356,3.196-4.674c0.562-0.571,1.137-1.138,1.75-1.62
				c0.834-0.657,2.584,0.202,3.066,1.433c0.697,1.775,1.02,3.723,0.883,5.6c-0.1,1.347-0.051,2.688-0.154,4.027
				c-0.117,1.493-0.273,2.986-0.309,4.484c-0.029,1.271,0.113,2.548,0.139,3.823c0.014,0.767-0.08,1.533-0.076,2.299
				c0.004,1.144,0.051,2.288,0.08,3.432c0.094,0.06,0.189,0.119,0.283,0.179c0.334-0.403,0.818-0.735,0.971-1.223
				c0.443-1.401,0.787-2.854,1.104-4.308c0.291-1.34,0.467-2.718,0.752-4.06c0.236-1.118,0.693-2.188,0.809-3.315
				c0.152-1.5,1.004-2.451,1.605-3.591c0.256-0.481,0.734-0.939,1.18-1.084c0.857-0.278,1.791-0.562,2.645-0.415
				c1.6,0.276,2.588-0.649,3.477-2.014c0.377-0.579,0.812-1.115,1.123-1.743c0.213-0.433,0.312-0.981,0.359-1.492
				c0.092-1.033,0.689-1.003,1.277-0.96c1.756,0.13,0.279,9.554,0.553,11.184c0.123,0.729,0.479,1.566,0.951,1.998
				c0.59,0.539,1.816,0.017,2.395-0.666c0.293-0.346,0.719-0.542,0.979-0.914c0.92-1.31,1.398-2.842,1.602-4.564
				c0.158-1.338,0.578-2.627,0.832-3.951c0.289-1.521,0.566-3.049,0.766-4.589c0.105-0.816,0.809-1.774,1.492-1.776
				c0.377,0,0.988,0.835,0.924,1.37c-0.152,1.281-0.119,2.574-0.256,3.868c-0.775,7.378,0.771,14.452,2.812,21.326
				c0.057,0.189,0.297,0.434,0.447,0.428c1.662-0.063,3.322-0.169,4.982-0.27c0.68-0.041,1.359-0.134,2.039-0.145
				c2.637-0.037,5.201-0.465,7.682-1.647c0.842-0.401,1.793-0.469,2.695-0.688c0.07-0.018,0.152-0.015,0.211-0.058
				c1.973-1.396,4.168-2.231,6.055-3.906c1.566-1.39,2.9-3.059,4.379-4.543c0.508-0.512,1.025-0.594,1.777-0.357
				c-0.332,0.535-0.578,1.029-0.9,1.437c-0.975,1.229-1.979,2.423-2.969,3.633c-0.066,0.083-0.1,0.219-0.174,0.278
				c-1.602,1.215-3.164,2.518-4.822,3.603c-1.285,0.841-2.662,1.514-4.051,2.068c-1.582,0.634-3.217,1.08-4.842,1.549
				c-0.613,0.176-1.256,0.197-1.887,0.27c-1.432,0.165-2.863,0.34-4.299,0.469c-1.504,0.138-3.014,0.22-4.52,0.34
				c-0.379,0.028-0.758,0.104-1.125,0.158c0.693-0.089,0.072,9.384-0.064,10.301c-0.793,5.353-4.842,8.771-9.258,8.255
				c-1.508-0.178-2.531-1.216-3.242-2.793c-0.623-1.379-0.715-2.822-0.43-4.327c0.258-1.367,0.371-2.807,0.814-4.078
				c0.416-1.191,1.139-2.246,1.807-3.285c1.352-2.101,3.252-3.28,5.18-4.396c0.52-0.302,0.846-0.714,0.701-1.53
				c-0.229-1.273-0.393-2.568-0.57-3.855c-0.182-1.323-0.26-2.68-0.547-3.97c-0.34-1.54-0.496-3.074-0.465-4.659
				c0.008-0.331-0.115-0.666-0.178-1c-0.066-0.017-0.135-0.033-0.203-0.05c-0.146,0.374-0.33,0.734-0.436,1.124
				c-0.338,1.246-1.346,1.59-2.09,2.242c-1.525,1.335-4.408,3.527-6.389,2.584c-2.584-1.232-1.787-5.462-1.623-8.069
				c0.012-0.159-0.299-0.496-0.461-0.498c-1.016-0.002-2.033,0.064-3.049,0.109c-0.145,0.008-0.311-0.033-0.43,0.04
				c-1.215,0.737-2.316,1.633-2.797,3.292c-0.391,1.338-0.83,2.663-1.127,4.032c-0.322,1.488-0.408,3.057-0.768,4.529
				c-0.59,2.409-0.871,5.016-2.592,6.814c-0.48,0.502-2.465,1.193-2.898,0.743c-0.514-0.537-0.908-1.265-1.289-1.963
				c-0.361-0.666-0.658-1.386-0.941-2.106c-1.401-3.557-2.088-8.576-0.76-12.303c1.313-3.684,4.622-5.771,1.807-9.677
				c-1.853,0.65-3.103,2.573-4.125,4.449c-0.594,1.091-1.196,2.181-1.706,3.329c-0.35,0.788-0.549,1.674-0.818,2.514
				c-0.448,1.399-0.888,2.804-1.353,4.193c-1.037,3.104-2.003,5.513-4.345,7.444c-2.703,2.229-5.03,2.258-5.438-2.181
				c-0.06-0.639-0.029-1.29-0.003-1.933c0.023-0.541-0.14-0.788-0.554-0.523c-0.942,0.603-1.922,1.152-2.778,1.907
				c-1.128,0.993-3.418,1.354-4.614,0.495c-0.708-0.506-1.156-1.209-1.169-2.306c-0.025-2.157-0.124-4.313-0.195-6.529
				c-0.116,0.044-0.238,0.045-0.281,0.115c-2.375,3.843-4.393,7.759-6.571,11.733c-1.688,3.079-7.103,8.416-8.573,2.064
				c-0.354-1.525-0.403-3.031-0.23-4.591c0.062-0.567-0.095-1.171-0.155-1.821c-0.083,0.084-0.166,0.137-0.21,0.22
				c-0.404,0.77-0.823,1.528-1.196,2.319c-0.368,0.778-0.583,1.696-1.047,2.369c-1.258,1.821-2.597,3.562-3.94,5.292
				c-0.382,0.491-1.065,0.601-1.243,1.386c-0.011,0.045-0.071,0.104-0.111,0.107c-1.765,0.159-3.604,2.225-5.037,0.05
				c-0.863-1.311-0.42-4.484-0.314-6.004c0.386-5.609,2.359-10.762,2.251-16.41c-0.001-0.144-0.061-0.336-0.004-0.423
				c0.298-0.461,0.141-0.879-0.2-1.008c-0.327-0.125-0.856-0.141-1.072,0.097c-0.816,0.897-1.582,1.876-2.291,2.901
				c-1.696,2.453-2.76,5.479-3.261,8.757c-0.255,1.661,0.001,8.892-2.209,8.548c-0.259-0.04-0.594-0.5-0.677-0.848
				c-0.964-3.947-2.02-8.733-1.763-12.848c0.202-3.246,2.016-5.358,3.025-8.2c0.348-0.981,0.318-2.198,0.322-3.311
				c0.004-0.702-1.397-1.639-2.205-1.518c-1.075,0.161-2.117,0.469-2.926,1.466c-0.558,0.686-1.211,1.271-1.69,2.024
				c-3.34,5.234-4.154,14.186-9.995,16.854c-1.348,0.616-2.745,0.521-3.807-0.959c-0.478-0.664-0.91-1.374-1.473-2.231
				c-0.637,0.672-1.436,1.419-2.143,2.279c-1.767,2.144-4.444,3.979-6.922,4.443c-3.823,0.715-4.247-1.922-5.696-5.296
				c-0.091,0.404-0.122,0.849-0.284,1.208c-0.532,1.182-1.051,2.384-1.688,3.481c-0.879,1.516-1.861,2.942-2.796,4.411
				c-0.162,0.255-0.333,0.514-0.446,0.8c-0.512,1.3-1.509,1.954-2.506,2.389c-3.835,1.671-3.099-11.896-3.052-13.941
				c0.013-0.552-0.023-1.105-0.039-1.657c-0.065-0.042-0.133-0.085-0.198-0.127c-0.184,0.173-0.459,0.302-0.535,0.527
				c-1.059,3.163-3.289,4.643-5.647,6.015c-1.678,0.977-3.222,0.349-4.749-0.362c-0.441-0.205-0.799-0.881-1.055-1.436
				c-0.663-1.433-1.287-2.896-1.282-4.62c0.001-0.2-0.235-0.401-0.362-0.601c-0.132,0.147-0.319,0.265-0.39,0.449
				c-0.68,1.758-1.333,3.532-2.01,5.293c-0.354,0.922-0.716,1.84-1.116,2.73c-3.184,7.092-9.321,3.991-9.232-3.371
				c0.001-0.209-0.041-0.418-0.062-0.627c-0.14,0.104-0.338,0.164-0.41,0.314c-0.955,1.971-1.884,3.961-2.84,5.933
				c-1.125,2.32-2.129,5.686-4.146,7.107c-2.913,2.053-5.21-0.424-5.966-3.883c-0.667-3.057-0.439-7.078,0.251-10.117
				c0.529-2.325,6.962-14.5,3.692-16.545c-0.412-0.257-1.098-0.292-1.508-0.038c-1.143,0.704-1.982,1.88-2.736,3.136
				c-0.271,0.454-0.598,0.858-0.878,1.307c-1.108,1.771-2.205,3.583-2.879,5.648c-0.588,1.803-1.528,3.447-1.64,5.501
				c-0.036,0.681-0.557,1.342-0.915,1.963c-0.106,0.186-0.467,0.354-0.61,0.271c-0.574-0.328-1.135-0.727-1.267-1.601
				c-0.464-3.074-1.73-6.104-1.777-9.285c-0.06-4.081,2.781-5.217,3.355-8.764c0.312-1.937-0.779-2.894-2.122-3.117
				c-0.977-0.163-1.759,0.226-2.609,1.129c-1.492,1.579-2.178,3.8-3.47,5.501c-0.369,0.486-0.475,1.259-0.739,1.875
				c-0.392,0.911-0.826,1.795-1.226,2.7c-0.725,1.642-1.087,3.397-1.086,5.264c0,1.447-0.217,2.954,0.037,4.333
				c0.309,1.681-0.511,2.816-0.924,4.139c-0.104,0.335-0.771,0.577-1.172,0.56c-0.429-0.018-0.694-0.431-0.745-1.108
				c-0.273-3.672-1.604-7.092-1.983-10.738c-0.477-4.591,0.854-6.412,3.068-9.717c0.496-0.741,0.936-1.553,1.31-2.393
				c0.154-0.349,0.128-0.863,0.08-1.286c-1.04-9.096-8.594-2.317-11.941,1.204c-6.457,6.794-17.856,14.978-26.694,10.549
				c-0.113-0.058-0.281-0.09-0.324-0.194c-0.183-0.439-0.327-0.901-0.486-1.355c0.386-0.146,0.856-0.547,1.143-0.403
				c5.679,2.879,16.318-1.466,21.252-5.131c3.904-2.9,11.421-14.898,16.805-10.326c0.909,0.771,1.638,2.06,1.796,3.567
				c0.12,1.142,0.251,2.288,0.267,3.436c0.009,0.721-0.224,1.441-0.28,2.169C60.548,109.825,60.606,110.423,60.623,111.232z
				 M248.471,146.035c0.203,3.441,2.311,5.341,5.736,0.988c0.328-0.417,0.561-0.998,0.711-1.554c0.211-0.781,0.34-1.603,0.438-2.418
				c0.191-1.597,0.344-3.187,0.051-4.81c-0.18-0.972-0.178-1.995-0.242-2.995c-0.041-0.682-0.32-0.914-0.809-0.524
				c-2.086,1.653-3.932,3.607-5.033,6.369C248.65,142.774,248.383,144.548,248.471,146.035z M121.723,107.778
				c0.073-0.01,0.148-0.021,0.222-0.031c0.093-0.271,0.132-0.601,0.285-0.808c2.377-3.207,3.698-7.612,4.586-11.727
				c0.255-1.184,1.104-12.414,1.325-12.508c-0.311,0.131-0.452,0.14-0.518,0.228c-4.678,6.338-5.139,15.733-5.987,23.797
				C121.601,107.07,121.691,107.429,121.723,107.778z M147.293,115.792c0.09,0.023,0.18,0.047,0.27,0.071
				c0.442-0.686,0.922-1.343,1.319-2.066c0.592-1.078,1.153-2.185,1.675-3.316c0.609-1.318,1.11-2.703,0.658-4.256
				c-0.077-0.268-0.421-0.567-0.659-0.59c-0.586-0.057-1.39,0.847-1.516,1.541c-0.041,0.217-0.135,0.417-0.206,0.623
				c-0.364,1.039-0.819,2.048-1.068,3.127c-0.252,1.1-0.314,2.267-0.432,3.409C147.285,114.815,147.305,115.306,147.293,115.792z"/>
			<path fill-rule="evenodd" clip-rule="evenodd" d="M98.549,98.939c-0.028,1.448-0.987,3.135-1.773,3.118
				c-1.195-0.026-2.337-1.401-2.303-2.777c0.026-1.084,1.472-2.571,2.437-2.506C97.677,96.825,98.57,98.002,98.549,98.939z"/>
		</g>
	</g>
	
		<text transform="matrix(1 0 0 1 140.9683 155.7949)" fill="#010101" stroke="#010101" stroke-width="0.5" stroke-miterlimit="10" font-family="'Baskerville'" font-size="16.7709">t h e r a p y</text>
	<g>
		<path d="M286.822,120.401c0,0,0.324-0.401,0.933-1.154c0.625-0.742,1.438-1.896,2.785-3.169c0.661-0.634,1.327-1.421,2.174-2.12
			c0.839-0.708,1.715-1.513,2.709-2.301c0.509-0.379,1.034-0.771,1.575-1.174c0.271-0.202,0.544-0.406,0.822-0.613
			c0.311-0.228,0.592-0.38,0.895-0.578c1.212-0.729,2.416-1.585,3.802-2.313c2.765-1.481,5.832-2.927,9.229-4.03
			c0.849-0.276,1.71-0.556,2.581-0.84c0.889-0.221,1.788-0.444,2.697-0.669c1.808-0.505,3.712-0.746,5.625-1.092
			c0.958-0.17,1.94-0.22,2.921-0.336c0.983-0.091,1.97-0.234,2.972-0.245c0.999-0.039,2.005-0.079,3.016-0.118
			c1.045-0.028,2.027,0.08,3.051,0.113l1.525,0.077c0.51,0.052,1.02,0.146,1.53,0.217c1.02,0.161,2.05,0.293,3.067,0.479
			c2.012,0.458,4.046,0.867,6.032,1.44c4,1.056,7.939,2.291,11.888,3.221c0.988,0.226,1.973,0.451,2.952,0.675
			c0.99,0.16,1.977,0.318,2.956,0.477c0.977,0.174,1.96,0.287,2.937,0.396c0.977,0.118,1.946,0.223,2.907,0.319
			c3.844,0.399,7.585,0.615,11.114,0.334c0.879-0.098,1.746-0.195,2.6-0.291c0.841-0.175,1.67-0.346,2.484-0.515
			c0.82-0.147,1.579-0.473,2.351-0.693c0.768-0.233,1.515-0.489,2.236-0.773c2.897-1.091,5.567-2.06,7.873-3.063
			c2.323-0.966,4.272-1.974,5.85-2.853c1.541-0.938,2.743-1.698,3.479-2.329c0.763-0.595,1.17-0.913,1.17-0.913
			s-0.404,0.32-1.163,0.921c-0.732,0.637-1.929,1.406-3.464,2.357c-1.572,0.892-3.518,1.915-5.835,2.9
			c-2.302,1.022-4.966,2.011-7.854,3.124c-0.718,0.29-1.464,0.551-2.236,0.792c-0.774,0.228-1.536,0.561-2.36,0.715
			c-0.818,0.176-1.651,0.355-2.496,0.537c-0.858,0.103-1.73,0.208-2.614,0.313c-3.549,0.309-7.311,0.12-11.165-0.251
			c-0.965-0.09-1.937-0.188-2.913-0.298c-0.977-0.102-1.962-0.207-2.948-0.375c-0.988-0.151-1.982-0.304-2.981-0.457
			c-0.985-0.218-1.976-0.437-2.971-0.656c-3.972-0.904-7.929-2.112-11.921-3.133c-1.987-0.557-4.008-0.946-6.009-1.387
			c-1.006-0.175-2.015-0.297-3.017-0.448c-0.503-0.066-1-0.156-1.504-0.204l-1.526-0.065c-1.006-0.026-2.045-0.126-3.013-0.09
			c-1.002,0.047-1.998,0.093-2.988,0.14c-0.993,0.018-1.969,0.167-2.942,0.265c-0.97,0.123-1.941,0.179-2.889,0.354
			c-1.892,0.358-3.771,0.609-5.555,1.122c-0.896,0.23-1.783,0.457-2.66,0.682c-0.857,0.286-1.705,0.569-2.541,0.848
			c-3.348,1.115-6.359,2.566-9.041,4.025c-1.351,0.72-2.569,1.599-3.769,2.333c-0.287,0.189-0.616,0.377-0.856,0.562
			c-0.271,0.206-0.539,0.408-0.803,0.608c-0.528,0.399-1.041,0.788-1.538,1.164c-0.97,0.782-1.825,1.58-2.644,2.282
			c-0.83,0.695-1.455,1.452-2.094,2.07c-1.281,1.218-2.107,2.401-2.722,3.144c-0.603,0.757-0.925,1.16-0.925,1.16
			c-0.17,0.217-0.484,0.255-0.702,0.084c-0.217-0.171-0.255-0.485-0.084-0.702L286.822,120.401z"/>
	</g>
</g>
<path fill="#FFFFFF" d="M137,209.334c-0.024,0.891-0.144,1.699-0.323,2.455c-1.572-0.642-3.406-0.409-4.879,1.343
	c-2.751,3.271-7.347,3.743-10.583,5.962l-13.842-26.427l-10.861,28h22.947c-0.719,0.87-1.281,1.948-1.613,3.338
	c-0.704,2.946,1.458,6.601,4.821,6.329c12.684-1.024,23.95-6.902,24.333-21C147.175,202.882,137.175,202.898,137,209.334z"/>
</svg>
